<svg width="540" height="332" viewBox="0 0 540 332" fill="none" xmlns="http://www.w3.org/2000/svg">
<rect x="7" y="123.018" width="388.148" height="204.983" rx="20" stroke="#201627" stroke-width="8"/>
<rect x="24.6228" y="84.7451" width="337.577" height="227.891" rx="24" fill="#201627"/>
<path d="M65.7441 149.015C66.8179 146.695 70.1155 146.695 71.1892 149.015L76.2452 159.939C76.6823 160.884 77.5775 161.534 78.6107 161.658L90.5626 163.091C93.1007 163.395 94.1198 166.531 92.2452 168.269L83.4181 176.454C82.655 177.161 82.3131 178.214 82.5146 179.234L84.8452 191.044C85.3402 193.552 82.6723 195.49 80.4401 194.245L69.9286 188.379C69.0199 187.872 67.9134 187.872 67.0047 188.379L56.4933 194.245C54.261 195.49 51.5932 193.552 52.0881 191.044L54.4188 179.234C54.6203 178.214 54.2783 177.161 53.5153 176.454L44.6882 168.269C42.8136 166.531 43.8326 163.395 46.3708 163.091L58.3227 161.658C59.3559 161.534 60.2511 160.884 60.6881 159.939L65.7441 149.015Z" fill="#A12CEB"/>
<path d="M113.331 182.133C112.675 180.741 112.027 179.293 111.387 177.789C110.747 176.285 110.139 174.797 109.563 173.325C108.987 171.853 108.451 170.445 107.955 169.101C107.475 167.757 107.059 166.557 106.707 165.501H110.835C111.155 166.461 111.499 167.501 111.867 168.621C112.251 169.725 112.635 170.829 113.019 171.933C113.419 173.037 113.803 174.093 114.171 175.101C114.539 176.109 114.883 176.981 115.203 177.717C115.507 176.981 115.843 176.109 116.211 175.101C116.595 174.093 116.979 173.037 117.363 171.933C117.763 170.829 118.147 169.725 118.515 168.621C118.899 167.501 119.251 166.461 119.571 165.501H123.555C123.187 166.557 122.763 167.757 122.283 169.101C121.803 170.445 121.275 171.853 120.699 173.325C120.123 174.797 119.515 176.285 118.875 177.789C118.235 179.293 117.587 180.741 116.931 182.133H113.331ZM126.207 165.501H129.951V182.133H126.207V165.501ZM139.293 165.309C141.773 165.309 143.677 165.749 145.005 166.629C146.333 167.493 146.997 168.917 146.997 170.901C146.997 172.901 146.325 174.349 144.981 175.245C143.637 176.125 141.717 176.565 139.221 176.565H138.045V182.133H134.301V165.741C135.117 165.581 135.981 165.469 136.893 165.405C137.805 165.341 138.605 165.309 139.293 165.309ZM139.533 168.501C139.261 168.501 138.989 168.509 138.717 168.525C138.461 168.541 138.237 168.557 138.045 168.573V173.373H139.221C140.517 173.373 141.493 173.197 142.149 172.845C142.805 172.493 143.133 171.837 143.133 170.877C143.133 170.413 143.045 170.029 142.869 169.725C142.709 169.421 142.469 169.181 142.149 169.005C141.845 168.813 141.469 168.685 141.021 168.621C140.573 168.541 140.077 168.501 139.533 168.501Z" fill="#F9BE75"/>
<path d="M65.7441 216.105C66.8179 213.785 70.1155 213.785 71.1892 216.105L76.2452 227.029C76.6823 227.974 77.5775 228.624 78.6107 228.748L90.5626 230.181C93.1007 230.485 94.1198 233.621 92.2452 235.359L83.4181 243.543C82.655 244.251 82.3131 245.303 82.5146 246.324L84.8452 258.134C85.3402 260.642 82.6723 262.58 80.4401 261.334L69.9286 255.468C69.0199 254.961 67.9134 254.961 67.0047 255.468L56.4933 261.334C54.261 262.58 51.5932 260.642 52.0881 258.134L54.4188 246.324C54.6203 245.303 54.2783 244.251 53.5153 243.543L44.6882 235.359C42.8136 233.621 43.8326 230.485 46.3708 230.181L58.3227 228.748C59.3559 228.624 60.2511 227.974 60.6881 227.029L65.7441 216.105Z" fill="#A12CEB"/>
<path d="M112.923 232.367C113.451 232.367 113.883 232.327 114.219 232.247C114.571 232.151 114.851 232.031 115.059 231.887C115.267 231.727 115.411 231.543 115.491 231.335C115.571 231.127 115.611 230.895 115.611 230.639C115.611 230.095 115.355 229.647 114.843 229.295C114.331 228.927 113.451 228.535 112.203 228.119C111.659 227.927 111.115 227.711 110.571 227.471C110.027 227.215 109.539 226.903 109.107 226.535C108.675 226.151 108.323 225.695 108.051 225.167C107.779 224.623 107.643 223.967 107.643 223.199C107.643 222.431 107.787 221.743 108.075 221.135C108.363 220.511 108.771 219.983 109.299 219.551C109.827 219.119 110.467 218.791 111.219 218.567C111.971 218.327 112.819 218.207 113.763 218.207C114.883 218.207 115.851 218.327 116.667 218.567C117.483 218.807 118.155 219.071 118.683 219.359L117.603 222.311C117.139 222.071 116.619 221.863 116.043 221.687C115.483 221.495 114.803 221.399 114.003 221.399C113.107 221.399 112.459 221.527 112.059 221.783C111.675 222.023 111.483 222.399 111.483 222.911C111.483 223.215 111.555 223.471 111.699 223.679C111.843 223.887 112.043 224.079 112.299 224.255C112.571 224.415 112.875 224.567 113.211 224.711C113.563 224.839 113.947 224.975 114.363 225.119C115.227 225.439 115.979 225.759 116.619 226.079C117.259 226.383 117.787 226.743 118.203 227.159C118.635 227.575 118.955 228.063 119.163 228.623C119.371 229.183 119.475 229.863 119.475 230.663C119.475 232.215 118.931 233.423 117.843 234.287C116.755 235.135 115.115 235.559 112.923 235.559C112.187 235.559 111.523 235.511 110.931 235.415C110.339 235.335 109.811 235.231 109.347 235.103C108.899 234.975 108.507 234.839 108.171 234.695C107.851 234.551 107.579 234.415 107.355 234.287L108.411 231.311C108.907 231.583 109.515 231.831 110.235 232.055C110.971 232.263 111.867 232.367 112.923 232.367ZM130.703 229.007C130.703 227.903 130.455 227.023 129.959 226.367C129.463 225.695 128.727 225.359 127.751 225.359C127.431 225.359 127.135 225.375 126.863 225.407C126.591 225.423 126.367 225.447 126.191 225.479V231.935C126.415 232.079 126.703 232.199 127.055 232.295C127.423 232.391 127.791 232.439 128.159 232.439C129.855 232.439 130.703 231.295 130.703 229.007ZM134.351 228.911C134.351 229.887 134.231 230.775 133.991 231.575C133.751 232.375 133.399 233.063 132.935 233.639C132.471 234.215 131.895 234.663 131.207 234.983C130.519 235.303 129.727 235.463 128.831 235.463C128.335 235.463 127.871 235.415 127.439 235.319C127.007 235.223 126.591 235.087 126.191 234.911V239.663H122.615V223.031C122.935 222.935 123.303 222.847 123.719 222.767C124.135 222.671 124.567 222.591 125.015 222.527C125.479 222.463 125.943 222.415 126.407 222.383C126.887 222.335 127.343 222.311 127.775 222.311C128.815 222.311 129.743 222.471 130.559 222.791C131.375 223.095 132.063 223.535 132.623 224.111C133.183 224.671 133.607 225.359 133.895 226.175C134.199 226.991 134.351 227.903 134.351 228.911ZM137 229.007C137 227.887 137.168 226.911 137.504 226.079C137.856 225.231 138.312 224.527 138.872 223.967C139.432 223.407 140.072 222.983 140.792 222.695C141.528 222.407 142.28 222.263 143.048 222.263C144.84 222.263 146.256 222.815 147.296 223.919C148.336 225.007 148.856 226.615 148.856 228.743C148.856 228.951 148.848 229.183 148.832 229.439C148.816 229.679 148.8 229.895 148.784 230.087H140.672C140.752 230.823 141.096 231.407 141.704 231.839C142.312 232.271 143.128 232.487 144.152 232.487C144.808 232.487 145.448 232.431 146.072 232.319C146.712 232.191 147.232 232.039 147.632 231.863L148.112 234.767C147.92 234.863 147.664 234.959 147.344 235.055C147.024 235.151 146.664 235.231 146.264 235.295C145.88 235.375 145.464 235.439 145.016 235.487C144.568 235.535 144.12 235.559 143.672 235.559C142.536 235.559 141.544 235.391 140.696 235.055C139.864 234.719 139.168 234.263 138.608 233.687C138.064 233.095 137.656 232.399 137.384 231.599C137.128 230.799 137 229.935 137 229.007ZM145.4 227.639C145.384 227.335 145.328 227.039 145.232 226.751C145.152 226.463 145.016 226.207 144.824 225.983C144.648 225.759 144.416 225.575 144.128 225.431C143.856 225.287 143.512 225.215 143.096 225.215C142.696 225.215 142.352 225.287 142.064 225.431C141.776 225.559 141.536 225.735 141.344 225.959C141.152 226.183 141 226.447 140.888 226.751C140.792 227.039 140.72 227.335 140.672 227.639H145.4ZM151.515 228.911C151.515 227.999 151.659 227.143 151.947 226.343C152.251 225.527 152.683 224.823 153.243 224.231C153.803 223.623 154.483 223.143 155.283 222.791C156.083 222.439 156.995 222.263 158.019 222.263C158.691 222.263 159.307 222.327 159.867 222.455C160.427 222.567 160.971 222.735 161.499 222.959L160.755 225.815C160.419 225.687 160.051 225.575 159.651 225.479C159.251 225.383 158.803 225.335 158.307 225.335C157.251 225.335 156.459 225.663 155.931 226.319C155.419 226.975 155.163 227.839 155.163 228.911C155.163 230.047 155.403 230.927 155.883 231.551C156.379 232.175 157.235 232.487 158.451 232.487C158.883 232.487 159.347 232.447 159.843 232.367C160.339 232.287 160.795 232.159 161.211 231.983L161.715 234.911C161.299 235.087 160.779 235.239 160.155 235.367C159.531 235.495 158.843 235.559 158.091 235.559C156.939 235.559 155.947 235.391 155.115 235.055C154.283 234.703 153.595 234.231 153.051 233.639C152.523 233.047 152.131 232.351 151.875 231.551C151.635 230.735 151.515 229.855 151.515 228.911ZM168.191 235.223H164.615V222.599H168.191V235.223ZM168.527 218.951C168.527 219.607 168.311 220.127 167.879 220.511C167.463 220.879 166.967 221.063 166.391 221.063C165.815 221.063 165.311 220.879 164.879 220.511C164.463 220.127 164.255 219.607 164.255 218.951C164.255 218.295 164.463 217.783 164.879 217.415C165.311 217.031 165.815 216.839 166.391 216.839C166.967 216.839 167.463 217.031 167.879 217.415C168.311 217.783 168.527 218.295 168.527 218.951ZM176.877 232.727C177.229 232.727 177.565 232.719 177.885 232.703C178.205 232.687 178.461 232.663 178.653 232.631V229.919C178.509 229.887 178.293 229.855 178.005 229.823C177.717 229.791 177.453 229.775 177.213 229.775C176.877 229.775 176.557 229.799 176.253 229.847C175.965 229.879 175.709 229.951 175.485 230.063C175.261 230.175 175.085 230.327 174.957 230.519C174.829 230.711 174.765 230.951 174.765 231.239C174.765 231.799 174.949 232.191 175.317 232.415C175.701 232.623 176.221 232.727 176.877 232.727ZM176.589 222.263C177.645 222.263 178.525 222.383 179.229 222.623C179.933 222.863 180.493 223.207 180.909 223.655C181.341 224.103 181.645 224.647 181.821 225.287C181.997 225.927 182.085 226.639 182.085 227.423V234.863C181.573 234.975 180.861 235.103 179.949 235.247C179.037 235.407 177.933 235.487 176.637 235.487C175.821 235.487 175.077 235.415 174.405 235.271C173.749 235.127 173.181 234.895 172.701 234.575C172.221 234.239 171.853 233.807 171.597 233.279C171.341 232.751 171.213 232.103 171.213 231.335C171.213 230.599 171.357 229.975 171.645 229.463C171.949 228.951 172.349 228.543 172.845 228.239C173.341 227.935 173.909 227.719 174.549 227.591C175.189 227.447 175.853 227.375 176.541 227.375C177.005 227.375 177.413 227.399 177.765 227.447C178.133 227.479 178.429 227.527 178.653 227.591V227.255C178.653 226.647 178.469 226.159 178.101 225.791C177.733 225.423 177.093 225.239 176.181 225.239C175.573 225.239 174.973 225.287 174.381 225.383C173.789 225.463 173.277 225.583 172.845 225.743L172.389 222.863C172.597 222.799 172.853 222.735 173.157 222.671C173.477 222.591 173.821 222.527 174.189 222.479C174.557 222.415 174.941 222.367 175.341 222.335C175.757 222.287 176.173 222.263 176.589 222.263ZM190.859 235.463C189.819 235.447 188.971 235.335 188.315 235.127C187.675 234.919 187.163 234.631 186.779 234.263C186.411 233.879 186.155 233.423 186.011 232.895C185.883 232.351 185.819 231.743 185.819 231.071V217.175L189.395 216.599V230.351C189.395 230.671 189.419 230.959 189.467 231.215C189.515 231.471 189.603 231.687 189.731 231.863C189.875 232.039 190.075 232.183 190.331 232.295C190.587 232.407 190.931 232.479 191.363 232.511L190.859 235.463ZM107.547 257.007C107.547 255.887 107.715 254.911 108.051 254.079C108.403 253.231 108.859 252.527 109.419 251.967C109.979 251.407 110.619 250.983 111.339 250.695C112.075 250.407 112.827 250.263 113.595 250.263C115.387 250.263 116.803 250.815 117.843 251.919C118.883 253.007 119.403 254.615 119.403 256.743C119.403 256.951 119.395 257.183 119.379 257.439C119.363 257.679 119.347 257.895 119.331 258.087H111.219C111.299 258.823 111.643 259.407 112.251 259.839C112.859 260.271 113.675 260.487 114.699 260.487C115.355 260.487 115.995 260.431 116.619 260.319C117.259 260.191 117.779 260.039 118.179 259.863L118.659 262.767C118.467 262.863 118.211 262.959 117.891 263.055C117.571 263.151 117.211 263.231 116.811 263.295C116.427 263.375 116.011 263.439 115.563 263.487C115.115 263.535 114.667 263.559 114.219 263.559C113.083 263.559 112.091 263.391 111.243 263.055C110.411 262.719 109.715 262.263 109.155 261.687C108.611 261.095 108.203 260.399 107.931 259.599C107.675 258.799 107.547 257.935 107.547 257.007ZM115.947 255.639C115.931 255.335 115.875 255.039 115.779 254.751C115.699 254.463 115.563 254.207 115.371 253.983C115.195 253.759 114.963 253.575 114.675 253.431C114.403 253.287 114.059 253.215 113.643 253.215C113.243 253.215 112.899 253.287 112.611 253.431C112.323 253.559 112.083 253.735 111.891 253.959C111.699 254.183 111.547 254.447 111.435 254.751C111.339 255.039 111.267 255.335 111.219 255.639H115.947ZM125.71 256.815C125.71 257.919 125.958 258.807 126.454 259.479C126.95 260.151 127.686 260.487 128.662 260.487C128.982 260.487 129.278 260.479 129.55 260.463C129.822 260.431 130.046 260.399 130.222 260.367V253.863C129.998 253.719 129.702 253.599 129.334 253.503C128.982 253.407 128.622 253.359 128.254 253.359C126.558 253.359 125.71 254.511 125.71 256.815ZM133.798 262.815C133.478 262.911 133.11 263.007 132.694 263.103C132.278 263.183 131.838 263.255 131.374 263.319C130.926 263.383 130.462 263.431 129.982 263.463C129.518 263.511 129.07 263.535 128.638 263.535C127.598 263.535 126.67 263.383 125.854 263.079C125.038 262.775 124.35 262.343 123.79 261.783C123.23 261.207 122.798 260.519 122.494 259.719C122.206 258.903 122.062 257.991 122.062 256.983C122.062 255.959 122.19 255.039 122.446 254.223C122.702 253.391 123.07 252.687 123.55 252.111C124.03 251.535 124.614 251.095 125.302 250.791C126.006 250.487 126.806 250.335 127.702 250.335C128.198 250.335 128.638 250.383 129.022 250.479C129.422 250.575 129.822 250.711 130.222 250.887V245.175L133.798 244.599V262.815ZM141.223 263.223H137.647V250.599H141.223V263.223ZM141.559 246.951C141.559 247.607 141.343 248.127 140.911 248.511C140.495 248.879 139.999 249.063 139.423 249.063C138.847 249.063 138.343 248.879 137.911 248.511C137.495 248.127 137.287 247.607 137.287 246.951C137.287 246.295 137.495 245.783 137.911 245.415C138.343 245.031 138.847 244.839 139.423 244.839C139.999 244.839 140.495 245.031 140.911 245.415C141.343 245.783 141.559 246.295 141.559 246.951ZM144.964 247.455L148.54 246.879V250.599H152.836V253.575H148.54V258.015C148.54 258.767 148.668 259.367 148.924 259.815C149.196 260.263 149.732 260.487 150.532 260.487C150.916 260.487 151.308 260.455 151.708 260.391C152.124 260.311 152.5 260.207 152.836 260.079L153.34 262.863C152.908 263.039 152.428 263.191 151.9 263.319C151.372 263.447 150.724 263.511 149.956 263.511C148.98 263.511 148.172 263.383 147.532 263.127C146.892 262.855 146.38 262.487 145.996 262.023C145.612 261.543 145.34 260.967 145.18 260.295C145.036 259.623 144.964 258.879 144.964 258.063V247.455ZM159.824 263.223H156.248V250.599H159.824V263.223ZM160.16 246.951C160.16 247.607 159.944 248.127 159.512 248.511C159.096 248.879 158.6 249.063 158.024 249.063C157.448 249.063 156.944 248.879 156.512 248.511C156.096 248.127 155.888 247.607 155.888 246.951C155.888 246.295 156.096 245.783 156.512 245.415C156.944 245.031 157.448 244.839 158.024 244.839C158.6 244.839 159.096 245.031 159.512 245.415C159.944 245.783 160.16 246.295 160.16 246.951ZM175.494 256.887C175.494 257.879 175.35 258.791 175.062 259.623C174.774 260.439 174.358 261.143 173.814 261.735C173.27 262.311 172.614 262.759 171.846 263.079C171.094 263.399 170.246 263.559 169.302 263.559C168.374 263.559 167.526 263.399 166.758 263.079C166.006 262.759 165.358 262.311 164.814 261.735C164.27 261.143 163.846 260.439 163.542 259.623C163.238 258.791 163.086 257.879 163.086 256.887C163.086 255.895 163.238 254.991 163.542 254.175C163.862 253.359 164.294 252.663 164.838 252.087C165.398 251.511 166.054 251.063 166.806 250.743C167.574 250.423 168.406 250.263 169.302 250.263C170.214 250.263 171.046 250.423 171.798 250.743C172.566 251.063 173.222 251.511 173.766 252.087C174.31 252.663 174.734 253.359 175.038 254.175C175.342 254.991 175.494 255.895 175.494 256.887ZM171.846 256.887C171.846 255.783 171.622 254.919 171.174 254.295C170.742 253.655 170.118 253.335 169.302 253.335C168.486 253.335 167.854 253.655 167.406 254.295C166.958 254.919 166.734 255.783 166.734 256.887C166.734 257.991 166.958 258.871 167.406 259.527C167.854 260.167 168.486 260.487 169.302 260.487C170.118 260.487 170.742 260.167 171.174 259.527C171.622 258.871 171.846 257.991 171.846 256.887ZM178.764 251.031C179.372 250.855 180.156 250.695 181.116 250.551C182.076 250.391 183.084 250.311 184.14 250.311C185.212 250.311 186.1 250.455 186.804 250.743C187.524 251.015 188.092 251.407 188.508 251.919C188.924 252.431 189.22 253.039 189.396 253.743C189.572 254.447 189.66 255.231 189.66 256.095V263.223H186.084V256.527C186.084 255.375 185.932 254.559 185.628 254.079C185.324 253.599 184.756 253.359 183.924 253.359C183.668 253.359 183.396 253.375 183.108 253.407C182.82 253.423 182.564 253.447 182.34 253.479V263.223H178.764V251.031Z" fill="#F9BE75"/>
<path d="M186.082 29.2151C184.961 27.2983 182.984 27.1641 182.785 27.1564C181.59 26.9155 180.396 26.6745 179.142 26.4118C179.563 24.3394 179.925 22.2452 180.304 20.2884C180.708 18.0787 179.268 16.1107 177.253 15.8969C176.677 14.7037 176.08 13.5683 175.422 13.5236C174.822 13.5006 174.2 14.6479 173.518 15.7734C173.518 15.7734 173.517 15.7734 173.458 15.7516C172.959 14.7175 172.379 13.7193 171.84 13.7182C171.3 13.717 170.681 14.6693 170.041 15.6793C169.982 15.6575 169.841 15.6716 169.782 15.6498C169.244 14.5362 168.648 13.4008 168.048 13.3778C167.449 13.3549 166.767 14.4804 166.144 15.6276L166.085 15.6058C165.586 14.5717 165.066 13.5954 164.466 13.5724C163.927 13.5713 163.308 14.5236 162.668 15.5335C162.608 15.5117 162.468 15.5259 162.409 15.5041C161.871 14.3905 161.274 13.255 160.675 13.2321C160.076 13.2091 159.394 14.3346 158.792 15.4242L158.733 15.4024C158.234 14.3683 157.713 13.3919 157.114 13.369C156.575 13.3678 155.956 14.3201 155.375 15.3519C155.316 15.3301 155.176 15.3442 155.116 15.3224C154.579 14.2088 153.982 13.0733 153.383 13.0504C152.783 13.0274 152.101 14.1529 151.5 15.2425C151.5 15.2425 151.44 15.2207 151.419 15.2784C150.92 14.2443 150.4 13.268 149.86 13.2668C149.32 13.2657 148.723 14.1602 148.142 15.192C148.002 15.2061 147.943 15.1843 147.803 15.1985C147.265 14.0848 146.668 12.9494 146.128 12.9483C145.529 12.9253 144.928 14.0148 144.267 15.0826C144.207 15.0608 144.126 15.0967 144.067 15.0749C142.048 15.0562 140.454 16.8299 140.449 19.0549C140.52 20.5215 140.489 22.0818 140.478 23.5844C137.513 23.9392 135.223 24.4762 133.491 25.1515C132.849 25.2441 132.238 25.8062 131.624 26.5635C130.72 27.739 130.153 29.1031 129.988 29.3701C128.739 36.837 129.966 50.4496 126.765 66.5667C124.518 78.9727 120.732 88.3919 118.838 94.1165C118.759 95.0699 118.918 96.1105 119.238 97.0791C119.67 98.4815 120.517 99.119 120.734 99.264C121.934 100.227 123.274 101.177 124.818 101.938C124.484 102.667 124.128 103.454 123.815 104.125C123.21 105.41 123.48 106.884 124.4 107.876C124.447 108.482 124.495 109.089 125.01 109.343C125.427 109.496 125.77 109.294 126.135 109.035L126.374 109.122C126.404 109.592 126.515 110.026 126.911 110.236C127.307 110.446 127.672 110.187 128.058 109.87L128.296 109.957C128.326 110.427 128.438 110.86 128.833 111.071C129.229 111.281 129.594 111.022 129.98 110.705L130.159 110.77C130.249 111.262 130.279 111.731 130.756 111.906C131.151 112.116 131.597 111.821 131.902 111.54L132.081 111.605C132.171 112.096 132.202 112.566 132.657 112.798C133.052 113.009 133.498 112.713 133.884 112.396L134.063 112.462C134.132 113.011 134.183 113.423 134.639 113.655C135.094 113.887 135.48 113.57 135.866 113.253L136.044 113.318C136.113 113.867 136.204 114.359 136.62 114.511C137.075 114.744 137.462 114.427 137.848 114.11L137.967 114.153C138.036 114.702 138.126 115.194 138.521 115.404C138.977 115.636 139.363 115.319 139.77 114.944L139.889 114.988C139.958 115.537 140.048 116.029 140.444 116.239C140.899 116.471 141.306 116.096 141.752 115.801C143.219 116.404 144.85 115.822 145.697 114.43C146.443 113.131 147.248 111.854 148.036 110.44C149.864 110.978 151.692 111.517 153.482 111.976C154.494 112.346 155.595 112.291 156.563 111.859C158.036 111.155 158.523 109.826 158.628 109.538C165.288 100.385 173.97 86.078 179.978 66.5355C183.827 53.9957 185.596 42.5278 186.403 33.1311C186.988 31.9043 186.798 30.3941 186.082 29.2151Z" fill="#383639"/>
<path d="M185.602 29.2346C184.481 27.3179 182.505 27.1836 182.305 27.176C181.11 26.9351 179.916 26.6941 178.662 26.4314C179.083 24.359 179.445 22.2648 179.824 20.3079C180.228 18.0983 178.788 16.1303 176.773 15.9165C176.197 14.7233 175.6 13.5879 174.942 13.5431C174.342 13.5202 173.72 14.6675 173.038 15.7929C173.038 15.7929 173.038 15.7929 172.978 15.7711C172.479 14.737 171.899 13.7389 171.36 13.7377C170.82 13.7366 170.201 14.6888 169.561 15.6988C169.502 15.677 169.361 15.6912 169.302 15.6694C168.765 14.5558 168.168 13.4203 167.568 13.3974C166.969 13.3744 166.287 14.4999 165.685 15.5894L165.626 15.5676C165.127 14.5336 164.607 13.5572 164.007 13.5343C163.468 13.5331 162.849 14.4854 162.209 15.4954C162.15 15.4736 162.009 15.4877 161.95 15.4659C161.412 14.3523 160.816 13.2168 160.216 13.1939C159.617 13.171 158.935 14.2964 158.333 15.386L158.274 15.3642C157.775 14.3301 157.255 13.3537 156.655 13.3308C156.116 13.3296 155.497 14.2819 154.917 15.3137C154.857 15.2919 154.717 15.306 154.657 15.2842C154.12 14.1706 153.523 13.0352 152.924 13.0122C152.325 12.9893 151.642 14.1147 151.041 15.2043C151.041 15.2043 150.981 15.1825 150.96 15.2402C150.461 14.2061 149.941 13.2298 149.401 13.2286C148.862 13.2275 148.264 14.122 147.684 15.1538C147.543 15.1679 147.484 15.1461 147.344 15.1603C146.806 14.0467 146.209 12.9112 145.67 12.9101C145.07 12.8871 144.469 13.9767 143.867 15.0662C143.808 15.0444 143.727 15.0803 143.668 15.0585C141.649 15.0398 140.054 16.8135 140.05 19.0385C140.099 20.5628 140.089 22.0654 140.139 23.5898C137.233 23.9664 135.083 24.4892 133.33 25.2223C132.688 25.3149 132.077 25.877 131.403 26.6125C130.44 27.7662 129.873 29.1304 129.708 29.3973C128.4 36.8424 129.686 50.4768 126.426 66.5721C124.178 78.9781 120.392 88.3973 118.579 94.0859C118.5 95.0393 118.659 96.0799 119 96.9909C119.432 98.3933 120.279 99.0308 120.496 99.1757C121.636 100.117 122.977 101.066 124.478 101.944C124.144 102.673 123.788 103.459 123.475 104.13C122.87 105.415 123.14 106.889 124.06 107.881C124.108 108.488 124.155 109.095 124.67 109.349C125.087 109.501 125.431 109.3 125.796 109.04L126.034 109.128C126.064 109.597 126.176 110.031 126.571 110.241C126.967 110.452 127.332 110.192 127.718 109.875L127.956 109.963C127.987 110.432 128.098 110.866 128.494 111.076C128.889 111.287 129.254 111.027 129.64 110.71L129.819 110.776C129.909 111.267 129.94 111.737 130.416 111.911C130.811 112.121 131.257 111.826 131.563 111.545L131.741 111.61C131.831 112.102 131.862 112.571 132.317 112.804C132.713 113.014 133.158 112.719 133.544 112.402L133.723 112.467C133.792 113.016 133.844 113.428 134.299 113.66C134.754 113.892 135.14 113.575 135.526 113.258L135.705 113.324C135.774 113.873 135.864 114.364 136.281 114.517C136.736 114.749 137.122 114.432 137.508 114.115L137.627 114.159C137.696 114.708 137.786 115.199 138.182 115.41C138.637 115.642 139.023 115.325 139.43 114.95L139.549 114.993C139.618 115.543 139.708 116.034 140.104 116.244C140.559 116.476 140.966 116.102 141.412 115.806C142.879 116.409 144.51 115.828 145.357 114.435C146.103 113.136 146.908 111.859 147.696 110.445C149.524 110.984 151.353 111.522 153.142 111.981C154.155 112.352 155.255 112.296 156.164 111.843C157.637 111.138 158.123 109.81 158.229 109.521C164.889 100.368 173.571 86.0616 179.579 66.5192C183.428 53.9793 185.196 42.5114 186.004 33.1147C186.529 31.8661 186.339 30.3559 185.602 29.2346Z" fill="url(#paint0_linear)"/>
<path d="M124.176 92.0755C123.292 94.3058 124.138 96.9732 126.214 98.1263C129.455 99.9681 133.236 101.811 137.621 103.482C142.6 105.371 147.255 106.486 151.179 107.202C152.952 107.524 154.727 106.733 155.718 105.131C160.651 97.3761 166.135 87.0069 170.753 74.0281C175.857 59.721 178.298 46.6002 179.469 36.0268C179.719 33.499 178.207 31.1769 175.919 30.6013C170.886 29.4131 165.049 28.3893 158.543 27.9059C151.377 27.3777 144.914 27.6962 139.425 28.3058C136.96 28.5823 135.137 30.7962 135.184 33.433C135.178 41.7478 134.541 51.5999 132.605 62.4173C130.468 74.3396 127.311 84.2514 124.176 92.0755Z" stroke="#E54FC4" stroke-width="2" stroke-miterlimit="10"/>
<path d="M161.465 96.6275C146.956 98.4532 133.314 92.9339 125.332 87.2605L126.942 84.7067C129.563 86.5833 143.412 95.78 161.107 93.5494L161.465 96.6275Z" fill="#E54FC4"/>
<path d="M177.272 47.9284C168.276 42.9969 147.545 42.0859 135.183 44.5013L134.667 41.2999C147.552 38.7484 168.924 39.5669 178.75 44.9986L177.272 47.9284Z" fill="#E54FC4"/>
<path d="M126.598 93.9447L127.805 91.5706C128.097 90.9572 128.78 90.7491 129.355 91.0249L129.593 91.1121C130.226 91.4096 130.53 92.241 130.238 92.8544L129.107 95.3876C128.773 96.1165 127.889 96.3169 127.26 95.8243L126.945 95.5781C126.413 95.1868 126.327 94.5004 126.598 93.9447Z" stroke="#E54FC4" stroke-width="0.5" stroke-miterlimit="10"/>
<path d="M131.859 96.7216L133.108 94.232C133.4 93.6186 134.127 93.295 134.722 93.513L135.16 93.6079C135.755 93.8258 136.079 94.5995 135.787 95.2129C135.703 95.4439 134.7 97.6306 134.555 97.8398C134.221 98.5687 133.316 98.8269 132.644 98.4498C132.585 98.428 132.249 98.2394 132.108 98.2536C131.815 97.9496 131.588 97.2773 131.859 96.7216Z" stroke="#E54FC4" stroke-width="0.5" stroke-miterlimit="10"/>
<path d="M137.171 98.9953L138.462 96.3902C138.776 95.719 139.502 95.3955 140.118 95.5557L140.777 95.6005C141.393 95.7607 141.739 96.4766 141.447 97.09C141.278 97.552 140.401 99.3923 140.172 99.8324C139.838 100.561 139.014 100.784 138.257 100.637C138.079 100.572 137.7 100.499 137.581 100.455C137.126 100.223 136.921 99.4932 137.171 98.9953Z" stroke="#E54FC4" stroke-width="0.5" stroke-miterlimit="10"/>
<path d="M143.268 100.964L144.662 98.2657C144.975 97.5945 145.663 97.1914 146.381 97.258L147.261 97.2526C147.839 97.3333 148.205 97.9915 147.994 98.569C147.74 99.2619 146.991 100.756 146.677 101.427C146.322 102.213 145.536 102.515 144.758 102.427C144.499 102.397 144.121 102.324 143.861 102.295C143.283 102.214 142.997 101.52 143.268 100.964Z" stroke="#E54FC4" stroke-width="0.5" stroke-miterlimit="10"/>
<path d="M149.858 102.33C149.608 102.828 149.915 103.464 150.493 103.545C150.871 103.618 151.271 103.633 151.611 103.627C152.41 103.657 153.178 103.218 153.593 102.453C154.051 101.573 154.614 100.404 154.952 99.48C155.163 98.9025 154.776 98.3021 154.236 98.3009L153.157 98.2987C152.417 98.2899 151.708 98.7507 151.395 99.4218L149.858 102.33Z" stroke="#E54FC4" stroke-width="0.5" stroke-miterlimit="10"/>
<path d="M141.513 31.8207L139.691 32.0047C139.189 32.0831 138.821 32.5374 138.83 33.0648L139.126 37.2336C139.195 37.7828 139.587 38.1882 140.148 38.1316L141.971 37.9477C142.472 37.8693 142.841 37.4149 142.831 36.8876L142.556 32.6609C142.466 32.1695 142.015 31.7424 141.513 31.8207Z" stroke="#E54FC4" stroke-width="0.5" stroke-miterlimit="10"/>
<path d="M149.263 31.1203L147.364 31.1451C146.824 31.144 146.375 31.6343 146.384 32.1616L146.358 36.4743C146.346 37.0594 146.797 37.4866 147.277 37.4659L149.177 37.4411C149.717 37.4422 150.145 37.0097 150.157 36.4246L150.183 32.1119C150.174 31.5846 149.744 31.0996 149.263 31.1203Z" stroke="#E54FC4" stroke-width="0.5" stroke-miterlimit="10"/>
<path d="M157.218 31.154L155.242 31.0197C154.724 30.9608 154.214 31.4293 154.203 32.0144L153.875 36.4131C153.804 36.9765 154.213 37.5191 154.752 37.5203L156.669 37.6327C157.188 37.6916 157.697 37.2231 157.708 36.638L158.096 32.2611C158.167 31.6978 157.818 31.1769 157.218 31.154Z" stroke="#E54FC4" stroke-width="0.5" stroke-miterlimit="10"/>
<path d="M165.677 32.0234L163.704 31.6941C163.126 31.6134 162.638 32.0241 162.546 32.6452L161.836 37.1659C161.743 37.787 162.093 38.3078 162.671 38.3885L164.643 38.7178C165.221 38.7985 165.709 38.3878 165.802 37.7667L166.512 33.246C166.583 32.6827 166.255 32.1041 165.677 32.0234Z" stroke="#E54FC4" stroke-width="0.5" stroke-miterlimit="10"/>
<path d="M174.71 34.0871L172.661 33.5987C172.104 33.4603 171.557 33.8492 171.405 34.4485L170.393 39.0552C170.241 39.6545 170.629 40.2549 171.186 40.3933L173.176 40.8599C173.733 40.9983 174.28 40.6094 174.432 40.0102L175.444 35.4034C175.596 34.8041 175.267 34.2255 174.71 34.0871Z" stroke="#E54FC4" stroke-width="0.5" stroke-miterlimit="10"/>
<path d="M162.216 86.0956L158.989 85.5036L158.879 83.04C158.869 82.5126 158.172 82.3883 158.003 82.8503L156.877 85.1885L154.029 84.6695C153.591 84.5746 153.341 85.0726 153.554 85.4126L155.437 88.1978L154.248 90.7092C154.019 91.1494 154.47 91.5765 154.895 91.3391L156.856 90.2235L158.526 92.6688C158.778 93.0883 159.402 92.8585 159.371 92.3889L159.221 88.9282L162.456 87.1002C162.761 86.8192 162.654 86.1904 162.216 86.0956ZM139.859 81.5113L137.168 83.1454L137.369 86.1005C137.421 86.5123 136.877 86.7062 136.664 86.3663L135.186 84.3187L133.547 85.2905C133.203 85.492 132.811 85.0866 132.998 84.762L133.98 82.633L132.327 80.325C132.093 80.0428 132.321 79.6026 132.7 79.6756L135.11 80.0998L135.969 78.1222C136.117 77.718 136.674 77.8564 136.726 78.2683L136.883 80.4214L139.612 80.8968C140.075 80.7388 140.144 81.288 139.859 81.5113Z" stroke="#E54FC4" stroke-width="0.25" stroke-miterlimit="10"/>
<path d="M166.84 74.7563L163.431 74.2939L163.244 71.6712C163.175 71.122 162.537 71.0195 162.288 71.5175L161.179 73.9929L158.148 73.6036C157.689 73.5665 157.439 74.0644 157.712 74.4262L159.735 77.1973L158.542 79.9037C158.373 80.3657 158.824 80.7929 159.248 80.5554L161.252 79.3244L163.041 81.8132C163.352 82.2545 163.938 81.9452 163.907 81.4755L163.621 77.834L166.94 75.7751C167.386 75.4798 167.278 74.8511 166.84 74.7563ZM143.087 71.0359L140.333 72.8432L140.691 75.9214C140.743 76.3333 140.237 76.6067 139.965 76.2449L138.367 74.1538L136.687 75.2411C136.343 75.4426 135.93 75.095 136.078 74.6908L136.983 72.4027L135.211 70.0511C134.977 69.7689 135.227 69.271 135.605 69.344L138.138 69.6167L138.98 67.5018C139.128 67.0976 139.706 67.1783 139.737 67.6479L139.953 69.8228L142.805 70.1467C143.303 70.2634 143.452 70.7766 143.087 71.0359Z" stroke="#E54FC4" stroke-width="0.25" stroke-miterlimit="10"/>
<path d="M170.534 63.0125L167.002 62.7016L166.716 59.9775C166.647 59.4284 165.95 59.3041 165.739 59.8815L164.707 62.5161L161.574 62.2205C161.115 62.1834 160.844 62.739 161.117 63.1008L163.319 65.9373L162.202 68.8028C162.012 69.3226 162.523 69.7715 162.968 69.4763L165.035 68.072L167.024 70.5685C167.356 70.9521 168.002 70.6645 167.912 70.1731L167.467 66.4085L170.812 64.0967C171.138 63.7579 170.993 63.0496 170.534 63.0125ZM145.503 60.1996L142.744 62.202L143.179 65.4393C143.21 65.9089 142.705 66.1824 142.432 65.8206L140.716 63.6859L139.052 64.9104C138.687 65.1697 138.274 64.822 138.384 64.3383L139.272 61.9129L137.321 59.4959C137.087 59.2137 137.278 58.694 137.677 58.7093L140.312 58.8883L141.137 56.6361C141.306 56.1742 141.884 56.2549 141.974 56.7463L142.288 59.0225L145.302 59.2745C145.68 59.3476 145.809 59.9186 145.503 60.1996Z" stroke="#E54FC4" stroke-width="0.25" stroke-miterlimit="10"/>
<path d="M173.355 50.8809L169.64 50.6996L169.257 47.8742C169.188 47.325 168.41 47.2367 168.22 47.7564L167.205 50.5282L163.89 50.3623C163.431 50.3252 163.139 50.9386 163.471 51.3221L165.873 54.1663L164.752 57.2269C164.562 57.7466 165.132 58.2174 165.54 57.8426L167.611 56.2432L169.778 58.8052C170.11 59.1887 170.756 58.9012 170.708 58.2942L170.127 54.3487L173.577 51.7482C174.04 51.5903 173.814 50.918 173.355 50.8809ZM146.907 48.9896L144.063 51.223L144.656 54.5834C144.746 55.0749 144.181 55.3265 143.887 55.0225L142.031 52.9019L140.325 54.2419C139.96 54.5012 139.488 54.1318 139.636 53.7275L140.447 51.1431L138.356 48.7403C138.062 48.4362 138.312 47.9383 138.712 47.9536L141.508 48.0607L142.256 45.6495C142.425 45.1875 143.024 45.2105 143.114 45.7019L143.527 48.0794L146.663 48.18C147.105 48.0799 147.293 48.6726 146.907 48.9896Z" stroke="#E54FC4" stroke-width="0.25" stroke-miterlimit="10"/>
<path d="M161.204 85.7258L157.977 85.1338L157.867 82.6702C157.857 82.1428 157.16 82.0185 156.991 82.4805L155.865 84.8187L153.017 84.2997C152.579 84.2048 152.329 84.7028 152.542 85.0428L154.425 87.828L153.235 90.3394C153.007 90.7796 153.458 91.2067 153.883 90.9693L155.844 89.8537L157.514 92.299C157.765 92.7185 158.39 92.4887 158.359 92.0191L158.209 88.5584L161.443 86.7304C161.749 86.4494 161.642 85.8206 161.204 85.7258ZM138.788 81.1197L136.096 82.7538L136.297 85.7089C136.349 86.1207 135.805 86.3146 135.592 85.9747L134.114 83.9271L132.475 84.8989C132.131 85.1004 131.74 84.695 131.926 84.3704L132.908 82.2414L131.255 79.9334C131.021 79.6512 131.25 79.211 131.628 79.284L134.038 79.7082L134.898 77.7306C135.046 77.3264 135.602 77.4649 135.654 77.8767L135.811 80.0298L138.54 80.5052C139.041 80.4268 139.132 80.9182 138.788 81.1197Z" fill="#FAF9FB" stroke="#E54FC4" stroke-width="0.5" stroke-miterlimit="10"/>
<path d="M165.747 74.4229L162.338 73.9606L162.151 71.3379C162.082 70.7887 161.444 70.6862 161.195 71.1841L160.086 73.6596L157.055 73.2703C156.596 73.2332 156.346 73.7311 156.619 74.0929L158.642 76.8639L157.449 79.5704C157.28 80.0324 157.731 80.4596 158.155 80.2221L160.159 78.991L161.948 81.4799C162.259 81.9212 162.845 81.6118 162.814 81.1422L162.527 77.5007L165.847 75.4417C166.314 75.0888 166.206 74.46 165.747 74.4229ZM142.075 70.6666L139.32 72.474L139.679 75.5521C139.73 75.964 139.225 76.2374 138.952 75.8757L137.355 73.7845L135.674 74.8718C135.33 75.0733 134.918 74.7257 135.066 74.3215L135.971 72.0334L134.199 69.6818C133.965 69.3996 134.215 68.9017 134.593 68.9747L137.126 69.2474L137.968 67.1326C138.116 66.7283 138.694 66.809 138.725 67.2787L138.941 69.4535L141.793 69.7775C142.29 69.8941 142.359 70.4433 142.075 70.6666Z" fill="#FAF9FB" stroke="#E54FC4" stroke-width="0.5" stroke-miterlimit="10"/>
<path d="M169.441 62.6775L165.909 62.3666L165.624 59.6426C165.555 59.0934 164.857 58.9691 164.646 59.5466L163.614 62.1811L160.481 61.8855C160.022 61.8484 159.751 62.4041 160.024 62.7659L162.226 65.6023L161.109 68.4679C160.919 68.9876 161.43 69.4366 161.875 69.1413L163.942 67.7371L165.931 70.2336C166.264 70.6172 166.909 70.3296 166.819 69.8381L166.374 66.0735L169.719 63.7617C170.067 63.3652 169.9 62.7146 169.441 62.6775ZM144.431 59.8069L141.673 61.8093L142.108 65.0466C142.138 65.5162 141.633 65.7896 141.361 65.4279L139.644 63.2931L137.981 64.5177C137.616 64.777 137.203 64.4293 137.312 63.9456L138.2 61.5202L136.25 59.1032C136.016 58.821 136.206 58.3013 136.605 58.3166L139.24 58.4956L140.065 56.2434C140.234 55.7815 140.812 55.8621 140.902 56.3536L141.217 58.6298L144.23 58.8818C144.587 59.0126 144.775 59.6054 144.431 59.8069Z" fill="#FAF9FB" stroke="#E54FC4" stroke-width="0.5" stroke-miterlimit="10"/>
<path d="M172.262 50.5475L168.548 50.3662L168.164 47.5409C168.095 46.9917 167.318 46.9033 167.127 47.4231L166.112 50.1949L162.797 50.0289C162.338 49.9918 162.046 50.6053 162.378 50.9888L164.78 53.833L163.719 56.9153C163.529 57.4351 164.099 57.9058 164.506 57.5311L166.577 55.9317L168.745 58.4936C169.077 58.8772 169.722 58.5896 169.675 57.9827L169.094 54.0372L172.544 51.4367C172.948 51.257 172.742 50.5269 172.262 50.5475ZM145.895 48.6204L143.051 50.8537L143.644 54.2142C143.734 54.7056 143.169 54.9572 142.875 54.6532L141.019 52.5326L139.313 53.8726C138.948 54.1319 138.475 53.7625 138.624 53.3583L139.435 50.7738L137.344 48.371C137.05 48.067 137.3 47.569 137.7 47.5843L140.496 47.6914L141.244 45.2802C141.413 44.8182 142.012 44.8412 142.102 45.3326L142.515 47.7102L145.651 47.8108C146.072 47.7683 146.2 48.3393 145.895 48.6204Z" fill="#FAF9FB" stroke="#E54FC4" stroke-width="0.5" stroke-miterlimit="10"/>
<path d="M243.839 70.7977C243.907 68.3995 242.137 66.9654 242 66.7845C241.021 65.7711 240.042 64.7577 239.024 63.6647C240.653 62.1656 242.223 60.6446 243.772 59.1815C245.443 57.5669 245.277 54.8864 243.549 53.3368C243.716 51.9574 243.824 50.5561 243.254 50.0854C242.722 49.6942 241.393 50.1898 240.123 50.7072L240.064 50.6854C240.189 49.4215 240.293 48.2153 239.761 47.8241C239.229 47.4328 238.082 47.7988 236.893 48.2803C236.795 48.1789 236.736 48.1572 236.638 48.0558C236.806 46.6764 236.952 45.3547 236.36 44.9417C235.769 44.5286 234.521 44.9883 233.251 45.5058L233.191 45.484C233.317 44.22 233.421 43.0138 232.948 42.6444C232.416 42.2532 231.27 42.6192 230.081 43.1006C229.983 42.9993 229.923 42.9775 229.825 42.8761C229.993 41.4967 230.139 40.1751 229.548 39.762C228.956 39.349 227.708 39.8087 226.438 40.3261L226.379 40.3043C226.504 39.0404 226.608 37.8342 226.136 37.4647C225.604 37.0735 224.457 37.4395 223.268 37.921C223.17 37.8196 223.11 37.7978 223.013 37.6965C223.18 36.3171 223.326 34.9954 222.795 34.6042C222.203 34.1911 220.955 34.6508 219.685 35.1682C219.625 35.1464 219.625 35.1464 219.587 35.0669C219.712 33.803 219.795 32.6545 219.323 32.2851C218.791 31.8939 217.704 32.2817 216.515 32.7631C216.417 32.6618 216.298 32.6182 216.2 32.5168C216.346 31.1952 216.493 29.8735 215.982 29.4245C215.39 29.0115 214.142 29.4712 212.872 29.9886C212.813 29.9668 212.715 29.8654 212.655 29.8436C210.745 28.4237 208.098 28.8298 206.72 30.7485C205.834 32.0613 204.889 33.3524 203.923 34.7012C200.8 32.903 198.363 31.8143 196.157 31.2027C195.485 30.8257 194.524 30.867 193.5 31.0815C191.874 31.4681 190.46 32.1947 190.116 32.3963C184.087 37.982 176.554 50.8102 162.761 62.8521C152.154 72.459 141.881 78.3897 136.066 82.2855C135.349 83.1364 134.747 84.2259 134.426 85.2872C133.894 86.9259 134.351 88.0755 134.466 88.3141C134.992 90.0128 135.794 91.8783 136.796 93.7515C135.947 94.2264 135.098 94.7014 134.27 95.1186C132.754 95.9389 132.043 97.5123 132.233 99.0225C131.881 99.6141 131.449 100.242 131.836 100.842C132.147 101.283 132.666 101.342 133.227 101.286L133.401 101.546C133.152 102.044 132.902 102.542 133.213 102.983C133.524 103.425 134.042 103.484 134.663 103.449L134.837 103.709C134.588 104.207 134.338 104.705 134.649 105.146C134.96 105.588 135.478 105.647 136.099 105.612L136.214 105.85C135.904 106.327 135.714 106.846 136.004 107.345C136.294 107.844 136.893 107.867 137.513 107.833L137.65 108.013C137.34 108.49 137.15 109.009 137.44 109.508C137.73 110.007 138.329 110.03 138.949 109.996L139.086 110.176C138.755 110.71 138.565 111.23 138.855 111.729C139.145 112.228 139.744 112.251 140.364 112.216L140.501 112.397C140.17 112.931 139.92 113.429 140.27 113.95C140.559 114.449 141.218 114.494 141.86 114.401L141.936 114.56C141.606 115.094 141.335 115.65 141.684 116.171C142.034 116.692 142.654 116.657 143.274 116.622L143.372 116.723C143.042 117.257 142.771 117.813 143.12 118.334C143.47 118.855 144.09 118.82 144.77 118.807C145.878 120.391 147.944 121.017 149.757 120.306C151.409 119.666 153.103 118.911 154.857 118.178C156.361 119.973 157.885 121.71 159.409 123.447C160.227 124.532 161.393 125.221 162.609 125.404C164.581 125.733 165.977 124.869 166.262 124.646C179.075 120.628 197.051 113.392 215.274 99.7628C226.72 91.1835 235.415 82.1865 241.806 74.5065C243.041 73.7145 243.769 72.2785 243.839 70.7977Z" fill="#565159"/>
<path d="M243.346 70.4846C243.414 68.0864 241.643 66.6523 241.507 66.4714C240.528 65.4579 239.549 64.4445 238.531 63.3515C240.16 61.8524 241.73 60.3315 243.278 58.8683C244.95 57.2537 244.783 54.5733 243.055 53.0237C243.223 51.6442 243.331 50.243 242.761 49.7722C242.229 49.381 240.899 49.8766 239.63 50.3941L239.57 50.3723C239.695 49.1083 239.8 47.9021 239.268 47.5109C238.736 47.1197 237.589 47.4857 236.4 47.9672C236.302 47.8658 236.243 47.844 236.145 47.7427C236.312 46.3632 236.459 45.0416 235.867 44.6285C235.276 44.2155 234.027 44.6752 232.757 45.1926L232.698 45.1708C232.823 43.9069 232.927 42.7007 232.455 42.3313C231.923 41.94 230.776 42.306 229.587 42.7875C229.489 42.6862 229.43 42.6643 229.332 42.563C229.499 41.1836 229.646 39.8619 229.054 39.4489C228.463 39.0359 227.214 39.4955 225.945 40.013L225.885 39.9911C226.01 38.7272 226.115 37.5211 225.642 37.1516C225.11 36.7604 223.964 37.1264 222.775 37.6078C222.677 37.5065 222.617 37.4847 222.519 37.3834C222.687 36.0039 222.833 34.6823 222.301 34.291C221.71 33.878 220.461 34.3377 219.192 34.8551C219.132 34.8333 219.132 34.8333 219.094 34.7538C219.219 33.4898 219.302 32.3414 218.829 31.972C218.298 31.5807 217.21 31.9685 216.021 32.45C215.923 32.3487 215.804 32.3051 215.706 32.2037C215.853 30.882 215.999 29.5604 215.488 29.1114C214.897 28.6984 213.649 29.158 212.379 29.6755C212.319 29.6537 212.221 29.5523 212.162 29.5305C210.251 28.1105 207.605 28.5167 206.227 30.4353C205.341 31.7482 204.396 33.0393 203.429 34.3881C200.405 32.6912 197.947 31.6602 195.821 31.0127C195.149 30.6357 194.188 30.677 193.105 30.8697C191.419 31.2345 190.005 31.9612 189.682 32.1049C183.675 37.6329 176.082 50.4393 162.288 62.4812C151.682 72.0881 141.468 78.0406 135.713 81.9582C134.996 82.8091 134.394 83.8986 134.073 84.9599C133.541 86.5986 133.998 87.7482 134.092 88.0446C134.596 89.8011 135.36 91.587 136.362 93.4602C135.513 93.9351 134.604 94.3883 133.776 94.8055C132.261 95.6258 131.55 97.1991 131.739 98.7094C131.388 99.301 130.955 99.9285 131.343 100.529C131.654 100.97 132.173 101.029 132.733 100.973L132.908 101.233C132.658 101.731 132.408 102.229 132.719 102.67C133.03 103.111 133.549 103.17 134.169 103.136L134.344 103.396C134.094 103.894 133.844 104.392 134.155 104.833C134.466 105.275 134.985 105.333 135.605 105.299L135.72 105.537C135.411 106.013 135.221 106.533 135.511 107.032C135.801 107.531 136.4 107.554 137.02 107.519L137.156 107.7C136.847 108.176 136.657 108.696 136.947 109.195C137.236 109.694 137.836 109.717 138.456 109.682L138.592 109.863C138.262 110.397 138.072 110.917 138.361 111.416C138.651 111.915 139.251 111.938 139.871 111.903L140.007 112.084C139.677 112.618 139.427 113.116 139.776 113.637C140.066 114.136 140.725 114.181 141.366 114.088L141.443 114.247C141.113 114.781 140.842 115.337 141.191 115.858C141.54 116.378 142.161 116.344 142.781 116.309L142.879 116.41C142.549 116.944 142.278 117.5 142.627 118.021C142.976 118.541 143.597 118.507 144.277 118.494C145.384 120.078 147.451 120.704 149.264 119.992C150.916 119.353 152.61 118.598 154.364 117.865C155.867 119.66 157.392 121.397 158.916 123.134C159.734 124.219 160.899 124.908 162.115 125.091C164.088 125.42 165.484 124.556 165.768 124.333C178.582 120.315 196.558 113.079 214.781 99.4497C226.227 90.8703 234.922 81.8733 241.312 74.1934C242.628 73.3654 243.357 71.9294 243.346 70.4846Z" fill="url(#paint1_linear)"/>
<path d="M142.966 84.0922C140.478 85.5389 139.578 88.5494 140.926 91.1385C142.985 95.1016 145.594 99.5932 148.981 104.173C152.793 109.433 156.766 113.704 160.295 117.157C161.904 118.663 164.233 119.123 166.268 118.362C176.379 114.533 188.688 108.758 201.515 100.095C215.475 90.7338 225.911 80.6713 233.456 72.2354C235.275 70.2165 235.236 67.1896 233.358 65.1268C229.33 60.6393 224.43 55.7672 218.51 50.9145C211.982 45.5115 205.63 41.2864 199.879 38.0017C197.369 36.5588 194.178 37.1588 192.534 39.4381C187.252 46.6725 180.25 54.9145 171.311 63.1019C161.311 72.3418 151.46 79.1474 142.966 84.0922Z" stroke="#E54FC4" stroke-width="2" stroke-miterlimit="10"/>
<path d="M177.662 114.345C161.839 105.932 151.677 91.2744 147.417 80.415L150.759 79.2157C152.147 82.8017 159.998 101.001 179.263 111.264L177.662 114.345Z" fill="#E54FC4"/>
<path d="M224.122 81.127C218.516 70.6258 199.128 55.537 185.505 49.0425L187.068 45.8818C201.265 52.652 221.244 68.1538 227.332 79.5518L224.122 81.127Z" fill="#E54FC4"/>
<path d="M144.158 87.4737L147.024 86.1C147.75 85.7765 148.604 86.0239 149.03 86.7039L149.205 86.9643C149.67 87.7238 149.412 88.6118 148.644 89.0509L145.735 90.54C144.886 91.015 143.836 90.5649 143.515 89.5962L143.404 89.1625C143.157 88.5479 143.491 87.819 144.158 87.4737Z" stroke="#E54FC4" stroke-width="0.5" stroke-miterlimit="10"/>
<path d="M147.649 93.7952L150.596 92.3856C151.343 92.0043 152.198 92.2518 152.704 92.8958L153.096 93.3012C153.603 93.9452 153.405 94.855 152.658 95.2362C152.416 95.3441 149.89 96.7113 149.648 96.8191C148.798 97.2941 147.727 96.9017 147.305 96.0267C147.207 95.9253 147.015 95.5276 146.955 95.5058C146.708 94.8913 146.983 94.1406 147.649 93.7952Z" stroke="#E54FC4" stroke-width="0.5" stroke-miterlimit="10"/>
<path d="M151.569 99.6844L154.677 98.2029C155.424 97.8216 156.381 97.9753 156.968 98.5834L157.598 99.076C158.126 99.6622 157.949 100.514 157.321 100.939C156.816 101.213 154.714 102.342 154.209 102.616C153.36 103.091 152.348 102.72 151.722 102.033C151.586 101.852 151.292 101.548 151.156 101.367C150.628 100.78 150.924 99.972 151.569 99.6844Z" stroke="#E54FC4" stroke-width="0.5" stroke-miterlimit="10"/>
<path d="M156.425 105.783L159.634 104.208C160.441 103.848 161.359 103.922 162.087 104.516L162.993 105.176C163.563 105.646 163.446 106.52 162.839 106.887C162.151 107.29 160.394 108.219 159.566 108.636C158.657 109.089 157.662 108.856 156.956 108.204C156.7 107.98 156.347 107.654 156.151 107.451C155.602 106.923 155.779 106.07 156.425 105.783Z" stroke="#E54FC4" stroke-width="0.5" stroke-miterlimit="10"/>
<path d="M162.185 111.625C161.599 111.935 161.443 112.729 161.954 113.178C162.307 113.504 162.681 113.772 163.035 114.098C163.822 114.713 164.919 114.853 165.768 114.378C166.778 113.831 168.171 113.162 169.122 112.594C169.729 112.227 169.765 111.389 169.174 110.976L168.029 110.229C167.281 109.693 166.282 109.655 165.475 110.014L162.185 111.625Z" stroke="#E54FC4" stroke-width="0.5" stroke-miterlimit="10"/>
<path d="M199.81 42.4271L197.934 41.2817C197.381 40.9482 196.718 41.0985 196.388 41.6324L194.032 45.485C193.701 46.0189 193.868 46.6694 194.421 47.0028L196.297 48.1482C196.85 48.4817 197.513 48.3314 197.844 47.7975L200.2 43.945C200.471 43.3893 200.304 42.7388 199.81 42.4271Z" stroke="#E54FC4" stroke-width="0.5" stroke-miterlimit="10"/>
<path d="M207.65 47.1976L205.838 45.879C205.306 45.4878 204.643 45.638 204.274 46.0924L201.561 49.8142C201.171 50.3262 201.338 50.9767 201.81 51.3462L203.623 52.6648C204.155 53.056 204.817 52.9057 205.186 52.4514L207.899 48.7296C208.268 48.2753 208.123 47.567 207.65 47.1976Z" stroke="#E54FC4" stroke-width="0.5" stroke-miterlimit="10"/>
<path d="M215.335 52.7606L213.586 51.2687C213.113 50.8993 212.374 50.8905 211.984 51.4025L208.914 54.9935C208.545 55.4478 208.55 56.1703 209.082 56.5615L210.853 57.9956C211.325 58.365 212.064 58.3739 212.454 57.8618L215.525 54.2708C215.872 53.8742 215.807 53.13 215.335 52.7606Z" stroke="#E54FC4" stroke-width="0.5" stroke-miterlimit="10"/>
<path d="M222.86 59.315L221.153 57.7077C220.702 57.2805 219.903 57.2499 219.474 57.6824L216.047 61.1426C215.618 61.5751 215.603 62.3553 216.054 62.7825L217.761 64.3898C218.212 64.817 219.011 64.8476 219.439 64.4151L222.867 60.9549C223.295 60.5223 223.29 59.7999 222.86 59.315Z" stroke="#E54FC4" stroke-width="0.5" stroke-miterlimit="10"/>
<path d="M230.136 67.2845L228.493 65.5039C228.063 65.019 227.264 64.9884 226.776 65.3991L222.991 68.7285C222.503 69.1393 222.488 69.9194 222.918 70.4044L224.561 72.1849C224.991 72.6699 225.79 72.7005 226.278 72.2897L230.063 68.9603C230.572 68.4918 230.626 67.7913 230.136 67.2845Z" stroke="#E54FC4" stroke-width="0.5" stroke-miterlimit="10"/>
<path d="M185.321 105.23L182.477 102.486L184.003 100.164C184.312 99.6875 183.784 99.1012 183.219 99.3528L180.574 100.676L178.025 98.2365C177.671 97.9107 177.047 98.1405 177.078 98.6101L177.101 102.417L174.214 103.849C173.709 104.122 173.855 104.83 174.433 104.911L177.145 105.249L177.176 108.666C177.186 109.193 177.9 109.455 178.209 108.979L180.354 105.704L184.74 106.262C185.42 106.249 185.734 105.578 185.321 105.23ZM165.81 85.3157L162.04 84.9176L160.264 87.7384C159.976 88.1567 159.38 87.9388 159.35 87.4691L159.268 84.5577L156.935 84.2927C156.476 84.2556 156.309 83.605 156.733 83.3676L159.158 82.0941L159.063 78.8503C159.07 78.4602 159.576 78.1868 159.869 78.4908L162.087 80.5472L164.329 79.4033C164.753 79.1658 165.243 79.6726 164.955 80.0909L163.675 82.1109L166.127 84.4495C166.54 84.7971 166.269 85.3528 165.81 85.3157Z" stroke="#E54FC4" stroke-width="0.25" stroke-miterlimit="10"/>
<path d="M197.139 98.0315L194.095 95.2799L195.544 92.798C195.853 92.3218 195.266 91.7138 194.761 91.9872L192.112 93.5058L189.422 91.0801C189.009 90.7324 188.423 91.0418 188.454 91.5114L188.694 95.4635L185.803 97.0899C185.298 97.3634 185.503 98.0934 186.081 98.1741L188.895 98.4185L189.105 101.901C189.153 102.508 189.91 102.654 190.219 102.178L192.248 98.664L196.839 99.035C197.298 99.0721 197.611 98.401 197.139 98.0315ZM175.949 78.0916L171.996 77.8231L170.276 80.8607C170.048 81.3009 169.372 81.1189 169.341 80.6492L169.161 77.6365L166.786 77.4869C166.267 77.428 166.16 76.7993 166.525 76.54L169.012 75.0933L168.76 71.7264C168.729 71.2568 169.273 71.0629 169.588 71.3092L171.946 73.3513L174.17 72.0702C174.595 71.8327 175.106 72.2817 174.877 72.7219L173.674 74.901L176.326 77.2472C176.679 77.573 176.467 78.1505 175.949 78.0916Z" stroke="#E54FC4" stroke-width="0.25" stroke-miterlimit="10"/>
<path d="M208.254 89.9859L204.989 87.2844L206.421 84.6652C206.692 84.1095 206.083 83.5592 205.557 83.8903L202.866 85.5245L199.976 83.0911C199.563 82.7434 198.918 83.031 198.987 83.5802L199.385 87.6553L196.43 89.455C195.904 89.7862 196.169 90.5381 196.768 90.561L199.684 90.7117L200.051 94.3173C200.099 94.9242 200.915 95.0921 201.186 94.5364L203.16 90.8058L207.933 91.0471C208.413 91.0265 208.666 90.3335 208.254 89.9859ZM184.878 69.3767L180.824 69.2019L179.121 72.3768C178.893 72.817 178.196 72.6927 178.127 72.1435L177.849 69.0294L175.393 68.9158C174.853 68.9147 174.686 68.2642 175.132 67.9689L177.641 66.4645L177.29 62.9962C177.26 62.5266 177.765 62.2531 178.118 62.579L180.595 64.6648L182.862 63.2681C183.307 62.9729 183.857 63.5014 183.628 63.9416L182.404 66.1784L185.196 68.5105C185.57 68.7786 185.337 69.4138 184.878 69.3767Z" stroke="#E54FC4" stroke-width="0.25" stroke-miterlimit="10"/>
<path d="M218.547 81.052L215.083 78.3429L216.438 75.5646C216.709 75.0089 216.041 74.4367 215.515 74.7679L212.819 76.5971L209.709 74.2138C209.296 73.8662 208.629 74.2115 208.698 74.7607L209.254 78.959L206.296 80.9537C205.769 81.2849 206.013 82.0945 206.693 82.0815L209.71 82.1385L210.176 85.8454C210.283 86.4741 211.12 86.5842 211.391 86.0285L213.288 82.1389L218.205 82.171C218.745 82.1722 219.02 81.4215 218.547 81.052ZM193.979 61.1193L189.781 61.1537L188.214 64.5095C187.964 65.0075 187.267 64.8832 187.198 64.334L186.742 61.1545L184.184 61.1346C183.644 61.1334 183.418 60.4611 183.864 60.1659L186.376 58.4664L185.868 54.875C185.778 54.3836 186.343 54.1319 186.718 54.4L189.356 56.4139L191.626 54.8223C192.072 54.527 192.642 54.9978 192.452 55.5175L191.305 57.9134L194.317 60.1954C194.751 60.4853 194.519 61.1205 193.979 61.1193Z" stroke="#E54FC4" stroke-width="0.25" stroke-miterlimit="10"/>
<path d="M184.562 104.166L181.719 101.422L183.244 99.0993C183.554 98.6232 183.026 98.0369 182.461 98.2886L179.816 99.6122L177.266 97.1722C176.913 96.8464 176.288 97.0762 176.319 97.5459L176.343 101.353L173.456 102.784C172.95 103.058 173.096 103.766 173.674 103.847L176.386 104.185L176.418 107.602C176.427 108.129 177.142 108.391 177.451 107.915L179.595 104.64L183.982 105.198C184.602 105.163 184.894 104.55 184.562 104.166ZM164.97 84.2874L161.2 83.8893L159.425 86.71C159.137 87.1284 158.541 86.9104 158.511 86.4408L158.429 83.5294L156.096 83.2643C155.637 83.2272 155.47 82.5767 155.894 82.3393L158.318 81.0658L158.223 77.822C158.231 77.4319 158.736 77.1585 159.03 77.4625L161.248 79.5188L163.49 78.375C163.914 78.1375 164.404 78.6442 164.115 79.0626L162.836 81.0826L165.288 83.4212C165.7 83.7688 165.429 84.3245 164.97 84.2874Z" fill="#FAF9FB" stroke="#E54FC4" stroke-width="0.5" stroke-miterlimit="10"/>
<path d="M196.38 96.9664L193.337 94.2148L194.786 91.7328C195.095 91.2567 194.508 90.6487 194.002 90.9221L191.353 92.4407L188.663 90.0149C188.251 89.6673 187.665 89.9767 187.695 90.4463L187.936 94.3984L185.045 96.0248C184.54 96.2982 184.745 97.0283 185.323 97.109L188.137 97.3534L188.347 100.836C188.395 101.443 189.151 101.589 189.461 101.113L191.49 97.5989L196.08 97.9699C196.48 97.9852 196.793 97.314 196.38 96.9664ZM175.131 77.0046L171.178 76.7362L169.458 79.7738C169.23 80.214 168.554 80.0319 168.523 79.5623L168.344 76.5495L165.968 76.4C165.449 76.3411 165.342 75.7124 165.707 75.4531L168.195 74.0064L167.942 70.6395C167.912 70.1699 168.455 69.976 168.77 70.2222L171.128 72.2644L173.352 70.9833C173.777 70.7458 174.288 71.1948 174.059 71.635L172.856 73.814L175.508 76.1602C175.861 76.4861 175.649 77.0635 175.131 77.0046Z" fill="#FAF9FB" stroke="#E54FC4" stroke-width="0.5" stroke-miterlimit="10"/>
<path d="M207.436 88.8983L204.172 86.1968L205.603 83.5775C205.874 83.0218 205.266 82.4715 204.739 82.8027L202.048 84.4368L199.158 82.0034C198.745 81.6558 198.1 81.9434 198.169 82.4925L198.567 86.5677L195.613 88.3674C195.086 88.6986 195.351 89.4504 195.95 89.4734L198.866 89.6241L199.234 93.2296C199.281 93.8365 200.098 94.0044 200.369 93.4487L202.342 89.7182L207.115 89.9595C207.574 89.9966 207.908 89.2677 207.436 88.8983ZM184.546 68.9908L180.471 68.8738L178.828 72.0705C178.599 72.5107 177.902 72.3864 177.812 71.895L177.454 68.8168L174.976 68.7609C174.436 68.7598 174.27 68.1093 174.715 67.814L177.186 66.23L176.835 62.7618C176.805 62.2921 177.31 62.0187 177.663 62.3445L180.161 64.3726L182.449 62.9182C182.895 62.623 183.444 63.1515 183.215 63.5917L182.051 65.8503L184.864 68.1246C185.238 68.3927 185.027 68.9701 184.546 68.9908Z" fill="#FAF9FB" stroke="#E54FC4" stroke-width="0.5" stroke-miterlimit="10"/>
<path d="M217.708 80.0229L214.244 77.3137L215.599 74.5354C215.87 73.9797 215.202 73.4076 214.676 73.7388L211.98 75.5679L208.87 73.1846C208.457 72.837 207.79 73.1823 207.859 73.7315L208.415 77.9298L205.457 79.9245C204.93 80.2557 205.174 81.0653 205.854 81.0523L208.871 81.1093L209.337 84.8162C209.444 85.4449 210.281 85.5551 210.552 84.9994L212.449 81.1097L217.366 81.1418C217.927 81.0852 218.181 80.3923 217.708 80.0229ZM193.161 60.0324L188.963 60.0668L187.397 63.4226C187.147 63.9206 186.45 63.7963 186.381 63.2471L185.924 60.0676L183.366 60.0477C182.827 60.0465 182.6 59.3742 183.046 59.079L185.558 57.3795L185.051 53.7881C184.96 53.2966 185.525 53.045 185.9 53.3131L188.538 55.327L190.809 53.7353C191.254 53.4401 191.825 53.9109 191.634 54.4306L190.487 56.8265L193.5 59.1085C193.912 59.4561 193.701 60.0336 193.161 60.0324Z" fill="#FAF9FB" stroke="#E54FC4" stroke-width="0.5" stroke-miterlimit="10"/>
<path d="M436.754 159.887C430.012 143.452 412.032 113.111 357.248 103.84C357.248 103.84 318.9 94.8498 295.722 105.666C272.545 116.623 207.788 151.881 207.788 202.59C207.788 249.086 264.397 237.006 264.397 237.006L274.845 312.86H432.821L428.186 251.755L440.688 272.264C465.972 297.689 512.608 261.166 495.611 220.29C487.605 201.045 442.935 174.918 436.754 159.887Z" fill="#534497"/>
<path d="M401.075 119.009C390.118 112.548 375.79 107.069 357.248 103.979C357.248 103.979 337.161 99.203 317.214 100.748C319.883 107.069 330.418 127.157 359.355 133.056C380.707 137.27 394.051 127.157 401.075 119.009Z" fill="#F9C885"/>
<path d="M371.997 169.719C368.345 170.141 364.833 171.264 361.603 172.809C357.529 174.776 352.753 174.776 348.82 172.669C342.077 169.157 334.211 167.472 326.204 168.455C304.01 171.124 288.277 192.616 291.227 216.355C294.037 240.095 314.405 257.232 336.739 254.563C344.746 253.58 351.91 250.209 357.67 245.011C361.041 242.061 365.676 240.938 370.031 241.78C373.543 242.623 377.195 242.764 380.847 242.342C399.67 240.095 412.874 221.974 410.486 201.887C407.958 181.8 390.821 167.472 371.997 169.719Z" fill="#F9824C"/>
<path d="M370.789 212.183C372.971 204.496 368.569 196.512 360.957 194.351C353.344 192.19 345.404 196.67 343.222 204.357C341.04 212.044 345.442 220.027 353.054 222.188C360.667 224.349 368.607 219.87 370.789 212.183Z" fill="#872357"/>
<path d="M325.563 195.99L317.475 196.97L321.325 228.763L329.413 227.784L325.563 195.99Z" fill="#F9C885"/>
<path d="M387.028 196.128C389.135 198.235 390.54 201.185 390.961 204.276C391.382 207.506 390.68 210.597 389.135 213.125L495.892 200.202L493.785 183.064L387.028 196.128Z" fill="#F9C885"/>
<path d="M536.629 172.529L500.106 175.901L491.397 183.486L493.504 200.483L503.759 205.821L540 200.342L536.629 172.529Z" fill="#F9824C"/>
<path d="M507.27 167.751C507.13 166.206 505.585 165.082 504.04 165.223C502.494 165.363 501.371 166.908 501.511 168.454C501.652 169.718 502.494 170.561 503.618 170.842L504.32 177.163L506.568 176.882L505.866 170.561C506.849 169.999 507.411 168.875 507.27 167.751Z" fill="#F9C885"/>
<path d="M519.21 166.206C519.07 164.661 517.525 163.537 515.98 163.678C514.434 163.818 513.311 165.363 513.451 166.909C513.591 168.173 514.434 169.016 515.558 169.297L516.26 175.618L518.508 175.337L517.806 169.016C518.789 168.594 519.351 167.471 519.21 166.206Z" fill="#F9C885"/>
<path d="M531.01 164.803C530.869 163.258 529.324 162.134 527.779 162.275C526.234 162.415 525.11 163.96 525.251 165.505C525.391 166.77 526.234 167.612 527.358 167.893L528.06 174.215L530.307 173.934L529.605 167.612C530.588 167.191 531.15 166.067 531.01 164.803Z" fill="#F9C885"/>
<path d="M512.608 211.439C512.749 212.984 511.625 214.529 510.08 214.669C508.535 214.81 506.989 213.686 506.849 212.141C506.708 210.877 507.27 209.893 508.254 209.332L507.551 203.01L509.799 202.729L510.501 209.051C511.625 209.332 512.468 210.315 512.608 211.439Z" fill="#F9C885"/>
<path d="M524.548 210.036C524.689 211.581 523.565 213.127 522.02 213.267C520.475 213.408 518.929 212.284 518.789 210.739C518.648 209.474 519.21 208.491 520.194 207.929L519.491 201.608L521.739 201.327L522.441 207.648C523.565 207.929 524.408 208.772 524.548 210.036Z" fill="#F9C885"/>
<path d="M536.348 208.629C536.488 210.174 535.364 211.719 533.819 211.86C532.274 212 530.729 210.877 530.588 209.331C530.448 208.067 531.01 207.084 531.993 206.522L531.291 200.201L533.538 199.92L534.241 206.241C535.224 206.382 536.207 207.365 536.348 208.629Z" fill="#F9C885"/>
<path d="M491.449 184.457L322.442 204.921L322.611 206.315L491.618 185.851L491.449 184.457Z" fill="#872357"/>
<path d="M492.014 188.664L323.007 209.128L323.176 210.522L492.183 190.058L492.014 188.664Z" fill="#872357"/>
<path d="M492.44 192.888L323.432 213.353L323.601 214.747L492.608 194.283L492.44 192.888Z" fill="#872357"/>
<path d="M492.988 196.956L323.981 217.42L324.15 218.814L493.157 198.35L492.988 196.956Z" fill="#872357"/>
<path d="M459.089 201.043C459.51 199.077 461.617 197.813 463.444 196.97C464.989 196.267 467.658 196.548 468.782 195.705C470.046 194.863 470.889 182.361 472.996 189.946C473.558 191.913 472.996 195.003 474.26 196.548C474.681 191.21 474.962 185.311 479.738 181.939H479.879C481.283 183.204 480.019 185.451 479.738 186.996C479.317 189.665 479.176 192.334 479.176 195.144C480.581 192.194 480.581 188.822 482.688 186.013C483.25 185.311 486.902 180.675 488.166 181.518C489.431 182.361 486.762 186.154 486.481 187.137C485.357 189.806 484.514 193.318 484.655 196.127C486.34 193.318 487.324 189.806 489.29 186.996C490.273 185.592 493.223 180.816 495.19 180.675C497.437 180.535 496.173 182.782 495.471 184.046C493.504 187.558 491.959 190.508 490.976 194.441C489.992 199.077 489.852 204.977 485.216 207.505C480.721 209.893 473.979 209.05 472.855 215.09C472.574 216.636 471.029 217.338 469.765 218.181C467.377 219.726 464.427 220.569 461.758 219.445C459.51 218.462 457.263 217.9 457.403 215.512C457.403 210.876 457.825 204.696 459.089 201.043Z" fill="#F4B0AA"/>
<path d="M295.441 205.118C297.127 205.539 298.672 206.523 300.358 207.084C303.308 207.927 306.258 208.068 309.348 208.068C314.967 208.068 319.462 205.82 324.378 203.432C326.766 202.308 329.435 201.466 331.964 201.185C332.806 201.044 335.616 200.482 336.318 201.185C337.442 202.308 335.756 204.837 332.244 205.118C330.137 205.399 329.154 206.382 327.89 208.068C333.087 210.877 336.88 214.389 341.797 218.322C346.432 221.974 349.944 230.824 345.589 228.436C344.887 228.014 343.623 225.626 341.516 223.8C339.268 221.974 338.847 222.396 336.318 220.85C338.425 223.8 340.532 226.048 341.375 229.7C341.796 231.105 341.937 234.897 340.111 233.212C339.268 232.369 338.847 230.683 336.318 228.014C334.913 226.61 333.649 225.205 332.244 223.8C334.071 226.048 335.897 229.56 336.178 232.509C336.318 234.195 335.756 238.69 334.071 235.881C332.947 233.914 333.087 232.229 329.857 228.717C328.592 227.453 327.047 226.469 325.642 225.486C326.626 227.172 329.435 231.105 328.873 233.352C328.311 235.319 327.468 233.352 326.626 232.369C325.08 230.543 324.097 229.279 322.131 228.014C319.321 226.048 315.95 224.643 312.579 224.643C309.348 224.643 295.02 222.536 293.334 222.255L295.441 205.118Z" fill="#F4B0AA"/>
<path d="M264.397 237.005L307.943 226.049L308.084 207.085C308.084 207.085 270.578 196.269 259.762 189.386L264.397 237.005Z" fill="#534497"/>
<path d="M440.547 241.921C441.109 238.409 442.092 234.195 444.059 229.279C450.801 212.422 459.23 211.86 459.23 211.86" stroke="#F9C885" stroke-miterlimit="10" stroke-linecap="round" stroke-linejoin="round"/>
<path d="M245.294 183.204C245.294 183.204 269.876 192.335 290.806 201.746" stroke="#F9C885" stroke-miterlimit="10" stroke-linecap="round" stroke-linejoin="round"/>
<path d="M428.186 251.894L419.757 236.161" stroke="#F9C885" stroke-miterlimit="10" stroke-linecap="round" stroke-linejoin="round"/>
<path d="M353.736 55.3769L367.784 38.5205C367.784 38.5205 387.871 42.4537 394.894 55.7983L388.994 77.0093L353.736 55.3769Z" fill="#453A76"/>
<path d="M361.603 45.9648L353.736 55.5168L388.994 77.0087L393.068 62.3999C384.078 50.6004 368.064 46.9481 361.603 45.9648Z" fill="#F9C885"/>
<path d="M395.878 77.9924C392.928 84.1731 378.459 83.4708 363.569 76.4473C348.539 69.4238 338.847 58.7481 341.796 52.5674C344.746 46.3867 359.215 47.089 374.105 54.1125C388.994 61.136 398.827 71.8118 395.878 77.9924Z" fill="#453A76"/>
<path d="M367.502 60.5759C364.553 59.3117 361.743 58.3283 358.934 57.626C358.372 58.6093 357.67 59.4521 357.248 60.2949C353.877 66.4756 353.596 76.8705 353.315 83.7535C352.893 96.6768 365.817 103.419 374.245 96.5363C377.616 93.7268 379.442 92.1816 380.707 90.3555C385.342 83.4725 387.309 78.556 387.449 74.4824C383.657 69.4255 376.493 64.3686 367.502 60.5759Z" fill="#F35C65"/>
<path d="M378.319 76.5894C378.319 76.5894 375.088 80.8035 372.138 81.7868C372.138 81.7868 366.238 76.168 364.974 73.6395C361.884 67.7398 361.322 61.6995 360.9 58.0473C359.074 57.4854 357.248 57.064 355.563 56.6426C352.332 58.1878 349.101 60.1544 347.134 63.2447C345.87 65.2113 345.449 68.5825 343.482 69.9872C341.937 71.111 340.251 70.4087 338.706 71.2515C334.773 73.0776 342.78 77.4322 342.78 77.4322C342.78 77.4322 341.656 81.7868 340.673 84.8771C339.268 88.8103 339.549 91.1983 343.623 94.2887C345.73 95.8338 348.539 96.3957 351.489 96.5362L345.73 113.252C345.73 113.252 347.275 120.978 357.529 121.54C369.329 122.102 372.981 114.797 372.981 114.797C372.981 114.797 373.121 96.8171 375.369 87.546C376.633 86.9841 379.161 87.1246 380.707 85.439C384.078 81.7867 381.83 78.275 378.319 76.5894Z" fill="#F4B0AA"/>
<path d="M351.349 96.5347C351.349 96.5347 358.232 96.3943 365.115 89.0898C365.115 89.0898 358.372 102.154 347.556 107.491L351.349 96.5347Z" fill="#DB8D89"/>
<path d="M342.218 79.2568H350.225C350.225 79.2568 349.101 83.6114 343.623 83.6114L342.218 79.2568Z" fill="white"/>
<path d="M373.122 75.8864L353.737 68.7225C354.579 66.0535 353.877 63.2441 351.77 62.4013C349.663 61.418 346.853 63.1036 345.589 66.0535C345.027 67.4582 344.887 68.8629 345.168 70.2676C345.449 71.6723 346.292 72.6556 347.275 73.077C347.696 73.2175 348.118 73.358 348.539 73.358C350.225 73.358 352.051 72.0937 353.175 69.9867L372.7 77.1507L373.122 75.8864ZM347.837 71.6723C347.135 71.3914 346.713 70.689 346.573 69.8462C346.292 68.8629 346.432 67.5987 346.994 66.4749C347.837 64.6488 349.242 63.3846 350.646 63.3846C350.927 63.3846 351.208 63.3846 351.349 63.5251C352.753 64.0869 353.175 66.4749 352.332 68.7225C351.349 70.97 349.242 72.3747 347.837 71.6723Z" fill="#872357"/>
<path d="M16.787 22.9076C17.1389 22.1156 18.2629 22.1156 18.6148 22.9076L23.7311 34.4241C23.8094 34.6003 23.937 34.7501 24.0984 34.8555L33.989 41.3115C34.5936 41.7061 34.5936 42.5916 33.989 42.9862L24.0984 49.4422C23.937 49.5476 23.8094 49.6974 23.7311 49.8736L18.6148 61.3901C18.2629 62.1821 17.1389 62.1821 16.787 61.3901L11.6706 49.8736C11.5923 49.6974 11.4648 49.5476 11.3033 49.4422L1.41273 42.9862C0.808193 42.5916 0.808193 41.7061 1.41273 41.3115L11.3033 34.8555C11.4648 34.7501 11.5923 34.6003 11.6706 34.4241L16.787 22.9076Z" fill="#6BD6D6"/>
<path d="M435.249 110.512C435.524 109.542 436.9 109.542 437.174 110.512L440.056 120.708C440.102 120.868 440.186 121.014 440.303 121.134L446.713 127.709C447.091 128.097 447.091 128.716 446.713 129.105L440.303 135.68C440.186 135.799 440.102 135.945 440.056 136.106L437.174 146.301C436.9 147.272 435.524 147.272 435.249 146.301L432.367 136.106C432.322 135.945 432.237 135.799 432.121 135.68L425.711 129.105C425.332 128.716 425.332 128.097 425.711 127.709L432.121 121.134C432.237 121.014 432.322 120.868 432.367 120.708L435.249 110.512Z" fill="#F9BE75"/>
<defs>
<linearGradient id="paint0_linear" x1="168.263" y1="11.0709" x2="130.974" y2="112.907" gradientUnits="userSpaceOnUse">
<stop stop-color="#F27ACD"/>
<stop offset="0.520833" stop-color="#DCD599"/>
<stop offset="1" stop-color="#74DEE4"/>
</linearGradient>
<linearGradient id="paint1_linear" x1="207.702" y1="26.2335" x2="170.156" y2="128.772" gradientUnits="userSpaceOnUse">
<stop stop-color="#F27ACD"/>
<stop offset="0.520833" stop-color="#DCD599"/>
<stop offset="1" stop-color="#74DEE4"/>
</linearGradient>
</defs>
</svg>
