<svg width="337" height="249" viewBox="0 0 337 249" fill="none" xmlns="http://www.w3.org/2000/svg">
<path opacity="0.1" d="M15.5211 14.2096C22.9417 20.5093 25.3082 31.4466 22.8519 47.9602C21.4178 57.6127 19.294 66.3539 12.4933 90.7227C3.50333 123.008 0.175344 141.705 0.26656 159.621C0.348849 181.727 6.72473 199.945 19.4458 214.557C24.2538 220.043 28.9597 224.192 35.2604 228.505C41.6275 232.864 46.725 235.525 57.6447 240.22C70.3516 245.651 71.3818 246.21 78.0805 250.796C83.2641 254.393 84.522 255.401 86.3427 257.574C90.6327 262.609 93.304 268.291 94.582 275.215C95.5324 280.207 95.7901 285.213 95.7528 297.724C95.742 303.473 95.8584 310.382 95.9964 313.013C97.2792 339.111 107.968 358.721 131.257 377.689C135.901 381.502 152.741 392.69 155.793 393.999C156.991 394.526 185.469 413.827 233.156 446.474C283.452 480.858 309.907 498.774 312.322 500.086C325.404 507.237 338.347 509.708 351.438 507.645C361.124 506.13 380.475 499.524 396.102 492.369C431.935 476.022 461.632 453.425 487.406 422.924C492.447 416.96 505.192 399.05 509.24 392.261C520.952 372.522 528.701 354.705 534.957 333.037C538.462 320.949 540.245 312.56 542.121 299.648C543.677 288.616 543.7 288.583 544.303 279.923C545.301 265.24 544.772 243.853 543.164 233.728C541.187 221.447 535.874 211.03 526.382 200.726L523.569 197.727L442.791 142.134C379.334 98.4468 361.286 85.8958 358.662 83.612C354.485 79.9716 342.154 71.8716 334.3 67.6164C305.241 51.9178 276.25 45.5341 240.271 46.805C232.793 47.1002 226.933 47.5273 215.085 48.6361C209.76 49.1368 201.995 49.9186 197.834 50.2892C193.649 50.693 187.275 51.1581 183.663 51.3686C180.041 51.5232 176.932 51.7846 176.728 51.938C175.914 52.5516 185.392 64.5038 192.364 71.6668C200.226 79.7324 209.529 87.1256 217.415 91.5483L220.516 93.2811L213.89 95.5256C204.525 98.6268 201.002 99.6294 195.075 100.791C179.454 103.902 167.19 100.872 155.088 91.0258C145.435 83.1492 139.499 75.4756 126.775 54.5693C119.367 42.3761 113.996 34.3086 109.754 29.063C94.5096 10.0411 77.1359 0.829935 56.1156 0.585855C45.5163 0.45151 35.3979 2.45126 24.3369 6.87899C20.6389 8.34733 14.1095 11.5847 13.721 12.148C13.5839 12.3468 14.4187 13.2598 15.5211 14.2096Z" fill="#E54FC4"/>
</svg>
