<svg width="20" height="20" viewBox="0 0 20 20" fill="none" xmlns="http://www.w3.org/2000/svg">
<path d="M16.6417 17.8208L13.845 15.0241C12.6384 15.5735 11.3256 15.8503 9.99999 15.835C8.63322 15.852 7.28058 15.557 6.04499 14.9725C5.08722 14.5052 4.22719 13.8598 3.51082 13.0708C2.7504 12.2557 2.15274 11.3028 1.74999 10.2633L1.66666 10.0016L1.75416 9.73831C2.3565 8.20189 3.3702 6.86095 4.68416 5.86248L2.49999 3.67831L3.67749 2.50165L17.8183 16.6425L16.6433 17.8208H16.6417ZM5.86332 7.04248C4.79826 7.78908 3.9572 8.81224 3.43082 10.0016C4.55951 12.6057 7.16322 14.2572 9.99999 14.1683C10.8749 14.1755 11.7446 14.0346 12.5725 13.7516L11.0725 12.2516C10.7386 12.4153 10.3718 12.5008 9.99999 12.5016C8.62287 12.493 7.50863 11.3788 7.49999 10.0016C7.50039 9.62895 7.5859 9.26127 7.74999 8.92665L5.86332 7.04248ZM16.5433 13.01L15.3833 11.8508C15.8713 11.2991 16.2713 10.6754 16.5692 10.0016C15.442 7.3963 12.8373 5.74421 9.99999 5.83498C9.79416 5.83498 9.58749 5.84248 9.38749 5.85665L7.91666 4.38415C8.60135 4.23768 9.29981 4.16532 9.99999 4.16831C11.3668 4.15135 12.7194 4.44633 13.955 5.03081C14.9128 5.49809 15.7728 6.14348 16.4892 6.93248C17.2492 7.74662 17.8469 8.69838 18.25 9.73665L18.3333 10.0016L18.2458 10.265C17.8557 11.28 17.2785 12.2129 16.5442 13.015L16.5433 13.01Z" fill="#787878"/>
</svg>
