<svg width="243" height="265" viewBox="0 0 243 265" fill="none" xmlns="http://www.w3.org/2000/svg">
<path opacity="0.1" d="M3.69146 187.334C12.3586 182.903 23.3656 184.92 37.6684 193.532C46.0292 198.564 53.2838 203.883 73.17 219.523C99.5237 240.226 115.508 250.482 132.084 257.28C152.525 265.697 171.795 266.809 190.172 260.677C197.085 258.346 202.723 255.595 209.126 251.435C215.597 247.231 220.011 243.547 228.541 235.269C238.437 225.623 239.349 224.887 246.156 220.464C251.469 217.06 252.882 216.286 255.588 215.44C261.885 213.413 268.157 213.13 275.041 214.61C280.015 215.65 284.735 217.335 296.272 222.176C301.576 224.395 307.999 226.941 310.481 227.825C335.069 236.666 357.281 234.331 383.74 220.117C389.045 217.294 405.844 206.044 408.225 203.729C409.172 202.826 437.932 183.948 486.393 152.462C537.461 119.235 564.166 101.693 566.305 99.9668C577.933 90.6357 585.186 79.6353 588.311 66.7566C590.634 57.2314 591.968 36.8281 591.365 19.651C590.039 -19.7123 580.584 -55.8109 562.325 -91.3254C558.756 -98.2707 547.117 -116.917 542.404 -123.263C528.679 -141.659 515.206 -155.658 497.604 -169.759C487.79 -177.639 480.729 -182.508 469.529 -189.2C459.941 -194.875 459.92 -194.908 452.156 -198.792C438.983 -205.355 419.034 -213.082 409.068 -215.487C396.97 -218.38 385.311 -217.477 372.152 -212.671L368.302 -211.226L285.942 -158.004C221.23 -116.2 202.708 -104.358 199.592 -102.813C194.626 -100.355 182.411 -92.0826 175.465 -86.4656C149.807 -65.6676 132.776 -41.3539 120.127 -7.64712C117.527 -0.629518 115.67 4.94514 112.142 16.3093C110.559 21.4183 108.298 28.8876 107.041 32.8721C105.806 36.8903 103.787 42.9546 102.594 46.3699C101.345 49.7732 100.392 52.7446 100.455 52.9913C100.709 53.9785 115.385 49.8194 124.677 46.1346C135.144 41.9741 145.544 36.2253 152.656 30.6442L155.448 28.4467L154.975 35.4263C154.24 45.2637 153.812 48.9018 152.608 54.8207C149.479 70.4378 141.97 80.5965 128.23 87.9874C117.25 93.8735 107.885 96.406 83.6943 100.122C69.591 102.277 60.0791 104.137 53.6064 106.038C30.1877 112.805 15.0089 125.307 6.70828 144.621C2.51232 154.355 0.471432 164.465 0.310125 176.378C0.245116 180.357 0.725693 187.629 1.09648 188.204C1.22735 188.407 2.39102 187.987 3.69146 187.334Z" fill="#A12CEB"/>
</svg>
