<svg width="272" height="304" viewBox="0 0 272 304" fill="none" xmlns="http://www.w3.org/2000/svg">
<path d="M53.8347 59.272C68.7792 54.0681 82.9232 30.3171 82.9232 30.3171L101.203 21.2436L103.205 20.8433C103.739 19.7759 104.539 18.9753 105.473 18.1747C108.009 16.3066 107.875 12.4371 110.544 13.1042C113.212 13.7714 116.148 13.9048 120.018 16.1732C122.686 17.6409 129.625 17.9078 130.025 22.4446C130.158 24.5795 128.691 26.8478 126.689 28.3156C127.757 29.1162 128.824 29.9168 130.292 30.7174C138.698 35.7878 131.76 46.4624 127.356 47.9302C122.953 49.398 130.692 59.8057 127.356 69.0126C124.021 78.2195 117.349 76.6183 116.015 81.4219C114.68 86.2255 125.889 96.0995 122.82 106.507C119.751 116.915 106.274 129.191 91.7297 117.716C77.1855 106.24 81.5888 99.7022 75.184 93.9646C68.9126 88.0935 54.9022 86.8926 53.7013 79.2869C52.5004 71.4144 39.0237 64.4759 53.8347 59.272Z" fill="#872357"/>
<path d="M61.4405 68.6126C61.4405 68.6126 74.7837 63.2752 85.0581 48.3307C75.5843 33.6531 69.8468 10.0355 95.9997 8.16748C95.9997 8.16748 114.947 10.169 120.151 24.1794C122.019 29.2499 122.419 33.6532 122.419 37.5227C123.487 39.5242 125.755 41.1254 126.823 42.86C126.422 43.1269 124.154 43.7941 121.886 44.1944C121.485 48.3308 121.218 52.2004 122.286 56.4702C124.554 65.0099 110.677 63.4087 98.5348 61.1404L81.7223 83.5571L61.4405 68.6126Z" fill="#F4B0AA"/>
<path d="M114.147 9.50173C111.611 8.5677 110.944 6.03248 108.409 4.96502C106.141 4.03099 104.273 2.69665 102.138 1.49576C96.4 -1.43977 91.3295 0.428302 85.0581 2.96353C81.1886 4.56472 78.2531 2.4298 74.2501 3.63069C67.3116 5.76562 65.9773 12.1704 65.4436 16.5737C64.7764 22.3113 62.1078 26.0474 55.9699 27.7821C52.2337 28.8495 49.1647 28.7161 47.6969 32.5856C46.6295 35.3877 47.2967 37.7895 48.2307 40.4582C49.4316 43.9274 48.4976 46.1957 44.2277 46.9963C41.1587 47.5301 37.9563 46.9964 34.8874 47.797C32.0853 48.5976 29.0163 49.9319 26.8814 51.8C22.0778 55.9364 23.4122 62.2078 21.5441 67.4116C24.2128 66.8779 26.748 65.8104 29.5501 65.5435C32.8859 65.1432 36.2217 65.4101 39.5575 65.4101C44.3611 65.4101 53.7014 67.4116 57.7044 69.8134C62.9083 73.0158 72.1151 73.5495 77.1856 69.8134C81.1885 66.8779 84.2576 61.5406 84.6579 56.737C84.9248 53.1343 83.3235 48.731 86.5259 45.7955C89.7282 42.86 95.4659 43.3937 99.6023 42.86C104.139 42.1928 107.075 38.7236 106.808 34.4537C106.674 30.7176 106.541 28.0489 109.476 25.2468C111.478 23.3787 118.149 19.9095 121.085 21.1104C121.352 21.1104 123.22 12.8376 114.147 9.50173Z" fill="#872357"/>
<path d="M98.5348 61.1401L88.2605 57.2705L90.6624 71.6812L98.5348 61.1401Z" fill="#DB8D89"/>
<path d="M120.418 48.5971L114.013 47.6631L119.083 53.4008L120.418 48.5971Z" fill="white"/>
<path d="M259.455 142.668L238.372 143.202L230.9 90.0956L264.659 89.2949L259.455 142.668Z" fill="#F9824C"/>
<path d="M264.659 89.2949C264.792 94.8991 257.32 99.5693 247.98 99.8361C238.639 100.103 230.9 95.6997 230.9 90.0955C230.767 84.4914 238.239 79.8212 247.579 79.5543C256.92 79.4209 264.525 83.6907 264.659 89.2949Z" fill="#872357"/>
<path d="M247.713 87.5603C240.774 87.6937 234.77 90.3624 232.234 94.0985C234.903 97.7012 240.907 100.103 247.979 99.9695C254.918 99.8361 260.923 97.1675 263.458 93.4313C260.789 89.8287 254.651 87.2934 247.713 87.5603Z" fill="#15A099"/>
<path d="M12.4705 78.8871C26.8812 57.5378 46.4959 46.4629 79.0535 74.7507C147.638 134.662 17.2741 256.086 -19.1531 303.321L-81.9999 147.872C-81.9999 147.872 -6.0767 106.241 12.4705 78.8871Z" fill="#F9824C"/>
<path d="M84.3909 80.088L153.109 160.148C153.109 160.148 221.56 121.986 222.094 121.052C219.292 110.644 228.098 110.244 228.232 104.239C228.232 102.905 228.232 101.571 227.831 100.236C227.431 99.0354 227.031 97.1673 228.632 97.701C231.701 98.6351 231.968 101.037 232.368 101.838C233.435 105.04 233.168 109.71 234.636 112.512C238.106 118.783 255.318 112.512 259.588 109.843C262.524 108.109 266.393 106.508 268.929 107.175C274.8 108.509 270.13 110.11 267.461 111.044C265.726 111.711 264.125 112.512 262.657 113.313C263.591 113.046 264.525 112.779 265.593 112.779C266.127 112.779 266.527 112.646 266.393 113.179C266.126 113.846 265.459 114.514 265.059 115.047C264.125 116.248 263.057 117.583 262.657 119.184C262.257 120.918 261.323 122.92 259.855 123.854C261.323 123.587 263.057 123.454 264.659 123.72C265.726 123.854 267.461 124.388 267.728 125.589C267.327 125.722 266.927 125.722 266.393 125.855C264.258 126.256 261.99 126.656 259.855 127.19C257.186 127.857 242.509 132.794 240.908 133.194C238.906 133.728 236.371 134.395 234.369 133.995C233.836 133.861 233.302 133.595 232.902 133.461C232.368 134.128 205.415 159.214 196.074 173.758C184.199 192.438 173.657 211.786 152.575 218.591C150.04 219.392 147.238 218.992 144.969 217.657C136.83 212.587 115.748 200.178 102.004 195.908C84.5244 190.437 38.49 167.086 35.2876 127.723C32.0853 88.2273 62.9082 67.145 84.3909 80.088Z" fill="#F4B0AA"/>
<path d="M160.981 169.088L148.706 155.078" stroke="#DB8D89" stroke-miterlimit="10" stroke-linecap="round" stroke-linejoin="round"/>
<path d="M5.53198 87.4268L-15.6839 112.379" stroke="#872357" stroke-miterlimit="10" stroke-linecap="round" stroke-linejoin="round"/>
<path d="M68.7793 178.561C68.7793 178.561 34.487 156.278 35.0207 123.454" stroke="#872357" stroke-miterlimit="10" stroke-linecap="round" stroke-linejoin="round"/>
</svg>
