<svg width="239" height="302" viewBox="0 0 239 302" fill="none" xmlns="http://www.w3.org/2000/svg">
<path d="M294.315 113.693C293.362 97.3526 284.103 82.3738 269.532 74.8844C254.145 66.9865 229.089 63.8546 188.647 76.3823L166.859 45.063L153.787 52.8247L165.906 86.0504C165.906 86.0504 123.012 98.9867 113.344 121.455C103.676 143.923 88.2887 187.634 88.2887 187.634L43.4884 124.314L37.9054 107.157C37.9054 107.157 28.782 97.8973 25.5139 92.9951C22.2458 88.093 21.1564 96.5356 24.9692 101.71C24.9692 101.71 11.3521 86.4589 9.1734 87.8207C6.85849 89.1824 14.0755 99.8037 14.0755 99.8037C14.0755 99.8037 5.22444 86.5951 3.0457 88.5015C0.866967 90.4079 9.99039 104.57 9.99039 104.57C9.99039 104.57 1.68403 93.2675 0.186146 95.9909C-1.31173 98.7143 6.72225 109.744 6.72225 109.744C6.72225 109.744 2.22861 104.978 1.27541 107.021C0.458388 108.791 16.6627 129.897 30.0075 137.659C30.0075 137.659 44.0332 187.089 47.9821 206.97C51.7949 226.851 62.8247 255.583 91.0121 272.468C119.336 289.217 137.855 227.941 137.855 227.941L151.336 310.324L304.937 306.784L294.315 113.693Z" fill="#DB8D89"/>
<path d="M30.2799 118.323C26.7395 116.825 24.9692 111.514 24.5606 108.11C24.4245 106.748 24.5607 100.757 23.7437 100.348" stroke="#872357" stroke-width="1.1601" stroke-miterlimit="10" stroke-linecap="round" stroke-linejoin="round"/>
<path d="M11.216 116.553C12.9862 113.149 15.0288 109.472 18.1607 106.749C19.9309 105.251 22.2459 102.936 24.0161 102.255" stroke="#872357" stroke-width="1.1601" stroke-miterlimit="10" stroke-linecap="round" stroke-linejoin="round"/>
<path d="M166.042 3.39459C152.289 -1.23522 131.319 10.2031 135.812 31.4458C133.77 33.6245 131.455 35.6671 129.14 37.7097C126.961 39.6161 122.331 42.6118 127.642 43.565C129.821 43.9735 132.544 44.2459 135.268 44.2459C134.587 47.6502 133.361 51.7353 131.183 56.3651C124.783 70.1184 151.472 80.8758 170.808 54.1863C191.37 26.1351 180.204 8.16057 166.042 3.39459Z" fill="#DB8D89"/>
<path d="M184.289 1.76048C179.387 -1.37146 175.03 3.53072 174.485 8.29671C172.034 6.11797 169.174 4.48391 166.178 3.39454C159.234 1.07964 150.655 2.84988 144.255 7.75203L144.391 7.88817C147.251 10.7478 149.157 15.6499 151.744 18.918C153.242 20.8244 154.468 23.1393 155.829 25.1819C157.055 26.9521 157.327 29.267 156.783 31.4458C156.647 32.1266 156.374 32.8075 156.102 33.4883C153.923 39.616 149.157 42.7479 142.893 43.4288C140.578 43.7011 137.31 42.8841 135.268 44.1097C135.404 44.1097 135.404 44.1097 135.54 44.1097C134.859 47.5139 133.633 51.599 131.455 56.2289C126.416 67.1225 142.076 76.1098 158.417 66.1694C158.961 63.8545 159.234 61.5395 159.234 59.0885C159.234 54.0501 158.825 49.0118 158.281 44.1097C158.008 41.1139 157.872 37.8458 158.281 34.85C158.553 32.6713 159.642 29.4032 161.412 27.633C165.089 24.7734 170.944 25.8627 172.442 31.1734C173.94 36.7564 170.127 42.4756 164.272 40.5692C165.634 43.7011 167.676 46.6969 169.583 49.6927C170.263 50.782 171.081 51.8714 172.034 52.6884C179.251 42.3395 182.11 33.3522 181.974 25.9989C182.11 25.9989 182.11 25.8628 182.247 25.8628C184.561 24.3649 184.698 22.4585 184.834 19.8712C184.97 16.6031 186.876 13.7435 187.285 10.6116C187.83 7.20731 187.149 3.5307 184.289 1.76048Z" fill="#872357"/>
<path d="M136.766 47.6503C136.766 47.6503 141.532 48.6035 145.344 46.4248C145.344 46.4248 142.893 55.9568 136.766 47.6503Z" fill="white"/>
<path d="M151.2 310.187L304.8 306.647L294.315 113.693C293.362 97.3523 284.102 82.3735 269.532 74.8841C255.507 67.667 233.447 64.5351 199.132 73.3862C179.251 107.02 158.961 88.5012 158.961 88.5012C146.434 93.2672 120.561 104.706 113.344 121.455C103.676 143.923 88.2887 187.634 88.2887 187.634L119.063 273.694C132.272 260.213 137.719 236.111 137.719 236.111L151.2 310.187Z" fill="#ED395F"/>
<path d="M130.502 188.996L126.417 133.302" stroke="#872357" stroke-width="1.1601" stroke-miterlimit="10" stroke-linecap="round" stroke-linejoin="round"/>
<path d="M167.54 199.89C167.54 199.89 201.038 151.958 208.391 128.537C215.745 105.115 225.413 90.6812 225.413 90.6812" stroke="#872357" stroke-width="1.1601" stroke-miterlimit="10" stroke-linecap="round" stroke-linejoin="round"/>
<path d="M194.093 227.123L217.379 251.226L252.783 196.621" stroke="#872357" stroke-width="1.1601" stroke-miterlimit="10" stroke-linecap="round" stroke-linejoin="round"/>
<path d="M168.493 201.25L123.693 137.931L118.11 120.773C118.11 120.773 108.987 111.514 105.719 106.612C102.451 101.709 101.361 110.152 105.174 115.327C105.174 115.327 91.5569 100.075 89.3781 101.437C87.0632 102.799 94.2802 113.42 94.2802 113.42C94.2802 113.42 85.4292 100.212 83.2504 102.118C81.0717 104.024 90.1951 118.186 90.1951 118.186C90.1951 118.186 81.8886 106.884 80.3907 109.607C78.8928 112.331 86.927 123.361 86.927 123.361C86.927 123.361 82.4333 118.595 81.4801 120.637C80.6631 122.407 96.8674 143.514 110.212 151.276C110.212 151.276 124.238 200.706 128.187 220.587C132 240.468 143.029 269.2 171.217 286.085C183.608 293.438 199.949 272.876 214.247 247.549L168.493 201.25Z" fill="#DB8D89"/>
<path d="M46.348 66.1694L50.8417 84.0078" stroke="#453A76" stroke-width="2" stroke-miterlimit="10" stroke-linecap="round" stroke-linejoin="round"/>
<path d="M61.1907 86.4588L67.3184 68.2119" stroke="#453A76" stroke-width="2" stroke-miterlimit="10" stroke-linecap="round" stroke-linejoin="round"/>
<path d="M70.0417 90.5439L83.5227 80.4673" stroke="#453A76" stroke-width="2" stroke-miterlimit="10" stroke-linecap="round" stroke-linejoin="round"/>
<path d="M40.3566 86.8672L33.0033 76.9268" stroke="#453A76" stroke-width="2" stroke-miterlimit="10" stroke-linecap="round" stroke-linejoin="round"/>
</svg>
