<svg width="265" height="127" viewBox="0 0 265 127" fill="none" xmlns="http://www.w3.org/2000/svg">
<path d="M38.6299 64.8992C42.9127 65.2783 48.4257 68.3258 50.6469 69.8022C49.1868 61.6835 57.6009 54.5427 60.8718 52.7572C64.1426 50.9716 69.7047 52.6054 72.5617 57.8387C74.8472 62.0254 71.9919 72.8679 70.2786 77.7658L66.7172 99.2399C59.2215 96.3973 41.946 90.2609 32.809 88.4559C21.3877 86.1996 20.3131 74.8984 22.9882 70.4661C25.6634 66.0338 33.2764 64.4252 38.6299 64.8992Z" fill="#F9BE75"/>
<path fill-rule="evenodd" clip-rule="evenodd" d="M62.0232 55.8803C55.9007 57.9111 52.6053 64.6674 54.1035 70.2562C54.4148 71.4322 53.9884 72.3726 53.2301 72.9878C51.9222 74.2221 49.5008 74.532 48.3408 72.708C48.2051 72.5414 48.0856 72.3545 47.9858 72.1466C45.2447 68.2337 38.7035 68.3062 34.1236 68.8504C29.6912 69.3421 21.8274 71.4348 24.2401 77.1911C25.4671 80.0394 28.5044 81.6171 31.3502 82.7419C33.4651 83.5766 35.6327 84.3356 37.8096 85.0978C38.9717 85.5047 40.1365 85.9125 41.2973 86.3333L62.2476 93.8253C62.9023 91.6326 63.5613 89.4425 64.2201 87.2532C66.0045 81.3228 67.7873 75.3977 69.4793 69.4404C70.4212 66.0003 71.3404 62.1629 69.8581 58.8852C68.4732 55.8364 65.4329 54.7334 62.0232 55.8803ZM57.4218 98.5309C53.8777 97.2599 50.3345 95.9935 46.7913 94.7271C41.9345 92.9911 37.0776 91.2552 32.2185 89.5074C25.0487 86.9573 15.7805 82.5098 17.8367 73.4159C19.5104 65.905 28.3224 63.5402 35.1035 62.9458C39.419 62.5947 43.9518 62.8815 47.683 64.5261C48.5086 60.4552 50.7869 56.5479 54.1408 53.7419C59.5697 49.2057 68.0228 47.6382 73.0415 52.6582C78.4498 58.0402 76.6853 66.1004 74.6808 72.9081C74.0375 75.1213 73.379 77.3253 72.7206 79.5294C72.0622 81.7335 71.4038 83.9375 70.7605 86.1507C70.0662 88.3751 69.4231 90.5877 68.7799 92.8003L68.7794 92.802C68.6326 93.289 68.4962 93.7611 68.3599 94.2332C68.2235 94.7053 68.0871 95.1774 67.9403 95.6646C67.904 95.785 67.8396 95.9793 67.7616 96.2101C69.2743 98.6696 68.0436 102.512 64.3014 102.3C62.2526 102.189 61.4048 101.211 61.1734 99.9006C60.8235 99.8171 60.475 99.7409 60.1265 99.6647C59.7147 99.5746 59.3028 99.4845 58.8886 99.3825C58.2237 99.2289 57.7424 98.9239 57.4218 98.5309Z" fill="#201627"/>
<path d="M231.319 27.6372C232.549 30.8758 232.277 35.9442 231.987 38.0736C237.361 34.1612 245.496 37.7521 247.94 39.4961C250.384 41.24 251.155 45.8472 248.364 49.7581C246.132 52.8868 237.267 54.6275 233.114 55.1068L216.292 60.0725C215.718 53.6386 214.095 38.9559 212.193 31.6966C209.814 22.6224 217.63 17.8711 221.784 18.2528C225.938 18.6345 229.78 23.589 231.319 27.6372Z" fill="#E54FC4"/>
<path fill-rule="evenodd" clip-rule="evenodd" d="M246.199 40.8075C242.854 37.2782 236.941 37.5567 233.34 40.7609C232.235 41.7381 231.016 41.4232 230.264 40.591C228.878 40.1588 227.826 38.4374 228.964 36.8294C231.356 33.3032 229.193 28.4291 227.308 25.2545C225.57 22.2689 221.587 17.4485 218.096 21.426C216.379 23.418 216.16 26.2116 216.215 28.691C216.257 30.5331 216.371 32.3834 216.485 34.2417C216.546 35.2337 216.608 36.228 216.658 37.2245L217.678 55.777C217.818 55.7473 217.954 55.7188 218.087 55.6911C218.276 55.6517 218.457 55.6141 218.627 55.577C220.447 55.1884 222.267 54.8041 224.087 54.4199C228.939 53.3953 233.786 52.3717 238.629 51.2718C241.415 50.6119 244.483 49.7832 246.41 47.4791C248.201 45.3315 248.074 42.7669 246.199 40.8075ZM212.68 53.5474C212.516 50.5103 212.349 47.4757 212.181 44.441C211.952 40.2812 211.723 36.1215 211.502 31.9554C211.154 25.8195 211.552 17.4383 218.889 15.3612C224.941 13.6281 229.419 19.022 231.962 23.6512C233.73 26.9226 235.006 30.6897 234.643 34.3438C238.079 33.044 241.994 33.0332 245.344 34.4359C250.297 36.5133 254.017 41.8615 251.905 47.3253C249.649 53.2027 243.256 55.0604 237.7 56.2674C235.896 56.6656 234.094 57.0498 232.293 57.4339C230.491 57.818 228.689 58.2022 226.885 58.6004C225.057 58.9673 223.254 59.3655 221.45 59.7637L221.45 59.7638C221.051 59.8477 220.667 59.9333 220.282 60.0189C219.898 60.1044 219.513 60.19 219.115 60.274C219.016 60.2947 218.855 60.3241 218.664 60.358C217.34 62.3688 214.173 62.9803 213.184 60.264C212.823 59.2796 212.899 58.5201 213.248 57.9257C213.067 57.652 212.932 57.3199 212.861 56.9269C212.808 56.5901 212.746 56.2596 212.685 55.9292C212.623 55.5987 212.562 55.2683 212.508 54.9315C212.415 54.3948 212.49 53.9307 212.68 53.5474Z" fill="#201627"/>
</svg>
