<svg width="326" height="465" viewBox="0 0 326 465" fill="none" xmlns="http://www.w3.org/2000/svg">
<path d="M42.6168 51.9218C42.6168 51.9218 100.659 38.8548 129.072 19.4062L137.125 51.1621C137.125 51.1621 61.1538 51.0102 43.3765 57.9995L42.6168 51.9218Z" fill="#F35C65"/>
<path d="M141.531 33.0819C143.81 41.8945 141.987 49.7956 137.733 50.8591C133.478 51.9227 128.16 45.6931 125.881 37.0324C123.602 28.2197 125.425 20.3187 129.68 19.2551C134.086 18.0396 139.252 24.2693 141.531 33.0819Z" fill="#872357"/>
<path d="M47.1751 37.9462C46.1115 37.0346 45.0479 35.9709 44.2882 34.7554C43.8324 32.4762 43.5285 30.349 43.0727 27.918C38.3625 0.720333 9.03764 5.12671 -4.02938 16.6743C-16.9445 28.07 -4.33326 46.303 -4.33326 46.303C-2.35801 51.1652 0.224994 55.4195 3.11189 58.9142C-2.81385 65.4477 -8.43571 72.2851 -14.3615 78.6667C-6.6124 84.4405 1.74443 90.5182 9.03765 96.8997C9.79736 94.4687 11.0129 92.1895 12.0765 89.9103C14.5076 84.7443 17.5464 79.5783 21.0411 75.02C21.4969 74.4123 22.1047 73.6526 22.5605 73.0448C30.6134 76.3875 38.2105 77.4511 42.313 76.9953C47.7829 76.3875 48.6945 69.2463 47.6309 58.1545C48.9984 56.4831 49.7581 54.2039 49.1504 51.9248C48.6945 50.2534 47.631 48.886 46.2635 47.9743C46.1115 47.3666 46.1115 46.9108 45.9596 46.303C46.1115 46.303 46.1115 46.303 46.2635 46.151C47.9348 45.5433 51.2775 44.3277 51.4295 42.3525C51.8853 39.9214 48.6945 39.1617 47.1751 37.9462Z" fill="#F4B0AA"/>
<path d="M-17.0964 67.7253L29.3979 65.598L20.5852 30.9552L47.6309 19.5596C47.6309 19.5596 35.0197 -10.0691 2.65606 3.60566C-29.5557 17.1285 -21.0469 30.1955 -17.0964 67.7253Z" fill="#689D47"/>
<path d="M102.634 31.8676C101.722 29.1326 99.4432 30.0442 98.8355 31.2598C98.2277 32.4753 94.4291 33.8428 91.0864 34.1467C87.7437 34.2987 86.984 32.7792 83.9451 32.1714C80.9063 31.5636 81.8179 34.4505 81.8179 34.4505L83.3374 40.3763C83.6412 41.8957 83.9451 42.9593 83.9451 42.9593C81.9699 37.3375 74.8286 33.9947 76.9558 39.0088C79.083 44.0229 81.514 55.7224 81.514 55.7224L95.3408 73.1958L108.56 68.6375C110.535 58.1535 105.977 40.3763 102.634 31.8676Z" fill="#F4B0AA"/>
<path d="M44.896 142.026L78.4752 311.594L30.6135 310.986L26.8149 146.585L44.896 142.026Z" fill="#F9824C"/>
<path d="M109.623 59.8242L89.2631 66.3577C96.2525 88.6932 77.8675 144.608 77.8675 144.608C77.8675 144.608 25.4475 97.5059 -17.2483 85.5025C-25.757 82.3117 -34.8736 81.4 -44.4459 83.6791C-44.5979 83.6791 -44.9017 83.8311 -45.0537 83.8311C-45.2056 83.8311 -45.5095 83.9831 -45.6614 83.9831C-102.944 99.6331 -123 216.477 -123 216.477L-85.7742 363.86C-15.8808 346.235 20.1295 267.529 38.0587 217.844C51.8854 221.643 91.0865 236.077 107.192 235.469C195.319 232.734 109.623 59.8242 109.623 59.8242Z" fill="#453A76"/>
<path d="M-45.6615 83.8316C-45.6615 83.8316 -40.4955 78.2098 -42.3188 69.5491C-42.3188 69.5491 -44.9018 64.8389 -39.8877 64.535C-34.8736 64.3831 46.7193 85.0472 46.7193 85.0472C46.7193 85.0472 48.0868 90.3652 43.5285 96.139C38.9703 101.913 42.4649 116.347 42.4649 116.347L-45.6615 83.8316Z" fill="#F9824C"/>
<path d="M11.3168 206.753L38.0586 217.693" stroke="#FFEDC7" stroke-miterlimit="10" stroke-linecap="round" stroke-linejoin="round"/>
<path d="M79.083 172.262C79.083 172.262 74.8285 155.245 78.6271 142.178" stroke="#FFEDC7" stroke-miterlimit="10" stroke-linecap="round" stroke-linejoin="round"/>
<path d="M257.292 252.726L266.134 227.05C266.134 227.05 276.507 216.677 280.418 211.235C284.159 205.794 285.349 215.316 280.928 221.098C280.928 221.098 296.572 204.093 298.953 205.624C301.504 207.154 293.172 219.057 293.172 219.057C293.172 219.057 303.374 204.263 305.755 206.474C308.135 208.685 297.593 224.499 297.593 224.499C297.593 224.499 307.115 211.915 308.816 214.976C310.516 218.037 301.334 230.28 301.334 230.28C301.334 230.28 306.605 225.009 307.455 227.22C308.476 229.43 286.2 257.148 270.556 263.099L257.292 252.726Z" fill="#DB8D89"/>
<path d="M51.7073 253.918C65.481 230.281 97.1094 224.67 118.195 242.014C129.078 251.027 140.641 260.889 150.334 270.242C178.561 297.619 185.193 309.352 185.193 309.352L258.822 242.865L276.847 264.29C276.847 264.29 208.829 398.456 175.84 411.209C152.374 420.392 85.7164 361.216 49.1566 326.187C34.3627 312.073 31.1319 289.627 41.5046 271.942L51.7073 253.918Z" fill="#872357"/>
<path d="M159.686 184.878C161.047 181.137 155.435 178.416 152.204 175.355C152.204 174.165 152.374 173.145 152.374 171.955C152.714 167.533 154.245 163.112 152.544 158.691C149.824 151.719 143.192 150.189 136.56 149.169C124.147 147.468 103.911 149.509 97.6197 161.752C89.6275 177.226 95.069 198.822 106.972 210.385C108.333 209.705 108.162 213.276 107.992 213.956C107.652 215.656 106.802 217.697 106.292 219.227C103.911 227.219 94.5589 230.62 92.3483 233.681L125.847 248.985C130.608 240.653 136.73 221.438 145.912 217.527C150.334 215.656 154.755 215.996 158.326 212.595C161.217 209.875 161.897 205.964 161.727 202.223C161.387 196.271 157.476 192.53 154.755 187.769C156.965 187.429 159.176 186.408 159.686 184.878Z" fill="#F4B0AA"/>
<path d="M146.082 217.867C146.933 217.527 147.783 217.187 148.633 217.017C144.722 216.677 139.791 218.208 136.05 219.058C132.819 219.908 129.588 220.928 126.697 222.289C130.268 225.52 131.459 230.281 132.819 234.872C136.56 227.39 140.811 220.078 146.082 217.867Z" fill="#DB8D89"/>
<path d="M99.83 210.216C89.1172 198.483 84.696 185.049 86.0564 168.555C87.4167 153.761 93.1983 144.408 107.142 138.117C121.086 131.825 133.839 137.266 145.062 133.185C149.313 131.655 155.265 126.213 159.686 128.594C166.828 132.505 161.046 141.177 158.666 146.279C169.719 146.279 166.998 159.372 159.346 163.623C150.844 168.555 139.621 163.793 131.288 168.045C131.458 177.397 133.159 183.689 124.827 190.661C121.766 184.199 112.073 181.138 108.672 188.79C105.612 195.762 112.413 202.054 117.175 202.394C118.195 208.345 113.604 213.617 108.502 215.827C103.911 217.868 94.7287 216.677 99.83 210.216Z" fill="#E07552"/>
<path d="M155.095 193.039H143.872C143.872 193.039 146.763 200.351 152.204 199.841L155.095 193.039Z" fill="white"/>
<path d="M279.228 251.536L284.669 224.839C284.669 224.839 293.681 213.276 296.742 207.324C299.803 201.372 302.184 210.725 298.613 217.017C298.613 217.017 311.876 198.142 314.427 199.332C317.148 200.522 310.516 213.446 310.516 213.446C310.516 213.446 318.678 197.461 321.399 199.332C324.119 201.202 315.617 218.207 315.617 218.207C315.617 218.207 323.439 204.603 325.48 207.324C327.52 210.045 320.038 223.478 320.038 223.478C320.038 223.478 324.46 217.527 325.82 219.737C327.01 221.778 308.815 252.216 294.021 260.208L279.228 251.536Z" fill="#F4B0AA"/>
<path d="M-51 302.548C-51 302.548 -23.2826 302.038 -3.2173 286.224C16.848 270.41 38.6138 231.98 76.0238 230.279C113.434 228.579 138.43 242.182 172.609 278.572C206.789 314.962 230.255 323.634 230.255 323.634L273.956 246.093C274.977 244.393 277.187 243.713 279.058 244.733L299.973 257.656C300.823 258.167 301.504 259.187 301.674 260.207C303.374 273.131 311.536 356.113 258.312 415.798C254.061 420.56 247.939 423.28 241.648 423.28C223.963 423.28 186.043 416.989 143.532 371.417L-51 525V302.548Z" fill="#ED395F"/>
<path d="M118.195 343.869L144.212 374.477" stroke="#872357" stroke-miterlimit="10" stroke-linecap="round" stroke-linejoin="round"/>
<path d="M230.255 319.894L224.983 336.048" stroke="#872357" stroke-miterlimit="10" stroke-linecap="round" stroke-linejoin="round"/>
<path d="M256.271 181.815L273.616 198.31" stroke="#872357" stroke-width="2" stroke-miterlimit="10" stroke-linecap="round" stroke-linejoin="round"/>
<path d="M286.88 193.89L280.928 169.403" stroke="#872357" stroke-width="2" stroke-miterlimit="10" stroke-linecap="round" stroke-linejoin="round"/>
<path d="M299.463 192.361L307.285 171.785" stroke="#872357" stroke-width="2" stroke-miterlimit="10" stroke-linecap="round" stroke-linejoin="round"/>
<path d="M263.924 208.855L249.13 202.903" stroke="#872357" stroke-width="2" stroke-miterlimit="10" stroke-linecap="round" stroke-linejoin="round"/>
</svg>
