<svg width="331" height="358" viewBox="0 0 331 358" fill="none" xmlns="http://www.w3.org/2000/svg">
<path d="M162.713 242.662C162.713 242.662 107.693 234.442 107.189 241.823C107.022 244.843 133.022 250.043 133.022 250.043C133.022 250.043 99.8086 245.849 99.9763 251.385C100.144 257.088 131.345 259.437 131.345 259.437C131.345 259.437 109.873 258.766 109.706 262.288C109.202 268.159 132.854 267.992 132.854 267.992C132.854 267.992 119.435 268.327 120.441 273.695C121.448 278.895 166.907 272.353 166.907 272.353L162.713 242.662Z" fill="#DB8D89"/>
<path d="M129.835 290.974L157.178 292.987L170.43 224.715L126.648 221.695L129.835 290.974Z" fill="#ED395F"/>
<path d="M126.648 221.695C126.145 228.908 135.538 235.45 147.616 236.457C159.694 237.295 169.926 232.095 170.43 224.882C170.933 217.669 161.539 211.127 149.461 210.12C137.384 209.282 127.151 214.314 126.648 221.695Z" fill="#872357"/>
<path d="M148.623 220.353C157.681 221.024 165.229 224.882 168.249 229.747C164.558 234.276 156.507 236.96 147.616 236.289C138.558 235.618 131.009 231.76 127.99 226.895C131.68 222.366 139.564 219.682 148.623 220.353Z" fill="#F9C885"/>
<path d="M167.746 237.798L179.32 249.54L268.896 223.036L272.587 172.209C273.929 153.254 291.206 139.499 309.994 142.35C330.291 145.538 342.536 166.338 335.659 185.629L309.994 256.585C307.31 264.134 300.097 269.334 292.045 269.669L177.643 274.031L160.533 276.379C160.533 276.379 158.855 254.237 157.178 249.372C155.668 245.346 138.726 248.533 138.726 244.34C138.726 240.314 167.746 237.798 167.746 237.798Z" fill="#DB8D89"/>
<path d="M248.767 123.061C242.392 119.706 235.179 111.654 234.844 104.106C234.676 99.2412 237.528 96.054 239.373 91.1894C243.231 81.1247 237.36 72.5697 240.547 63.0082C243.734 53.6144 241.554 41.369 247.592 32.6462C258.831 16.7104 281.142 24.259 291.374 36.3366C298.252 44.3884 301.439 52.7757 305.129 62.6727C308.652 71.8987 313.852 80.286 314.187 90.5184C314.355 95.0476 313.684 100.751 311.168 104.609C309.994 106.454 269.735 133.965 248.767 123.061Z" fill="#872357"/>
<path d="M70.1177 73.5728L65.924 151.239C65.7563 153.755 63.5756 155.433 61.2271 155.097L22.1424 148.723C20.1295 148.387 18.6198 146.542 18.6198 144.529L21.136 63.3403C21.136 60.6564 23.6521 58.8112 26.1683 59.4822L66.9305 69.5469C68.9434 69.7147 70.2854 71.5599 70.1177 73.5728Z" fill="#453A76"/>
<path d="M26.6716 73.0716C26.5038 75.9233 28.6846 78.4395 31.5362 78.6072C34.3879 78.775 36.9041 76.5943 37.0718 73.7426C37.2396 70.8909 35.0589 68.3748 32.2072 68.207C29.3555 68.0393 26.8393 70.0522 26.6716 73.0716Z" fill="#F9C885"/>
<path d="M37.4073 41.8704C28.8523 40.5284 21.3037 55.1223 19.123 61.8321C14.5939 54.7868 9.39375 44.5543 0 43.0446C10.2325 36.1671 15.2648 32.1412 17.6133 20.0635C18.452 22.5797 17.7811 38.18 37.4073 41.8704Z" fill="#F9C885"/>
<path d="M175.126 211.796C118.596 202.905 92.5956 157.614 56.698 147.046C48.143 144.53 36.7363 125.91 38.0783 124.568C39.4202 123.059 45.7946 128.594 45.7946 128.594C45.7946 128.594 39.0847 113.329 39.0847 109.639C39.2525 106.116 49.3172 112.155 49.3172 112.155C27.678 93.8708 43.4461 99.9097 43.4461 99.9097L67.7692 112.491L68.6079 99.5742L74.1436 109.471C75.4855 111.82 76.1565 114.504 76.3242 117.188L76.6597 125.071L163.216 158.117C163.216 158.117 172.442 153.924 182.004 149.73L202.637 207.267C195.424 208.106 184.185 213.306 175.126 211.796Z" fill="#DB8D89"/>
<path d="M178.649 151.409C211.527 136.815 287.851 103.937 311.671 100.414C342.369 95.8848 350.42 107.291 375.918 140.17C401.415 172.88 445.7 195.19 445.7 195.19L366.86 357.568C327.272 332.238 289.361 260.443 272.587 225.217C270.406 225.72 268.225 225.888 265.877 225.888C256.315 225.217 248.767 218.339 246.586 209.449C236.018 211.797 220.921 214.984 201.966 218.339L178.649 151.409Z" fill="#4FBBBB"/>
<path d="M281.309 203.242L240.715 211.462" stroke="#453A76" stroke-width="0.9612" stroke-miterlimit="10" stroke-linecap="round" stroke-linejoin="round"/>
<path d="M218.74 28.955C221.76 24.2581 226.121 26.2711 224.444 20.0645C223.437 16.5419 220.418 15.0322 220.921 10.3353C221.424 5.97391 224.108 2.95445 228.302 2.11572C235.85 0.60601 242.896 8.49006 250.444 5.63839C256.483 3.28995 257.993 -2.91663 265.541 1.6125C268.896 3.62545 270.238 6.47712 273.929 7.4836C276.445 8.15458 278.29 8.15458 282.651 7.4836C289.361 4.29643 299.258 7.81909 302.948 14.1934C305.968 19.3935 303.955 28.7873 308.82 32.4777C312.678 35.3293 318.046 33.6519 321.736 37.6778C326.097 42.5424 323.078 48.078 324.923 53.9491C327.272 61.1622 333.143 59.317 339.014 60.3234C346.73 61.6654 354.446 66.3623 355.117 75.085C355.453 79.6142 351.762 86.995 354.279 90.1821C357.634 94.5435 366.86 91.3564 371.724 94.2081C381.286 99.7437 374.576 114.505 369.208 121.047C364.343 127.086 357.466 131.448 349.917 133.46C346.059 134.467 341.698 134.802 337.672 134.97C330.962 135.473 333.814 134.97 332.136 140.338C327.272 155.267 304.626 140.674 298.252 133.796C292.716 128.093 291.877 122.557 289.026 115.679C286.677 110.312 286.342 111.821 280.806 111.486C269.399 110.647 264.703 99.9114 267.386 89.8467C268.057 87.3305 270.406 83.8078 271.245 80.6207C268.728 80.1174 265.877 80.2851 263.528 80.9561C260.006 81.9626 256.315 83.3046 252.793 84.6466C249.438 85.9885 246.251 87.8337 242.728 88.5047C238.534 89.3434 232.831 90.3499 228.973 87.4982C226.289 85.4853 224.444 81.4594 224.779 78.1045C225.786 70.8914 241.218 67.3688 234.173 58.4782C232.831 56.633 231.489 55.4588 231.992 52.9426C232.16 51.7684 232.663 50.762 233.166 49.7555C228.302 48.4135 223.773 45.7296 220.921 42.2069C218.069 38.3488 215.889 33.1486 218.74 28.955Z" fill="#872357"/>
<path d="M231.153 64.8521C232.663 63.6779 233.837 62.1682 234.844 60.8262C236.186 50.0905 238.702 41.0323 238.702 41.0323C239.373 39.3548 240.044 38.0128 240.883 36.6709C242.057 36.1676 243.063 35.6644 243.902 36.6709C244.405 37.3418 243.902 38.0128 244.573 38.6838C245.915 39.858 247.76 39.0193 249.102 38.0129C250.947 36.5031 251.954 33.9869 254.47 35.1612C255.309 37.1741 255.309 38.5161 257.993 38.6838C259.838 38.8516 261.683 37.1741 263.36 37.5096C266.38 38.1806 264.87 41.871 263.528 43.3807C262.522 44.5549 261.515 45.5614 261.012 47.0711C259.838 50.2583 261.851 53.4454 263.528 55.9616C265.038 58.1423 267.89 59.8197 270.406 59.3165C272.251 58.981 274.935 58.31 276.277 56.9681C277.283 55.9616 278.122 54.4519 278.961 52.9422C280.974 52.1035 286.677 50.426 286.174 58.4778C285.503 68.207 277.619 66.8651 277.619 66.8651L275.438 71.3942C271.412 86.3236 249.27 101.924 238.534 91.1882C234.341 86.9945 233.502 78.6073 233.837 69.8845C232.495 69.549 230.986 69.3813 229.811 69.0458C227.295 68.0393 229.644 66.1941 231.153 64.8521Z" fill="#DB8D89"/>
<path d="M279.129 63.5086C276.277 65.5215 274.264 68.8764 273.928 72.7346C273.425 79.6122 278.625 85.4832 285.503 85.9865C292.381 86.4897 298.252 81.2896 298.755 74.412C299.258 67.5345 294.058 61.6634 287.18 61.1602" stroke="#F9C885" stroke-width="1.8005" stroke-miterlimit="10" stroke-linecap="round" stroke-linejoin="round"/>
<path d="M240.044 56.6311C239.541 62.5022 242.56 67.5345 246.418 67.7023C250.444 68.0378 253.967 63.5086 254.302 57.6375C254.805 51.7665 251.786 46.7341 247.928 46.5663C244.07 46.2308 240.379 50.76 240.044 56.6311Z" stroke="#F9C885" stroke-width="1.106" stroke-miterlimit="10" stroke-linecap="round" stroke-linejoin="round"/>
<path d="M225.618 54.7862C225.282 59.8186 227.295 64.1799 229.979 64.3477C232.831 64.5154 235.347 60.4896 235.682 55.4572C236.018 50.4248 234.005 46.0634 231.321 45.8957C228.637 45.7279 225.953 49.7539 225.618 54.7862Z" stroke="#F9C885" stroke-width="0.8647" stroke-miterlimit="10" stroke-linecap="round" stroke-linejoin="round"/>
<path d="M238.87 56.6306L235.683 56.4629" stroke="#F9C885" stroke-width="0.9612" stroke-miterlimit="10" stroke-linecap="round" stroke-linejoin="round"/>
<path d="M241.889 75.7559L235.347 76.5946L236.689 78.6075C237.528 80.1172 239.708 79.9495 240.547 78.4397L241.889 75.7559Z" fill="white"/>
</svg>
