<svg width="158" height="376" viewBox="0 0 158 376" fill="none" xmlns="http://www.w3.org/2000/svg">
<path d="M22.0773 39.7215C22.0773 39.7215 65.9117 29.853 87.3699 15.165L93.4517 39.1477C93.4517 39.1477 36.0767 39.033 22.651 44.3114L22.0773 39.7215Z" fill="#F35C65"/>
<path d="M96.7794 25.4933C98.5007 32.1488 97.1237 38.1158 93.9107 38.919C90.6977 39.7223 86.6815 35.0175 84.9602 28.4768C83.239 21.8213 84.616 15.8543 87.829 15.051C91.1567 14.133 95.0582 18.8378 96.7794 25.4933Z" fill="#872357"/>
<path d="M25.5198 29.1674C24.7166 28.4789 23.9133 27.6756 23.3396 26.7576C22.9953 25.0363 22.7658 23.4298 22.4216 21.5938C18.8643 1.05363 -3.28238 4.38141 -13.1509 13.1024C-22.9046 21.7086 -13.3804 35.4786 -13.3804 35.4786C-11.8886 39.1506 -9.93787 42.3636 -7.75763 45.0028C-12.2329 49.9371 -16.4786 55.1008 -20.9539 59.9203C-15.1016 64.2808 -8.79037 68.8708 -3.28237 73.6903C-2.70862 71.8543 -1.79063 70.133 -0.987377 68.4118C0.848619 64.5103 3.14361 60.6088 5.78286 57.1663C6.12711 56.7073 6.5861 56.1335 6.93035 55.6745C13.0121 58.199 18.7496 59.0023 21.8478 58.658C25.9788 58.199 26.6673 52.8058 25.8641 44.4291C26.8968 43.1668 27.4706 41.4455 27.0116 39.7243C26.6673 38.4621 25.8641 37.4293 24.8313 36.7408C24.7166 36.2818 24.7166 35.9376 24.6018 35.4786C24.7166 35.4786 24.7166 35.4786 24.8313 35.3638C26.0936 34.9048 28.6181 33.9868 28.7328 32.4951C29.0771 30.6591 26.6673 30.0854 25.5198 29.1674Z" fill="#F4B0AA"/>
<path d="M-23.0194 51.6563L12.0941 50.0498L5.43856 23.8868L25.864 15.2806C25.864 15.2806 16.3398 -7.09563 -8.10192 3.23186C-32.4289 13.4446 -26.0029 23.3131 -23.0194 51.6563Z" fill="#689D47"/>
<path d="M67.4034 24.5755C66.7149 22.5101 64.9937 23.1985 64.5347 24.1165C64.0757 25.0345 61.2069 26.0673 58.6824 26.2968C56.1579 26.4115 55.5842 25.264 53.2892 24.805C50.9942 24.346 51.6827 26.5262 51.6827 26.5262L52.8302 31.0015C53.0597 32.149 53.2892 32.9523 53.2892 32.9523C51.7974 28.7065 46.4042 26.182 48.0107 29.9687C49.6172 33.7555 51.4532 42.5912 51.4532 42.5912L61.8954 55.7874L71.8787 52.3449C73.3704 44.4272 69.9279 31.0015 67.4034 24.5755Z" fill="#F4B0AA"/>
<path d="M23.7985 107.77L49.1582 235.83L13.0121 235.371L10.1433 111.212L23.7985 107.77Z" fill="#F9824C"/>
<path d="M72.6819 45.6895L57.3055 50.6237C62.584 67.4919 48.6992 109.72 48.6992 109.72C48.6992 109.72 9.11057 74.1474 -23.1341 65.0822C-29.5601 62.6725 -36.4451 61.9839 -43.6744 63.7052C-43.7891 63.7052 -44.0186 63.8199 -44.1333 63.8199C-44.2481 63.8199 -44.4776 63.9347 -44.5923 63.9347C-87.853 75.7539 -103 163.997 -103 163.997L-74.8863 275.304C-22.1014 261.993 5.09432 202.552 18.6348 165.029C29.077 167.898 58.6825 178.799 70.846 178.34C137.401 176.275 72.6819 45.6895 72.6819 45.6895Z" fill="#453A76"/>
<path d="M-44.5923 63.8199C-44.5923 63.8199 -40.6909 59.5742 -42.0679 53.0335C-42.0679 53.0335 -44.0186 49.4762 -40.2319 49.2467C-36.4451 49.132 25.1755 64.7379 25.1755 64.7379C25.1755 64.7379 26.2083 68.7542 22.7658 73.1147C19.3233 77.4752 21.9626 88.3764 21.9626 88.3764L-44.5923 63.8199Z" fill="#F9824C"/>
<path d="M-1.56116 156.652L18.6348 164.914" stroke="#FFEDC7" stroke-miterlimit="10" stroke-linecap="round" stroke-linejoin="round"/>
<path d="M49.6172 130.604C49.6172 130.604 46.4042 117.752 49.2729 107.884" stroke="#FFEDC7" stroke-miterlimit="10" stroke-linecap="round" stroke-linejoin="round"/>
<path d="M116.383 212.002L121.7 196.562C121.7 196.562 127.938 190.324 130.29 187.052C132.539 183.78 133.255 189.506 130.596 192.983C130.596 192.983 140.004 182.757 141.435 183.678C142.969 184.598 137.959 191.756 137.959 191.756C137.959 191.756 144.094 182.86 145.525 184.189C146.957 185.518 140.617 195.028 140.617 195.028C140.617 195.028 146.343 187.461 147.366 189.302C148.388 191.142 142.867 198.504 142.867 198.504C142.867 198.504 146.036 195.334 146.548 196.664C147.161 197.993 133.766 214.66 124.359 218.239L116.383 212.002Z" fill="#DB8D89"/>
<path d="M-7.23959 212.718C1.04284 198.505 20.0617 195.13 32.741 205.56C39.2852 210.98 46.2383 216.91 52.0667 222.534C69.0405 238.997 73.0284 246.052 73.0284 246.052L117.304 206.071L128.142 218.955C128.142 218.955 87.2414 299.632 67.4045 307.301C53.2937 312.823 13.2108 277.239 -8.77337 256.175C-17.6693 247.688 -19.6121 234.191 -13.3747 223.557L-7.23959 212.718Z" fill="#872357"/>
<path d="M57.6905 171.202C58.5085 168.952 55.1342 167.316 53.1914 165.476C53.1914 164.76 53.2936 164.146 53.2936 163.431C53.4981 160.772 54.4184 158.113 53.3959 155.455C51.7599 151.263 47.772 150.342 43.7842 149.729C36.3198 148.706 24.1518 149.933 20.3684 157.295C15.5626 166.6 18.8346 179.586 25.9923 186.54C26.8103 186.131 26.7081 188.278 26.6058 188.687C26.4013 189.709 25.89 190.936 25.5833 191.857C24.1518 196.663 18.5279 198.708 17.1986 200.548L37.3423 209.751C40.2053 204.74 43.8864 193.186 49.4081 190.834C52.0666 189.709 54.7252 189.914 56.8725 187.869C58.6108 186.233 59.0198 183.881 58.9175 181.631C58.713 178.053 56.3612 175.803 54.7252 172.94C56.0544 172.735 57.3837 172.122 57.6905 171.202Z" fill="#F4B0AA"/>
<path d="M49.5103 191.038C50.0215 190.834 50.5328 190.629 51.0441 190.527C48.6923 190.323 45.7269 191.243 43.4774 191.754C41.5346 192.265 39.5918 192.879 37.8535 193.697C40.0008 195.64 40.7166 198.503 41.5346 201.264C43.7841 196.765 46.3404 192.368 49.5103 191.038Z" fill="#DB8D89"/>
<path d="M21.6977 186.438C15.2558 179.383 12.5972 171.305 13.4152 161.386C14.2332 152.491 17.7098 146.867 26.0945 143.083C34.4792 139.3 42.1481 142.572 48.8967 140.118C51.453 139.198 55.0319 135.926 57.6904 137.357C61.985 139.709 58.5084 144.924 57.0769 147.991C63.7233 147.991 62.0873 155.865 57.4859 158.421C52.3733 161.386 45.6247 158.523 40.6143 161.08C40.7166 166.704 41.7391 170.487 36.7287 174.679C34.8882 170.794 29.0598 168.953 27.0148 173.554C25.1742 177.747 29.2643 181.53 32.1274 181.735C32.7409 185.313 29.9801 188.483 26.9125 189.813C24.1517 191.04 18.6301 190.324 21.6977 186.438Z" fill="#E07552"/>
<path d="M54.9298 176.109H48.1812C48.1812 176.109 49.9194 180.506 53.1915 180.199L54.9298 176.109Z" fill="white"/>
<path d="M129.574 211.285L132.846 195.231C132.846 195.231 138.265 188.278 140.106 184.699C141.946 181.12 143.378 186.744 141.23 190.528C141.23 190.528 149.206 179.178 150.74 179.893C152.376 180.609 148.388 188.38 148.388 188.38C148.388 188.38 153.296 178.769 154.932 179.893C156.568 181.018 151.456 191.243 151.456 191.243C151.456 191.243 156.159 183.063 157.386 184.699C158.613 186.335 154.114 194.413 154.114 194.413C154.114 194.413 156.773 190.834 157.591 192.164C158.306 193.391 147.365 211.694 138.47 216.5L129.574 211.285Z" fill="#F4B0AA"/>
<path d="M-69 241.96C-69 241.96 -52.3329 241.653 -40.2671 232.143C-28.2014 222.634 -15.1131 199.525 7.38239 198.502C29.8779 197.48 44.909 205.66 65.4617 227.542C86.0143 249.424 100.125 254.639 100.125 254.639L126.404 208.012C127.017 206.989 128.347 206.58 129.472 207.194L142.049 214.965C142.56 215.272 142.969 215.885 143.071 216.499C144.094 224.27 149.002 274.169 116.997 310.06C114.44 312.923 110.759 314.559 106.976 314.559C96.3418 314.559 73.5396 310.775 47.9765 283.372L-69 375.725V241.96Z" fill="#ED395F"/>
<path d="M32.7408 266.807L48.3854 285.212" stroke="#872357" stroke-miterlimit="10" stroke-linecap="round" stroke-linejoin="round"/>
<path d="M100.125 252.39L96.9553 262.104" stroke="#872357" stroke-miterlimit="10" stroke-linecap="round" stroke-linejoin="round"/>
<path d="M115.77 169.36L126.199 179.279" stroke="#872357" stroke-width="2" stroke-miterlimit="10" stroke-linecap="round" stroke-linejoin="round"/>
<path d="M134.175 176.621L130.596 161.896" stroke="#872357" stroke-width="2" stroke-miterlimit="10" stroke-linecap="round" stroke-linejoin="round"/>
<path d="M141.742 175.702L146.445 163.329" stroke="#872357" stroke-width="2" stroke-miterlimit="10" stroke-linecap="round" stroke-linejoin="round"/>
<path d="M120.371 185.62L111.475 182.041" stroke="#872357" stroke-width="2" stroke-miterlimit="10" stroke-linecap="round" stroke-linejoin="round"/>
</svg>
