<svg width="353" height="553" viewBox="0 0 353 553" fill="none" xmlns="http://www.w3.org/2000/svg">
<path opacity="0.1" d="M349.26 161.628C337.082 164.568 323.898 158.728 308.558 143.637C299.59 134.817 292.093 125.971 271.86 100.395C245.039 66.5323 228.084 48.8757 209.354 35.3703C186.268 18.6756 162.466 11.4807 137.618 13.6275C128.264 14.466 120.381 16.214 111.118 19.4965C101.759 22.8136 95.1289 26.0988 81.9728 33.8984C66.6976 42.9993 65.3355 43.6471 55.4882 47.137C47.8175 49.8004 45.8159 50.3447 42.174 50.5897C33.6829 51.2323 25.7423 49.6986 17.5634 45.7727C11.6443 42.9722 6.23564 39.4405 -6.76709 29.9044C-12.7465 25.5292 -20.0308 20.4057 -22.8757 18.552C-51.0289 0.0758199 -79.5452 -3.68716 -116.93 6.1497C-124.417 8.08771 -148.817 17.1203 -152.491 19.3027C-153.947 20.1492 -195.607 35.1335 -265.708 59.977C-339.594 86.2171 -378.28 100.148 -381.475 101.665C-398.826 109.851 -411.196 121.444 -418.958 136.633C-424.712 147.863 -432.479 173.016 -436.856 194.71C-446.954 244.409 -445.898 292.467 -433.64 342.443C-431.245 352.216 -422.238 379.074 -418.231 388.441C-406.538 415.612 -393.847 437.202 -376.014 460.161C-366.076 472.985 -358.688 481.209 -346.66 492.961C-336.347 502.956 -336.33 503.005 -327.767 510.206C-313.23 522.391 -290.554 538.075 -278.79 544.088C-264.503 551.352 -249.631 553.732 -231.714 551.675L-226.461 551.024L-107.411 509.163C-13.8733 476.289 12.861 467.034 17.2255 466.038C24.1795 464.454 41.9497 457.771 52.3274 452.827C90.675 434.504 119.269 409.18 145.181 370.773C150.534 362.767 154.525 356.344 162.339 343.173C165.848 337.251 170.912 328.577 173.676 323.966C176.423 319.305 180.764 312.318 183.278 308.399C185.859 304.513 187.94 301.078 187.935 300.75C187.912 299.438 168.288 300.228 155.55 302.046C141.198 304.105 126.456 308.174 115.88 313.023L111.728 314.934L114.406 306.335C118.264 294.236 119.887 289.808 123.164 282.758C131.749 264.14 144.188 253.678 163.604 248.558C179.115 244.492 191.601 244.14 223.007 246.768C241.315 248.316 253.783 248.85 262.458 248.417C293.81 246.993 316.555 235.905 332.721 214.215C340.884 203.287 346.461 191.239 350.222 176.367C351.492 171.404 353.063 162.152 352.77 161.32C352.667 161.026 351.084 161.202 349.26 161.628Z" fill="#6BD6D6"/>
</svg>
