<svg width="226" height="72" viewBox="0 0 226 72" fill="none" xmlns="http://www.w3.org/2000/svg">
<path d="M116.082 13.3716V59.4002H123.53V39.343H144.589V59.4002H152.036V13.3716H144.589V32.6573H123.53V13.3716H116.082Z" fill="#201627"/>
<path d="M162.823 12.3428C160.511 12.3428 158.457 14.1428 158.457 16.7142C158.457 19.2856 160.255 21.0856 162.823 21.0856C165.134 21.0856 167.189 19.2856 167.189 16.7142C167.189 14.1428 165.134 12.3428 162.823 12.3428ZM159.227 25.7142V59.3999H166.161V25.7142H159.227Z" fill="#201627"/>
<path d="M189.532 25.7144C184.139 25.7144 181.314 28.0286 179.773 30.8572L179.002 25.7144H172.839V59.4001H179.773V42.4286C179.773 37.2858 181.827 32.4001 187.991 32.4001H191.073V25.7144H189.532Z" fill="#201627"/>
<path d="M209.05 59.6573C219.323 59.6573 226 52.7145 226 42.4288C226 32.1431 219.066 25.2002 209.05 25.2002C199.034 25.2002 192.1 32.1431 192.1 42.4288C192.1 52.9716 198.777 59.6573 209.05 59.6573ZM209.05 53.743C203.143 53.743 199.291 49.1145 199.291 42.4288C199.291 36.0002 203.143 31.1145 209.05 31.1145C214.957 31.1145 218.809 35.7431 218.809 42.4288C218.809 49.1145 214.957 53.743 209.05 53.743Z" fill="#201627"/>
<path fill-rule="evenodd" clip-rule="evenodd" d="M74.4773 72L98.6182 36L74.4773 0V72Z" fill="#201627"/>
<path fill-rule="evenodd" clip-rule="evenodd" d="M24.6546 72H74.4773V0H24.6546L0.256836 36L24.6546 72Z" fill="#201627"/>
<path fill-rule="evenodd" clip-rule="evenodd" d="M56.2431 42.4286L63.6909 54H58.0409L49.0522 40.3714L40.3204 54H34.6704L42.1181 42.4286H31.3318V38.0571H67.0295V42.4286H56.2431Z" fill="white"/>
<path fill-rule="evenodd" clip-rule="evenodd" d="M67.0295 29.3143H56.2431L63.9477 18H58.2977L49.0522 31.8857L40.0636 18H34.4136L42.1181 29.3143H31.3318V33.9429H67.0295V29.3143Z" fill="white"/>
</svg>
