<svg width="273" height="71" viewBox="0 0 273 71" fill="none" xmlns="http://www.w3.org/2000/svg">
<path d="M102.369 28.5583C103.911 27.2539 104.705 25.4369 104.705 23.1541C104.799 21.8191 104.441 20.4913 103.686 19.3844C102.932 18.2774 101.826 17.4556 100.547 17.0511C99.4256 16.6318 97.8838 16.2125 96.0149 15.7932C94.6599 15.5137 93.5853 15.2342 92.791 14.9546C92.0527 14.7532 91.3776 14.3685 90.8287 13.8365C90.562 13.5872 90.3529 13.2831 90.2157 12.9453C90.0786 12.6074 90.0167 12.2439 90.0344 11.8798C90.0344 10.8083 90.4549 10.0163 91.2492 9.41069C92.0435 8.80504 93.1648 8.52552 94.5665 8.52552C95.9681 8.52552 97.1829 8.85163 98.2108 9.55045C98.737 9.90064 99.1864 10.3537 99.5318 10.8823C99.8771 11.4108 100.111 12.0038 100.22 12.6253H104.051C103.631 10.1561 102.556 8.29258 100.827 7.08129C99.0986 5.82342 97.0428 5.21777 94.6132 5.21777C92.9779 5.21777 91.5295 5.4973 90.268 6.05636C89.0322 6.5312 87.9762 7.37917 87.2474 8.48174C86.5186 9.58431 86.1535 10.8864 86.2031 12.206C86.2031 13.7434 86.5769 15.0012 87.3712 15.8864C88.1188 16.8182 89.0532 17.4238 90.1745 17.8431C91.2959 18.2158 92.7443 18.6351 94.5197 19.0078C95.9681 19.3339 97.1362 19.6134 97.9772 19.893C98.8182 20.1725 99.5191 20.5918 100.08 21.1043C100.366 21.4093 100.588 21.7685 100.732 22.1606C100.877 22.5528 100.941 22.9698 100.921 23.3871C100.921 24.6449 100.454 25.6233 99.5658 26.2755C98.4729 26.9889 97.1786 27.332 95.8747 27.2539C94.2861 27.2539 92.8377 26.8812 91.623 26.1357C90.9901 25.7221 90.4511 25.181 90.0407 24.5471C89.6303 23.9132 89.3576 23.2006 89.2401 22.4553H85.3621C85.5146 24.0771 86.1273 25.6221 87.1285 26.9092C88.1298 28.1964 89.4781 29.1724 91.0156 29.723C92.5107 30.2821 94.146 30.5616 95.828 30.5616C98.6313 30.5616 100.827 29.9094 102.369 28.5583ZM117.04 30.1889V27.2073H115.124C114.377 27.2073 113.863 27.0209 113.629 26.6482C113.396 26.3221 113.302 25.763 113.302 25.0176V15.1876H117.04V12.206H113.302V5.59048H109.751V12.206H106.948V15.1876H109.751V25.9494C109.751 27.4868 110.125 28.5583 110.826 29.2106C111.527 29.8628 112.601 30.1889 114.003 30.1889H117.04ZM129.749 29.4435C130.496 28.9776 131.104 28.3254 131.617 27.4868V30.1423H135.168V20.1725C135.168 18.7749 135.075 17.5636 134.841 16.4921C134.608 15.4205 134.047 14.4888 133.206 13.6968C132.552 13.0911 131.758 12.6718 130.823 12.3457C129.521 11.9061 128.134 11.774 126.772 11.9599C125.41 12.1459 124.11 12.6448 122.974 13.4172C121.572 14.4422 120.684 15.8864 120.404 17.7965H123.908C124.095 16.9113 124.562 16.1659 125.263 15.6069C125.964 15.0478 126.805 14.7683 127.786 14.7683C129.001 14.7683 129.935 15.141 130.636 15.8398C131.29 16.4921 131.617 17.4704 131.664 18.6817L125.73 19.7998C124.252 20.0454 122.838 20.584 121.572 21.3838C120.946 21.8231 120.438 22.4107 120.096 23.0937C119.753 23.7767 119.586 24.5339 119.61 25.2972C119.61 26.9277 120.17 28.1856 121.245 29.1174C122.366 30.0491 123.768 30.515 125.544 30.515C127.272 30.515 128.674 30.1889 129.749 29.4435ZM124.048 26.9743C123.774 26.7698 123.554 26.5017 123.408 26.1931C123.261 25.8846 123.192 25.5451 123.207 25.204C123.207 24.5518 123.441 24.0393 123.908 23.5734C124.469 23.0609 125.357 22.6882 126.618 22.4087L131.664 21.3838C131.664 22.828 131.477 23.9927 131.01 24.8779C130.541 25.8187 129.767 26.5739 128.814 27.0209C128.067 27.3936 127.179 27.58 126.244 27.58C125.31 27.58 124.609 27.3936 124.048 26.9743ZM152.83 28.7913C154.325 27.6732 155.259 26.1823 155.68 24.2256H151.848C151.597 25.1709 151.038 26.0064 150.26 26.6016C149.437 27.2091 148.433 27.5211 147.41 27.4868C146.43 27.5176 145.466 27.2405 144.653 26.6948C143.859 26.1823 143.251 25.4369 142.784 24.4586C142.317 23.4802 142.083 22.3621 142.083 21.1043C142.083 19.893 142.317 18.7749 142.784 17.8431C143.251 16.9113 143.859 16.1659 144.653 15.6535C145.447 15.141 146.382 14.8615 147.41 14.8615C148.484 14.8615 149.372 15.141 150.12 15.7001C150.896 16.2049 151.474 16.962 151.755 17.8431H155.586C155.119 16.0262 154.184 14.5819 152.736 13.5104C151.288 12.4389 149.512 11.8798 147.41 11.8798C145.681 11.8798 144.092 12.2525 142.784 12.998C141.429 13.79 140.355 14.9081 139.607 16.3057C138.859 17.7033 138.486 19.2873 138.486 21.0577C138.486 22.8746 138.859 24.5052 139.607 25.9494C140.345 27.3654 141.469 28.5451 142.849 29.3527C144.229 30.1604 145.81 30.5632 147.41 30.515C149.512 30.515 151.334 29.956 152.83 28.7913ZM162.548 21.0111L170.584 30.1889H175.116L166.052 20.0793L174.462 12.2525H169.79L162.548 19.1476V5.59048H158.997V30.1889H162.548V21.0111ZM190.394 28.9776C191.656 27.9527 192.31 26.6016 192.31 24.8779C192.31 23.62 191.983 22.5951 191.329 21.8962C190.675 21.1974 189.881 20.685 188.946 20.3588C188.012 20.0327 186.797 19.7532 185.348 19.4737C184.274 19.2873 183.48 19.101 182.919 18.9146C182.358 18.7283 181.844 18.4953 181.47 18.1692C181.285 18.0174 181.138 17.8247 181.041 17.6063C180.944 17.388 180.899 17.15 180.91 16.9113C180.91 16.5938 180.992 16.2816 181.147 16.0043C181.303 15.7271 181.526 15.4941 181.798 15.3274C182.405 14.9546 183.199 14.7683 184.227 14.7683C185.302 14.7683 186.236 15.0012 186.984 15.5137C187.76 16.0523 188.297 16.8709 188.479 17.7965H191.843C191.516 15.933 190.675 14.4888 189.32 13.4638C187.856 12.3662 186.057 11.8066 184.227 11.8798C182.265 11.8798 180.676 12.2525 179.415 13.1843C178.153 14.1161 177.499 15.4205 177.499 17.0977C177.45 18.1273 177.782 19.139 178.433 19.9396C179.041 20.6384 179.788 21.1508 180.676 21.4304C181.805 21.8096 182.961 22.1054 184.134 22.3155C185.162 22.5485 186.003 22.7348 186.657 22.9678C187.264 23.2007 187.778 23.4336 188.199 23.8064C188.619 24.1791 188.806 24.6449 188.806 25.2506C188.806 25.996 188.432 26.6016 187.778 27.0209C187.077 27.4402 186.236 27.6266 185.115 27.6266C183.76 27.6266 182.685 27.3004 181.891 26.7414C181.09 26.1276 180.528 25.2544 180.302 24.2722H176.751C176.851 25.1883 177.144 26.0729 177.611 26.8679C178.078 27.6628 178.709 28.3501 179.461 28.8844C180.957 29.956 182.872 30.515 185.115 30.515C187.358 30.515 189.133 30.0025 190.394 28.9776Z" fill="#201627"/>
<path d="M90.2213 56.0918H100.5L102.463 61.6357H106.387L97.51 37.0373H93.2583L84.381 61.6357H88.3524L90.2213 56.0918ZM99.3322 52.7374H91.3894L95.3608 41.0439L99.3322 52.7374ZM122.507 60.2847C124.002 59.1666 124.936 57.6758 125.357 55.7191H121.525C121.274 56.6643 120.715 57.4998 119.937 58.0951C119.114 58.7026 118.11 59.0146 117.087 58.9802C116.107 59.011 115.143 58.7339 114.33 58.1882C113.536 57.6758 112.928 56.9304 112.461 55.952C111.994 54.9737 111.76 53.8556 111.76 52.5977C111.76 51.3864 111.994 50.2683 112.461 49.3365C112.928 48.4048 113.536 47.6594 114.33 47.1469C115.124 46.6344 116.059 46.3549 117.087 46.3549C118.161 46.3549 119.049 46.6344 119.797 47.1935C120.573 47.6983 121.151 48.4555 121.432 49.3365H125.263C124.796 47.5196 123.862 46.0754 122.413 45.0039C120.965 43.9323 119.189 43.3733 117.087 43.3733C115.358 43.3733 113.769 43.746 112.461 44.4914C111.106 45.2834 110.032 46.4015 109.284 47.7991C108.537 49.1968 108.163 50.7808 108.163 52.5511C108.163 54.368 108.537 55.9986 109.284 57.4428C110.022 58.8589 111.146 60.0385 112.526 60.8462C113.906 61.6538 115.487 62.0567 117.087 62.0084C119.189 62.0084 121.011 61.4494 122.507 60.2847ZM142.224 60.2847C143.719 59.1666 144.653 57.6758 145.074 55.7191H141.242C140.991 56.6643 140.432 57.4998 139.654 58.0951C138.831 58.7026 137.827 59.0146 136.804 58.9802C135.824 59.011 134.86 58.7339 134.047 58.1882C133.253 57.6758 132.645 56.9304 132.178 55.952C131.711 54.9737 131.477 53.8556 131.477 52.5977C131.477 51.3864 131.711 50.2683 132.178 49.3365C132.645 48.4048 133.253 47.6594 134.047 47.1469C134.841 46.6344 135.776 46.3549 136.804 46.3549C137.878 46.3549 138.766 46.6344 139.514 47.1935C140.29 47.6983 140.868 48.4555 141.149 49.3365H144.98C144.513 47.5196 143.578 46.0754 142.13 45.0039C140.682 43.9323 138.906 43.3733 136.804 43.3733C135.075 43.3733 133.486 43.746 132.178 44.4914C130.823 45.2834 129.749 46.4015 129.001 47.7991C128.253 49.1968 127.88 50.7808 127.88 52.5511C127.88 54.368 128.253 55.9986 129.001 57.4428C129.739 58.8589 130.863 60.0385 132.243 60.8462C133.623 61.6538 135.204 62.0567 136.804 62.0084C138.906 62.0084 140.728 61.4494 142.224 60.2847ZM162.127 60.3313C163.529 59.1666 164.557 57.6758 165.164 55.8123H161.426C161.074 56.7678 160.428 57.5881 159.581 58.1568C158.733 58.7255 157.728 59.0136 156.708 58.9802C155.643 58.998 154.605 58.6528 153.764 58.0019C152.864 57.346 152.181 56.4377 151.802 55.393C151.521 54.7873 151.334 54.1351 151.288 53.4363H165.398V52.4579C165.445 50.7181 165.026 48.9973 164.183 47.473C163.399 46.1666 162.267 45.1024 160.913 44.3982C159.604 43.6994 158.109 43.3733 156.521 43.3733C154.652 43.3733 153.016 43.7926 151.708 44.6777C150.353 45.5629 149.372 46.7276 148.671 48.1718C147.97 49.6161 147.643 51.1535 147.643 52.784C147.643 54.5078 148.017 56.0918 148.765 57.4894C149.512 58.8871 150.587 60.0052 151.942 60.7972C153.297 61.5892 154.885 62.0084 156.614 62.0084C158.588 62.0764 160.528 61.4863 162.127 60.3313ZM151.475 50.5478C151.615 49.849 151.802 49.2434 152.082 48.8241C152.486 48.0331 153.121 47.3832 153.904 46.9605C154.698 46.5413 155.586 46.3083 156.614 46.3083C157.595 46.3083 158.483 46.5413 159.277 46.9605C160.072 47.3798 160.726 47.9855 161.146 48.8241C161.426 49.3365 161.613 49.8956 161.707 50.5478H151.475ZM175.21 61.6357V58.6541H174.228C173.528 58.6541 173.014 58.5144 172.78 58.1882C172.5 57.8621 172.406 57.3031 172.406 56.5577V37.0373H168.855V57.3962C168.855 58.9336 169.229 60.0052 169.93 60.6574C170.631 61.3096 171.705 61.6357 173.107 61.6357H175.21ZM192.03 60.3313C193.431 59.1666 194.459 57.6758 195.067 55.8123H191.329C190.976 56.7678 190.33 57.5881 189.483 58.1568C188.636 58.7255 187.631 59.0136 186.61 58.9802C185.546 58.998 184.507 58.6528 183.666 58.0019C182.767 57.346 182.084 56.4377 181.704 55.393C181.424 54.7873 181.237 54.1351 181.19 53.4363H195.3V52.4579C195.347 50.7181 194.928 48.9973 194.086 47.473C193.301 46.1666 192.169 45.1024 190.815 44.3982C189.507 43.6994 188.012 43.3733 186.423 43.3733C184.554 43.3733 182.919 43.7926 181.611 44.6777C180.256 45.5629 179.275 46.7276 178.574 48.1718C177.873 49.6161 177.546 51.1535 177.546 52.784C177.546 54.5078 177.92 56.0918 178.667 57.4894C179.415 58.8871 180.489 60.0052 181.844 60.7972C183.199 61.5892 184.788 62.0084 186.517 62.0084C188.49 62.0764 190.43 61.4863 192.03 60.3313ZM181.377 50.5478C181.517 49.849 181.704 49.2434 181.984 48.8241C182.388 48.0331 183.024 47.3832 183.807 46.9605C184.601 46.5413 185.489 46.3083 186.517 46.3083C187.498 46.3083 188.385 46.5413 189.18 46.9605C189.974 47.3798 190.628 47.9855 191.049 48.8241C191.329 49.3365 191.516 49.8956 191.609 50.5478H181.377ZM198.805 61.5892H202.402V52.7374C202.402 50.5478 202.869 48.9638 203.897 48.0321C204.348 47.6154 204.878 47.2935 205.456 47.0854C206.034 46.8773 206.648 46.7873 207.261 46.8208H208.243V43.3267H207.869C206.701 43.3267 205.673 43.513 204.785 43.9323C203.897 44.3516 203.103 45.0504 202.355 45.9822V43.6994H198.805V61.5892C198.805 61.5892 198.805 61.6357 198.805 61.5892ZM220.344 60.9369C221.091 60.471 221.699 59.8188 222.213 58.9802V61.6357H225.763V51.6659C225.763 50.2683 225.67 49.057 225.436 47.9855C225.203 46.914 224.642 45.9822 223.801 45.1902C223.147 44.5846 222.353 44.1653 221.418 43.8392C220.116 43.3995 218.729 43.2674 217.367 43.4534C216.005 43.6393 214.705 44.1382 213.569 44.9107C212.167 45.9356 211.279 47.3798 210.999 49.2899H214.503C214.69 48.4048 215.157 47.6594 215.858 47.1003C216.559 46.5413 217.4 46.2617 218.381 46.2617C219.596 46.2617 220.531 46.6344 221.231 47.3332C221.885 47.9855 222.213 48.9638 222.259 50.1751L216.326 51.2932C214.847 51.5388 213.433 52.0774 212.167 52.8772C211.541 53.3165 211.034 53.9041 210.691 54.5871C210.349 55.2702 210.181 56.0273 210.205 56.7906C210.205 58.4212 210.766 59.6791 211.84 60.6108C212.961 61.5426 214.363 62.0084 216.139 62.0084C217.867 62.0084 219.269 61.6823 220.344 60.9369ZM214.644 58.4678C214.369 58.2633 214.149 57.9951 214.003 57.6866C213.856 57.378 213.788 57.0385 213.803 56.6974C213.803 56.0452 214.036 55.5327 214.503 55.0668C215.064 54.5544 215.952 54.1817 217.213 53.9021L222.259 52.8772C222.259 54.3214 222.072 55.4861 221.605 56.3713C221.136 57.3121 220.363 58.0673 219.409 58.5144C218.662 58.8871 217.774 59.0734 216.839 59.0734C215.905 59.0734 215.204 58.8871 214.644 58.4678ZM238.612 61.6357V58.6541H236.697C235.949 58.6541 235.435 58.4678 235.201 58.0951C234.968 57.7689 234.874 57.2099 234.874 56.4645V46.6344H238.612V43.6528H234.874V37.0373H231.323V43.6528H228.52V46.6344H231.323V57.3962C231.323 58.9336 231.697 60.0052 232.398 60.6574C233.099 61.3096 234.174 61.6357 235.575 61.6357H238.612ZM254.918 60.8438C256.273 60.0518 257.348 58.9336 258.096 57.4894C258.843 56.0918 259.217 54.4612 259.217 52.6443C259.217 50.8739 258.796 49.2899 258.049 47.8923C257.301 46.4947 256.227 45.3766 254.872 44.5846C253.451 43.7714 251.837 43.3531 250.199 43.3733C248.471 43.3733 246.882 43.746 245.527 44.4914C244.125 45.2834 243.051 46.4015 242.303 47.7991C241.533 49.2903 241.131 50.9435 241.131 52.621C241.131 54.2984 241.533 55.9516 242.303 57.4428C243.057 58.8663 244.197 60.0494 245.593 60.8568C246.99 61.6643 248.586 62.0634 250.199 62.0084C251.848 62.0422 253.476 61.6403 254.918 60.8438ZM247.349 58.0951C246.512 57.5443 245.848 56.7692 245.434 55.8588C244.966 54.9271 244.733 53.809 244.733 52.5977C244.733 51.433 244.966 50.3615 245.434 49.4297C245.901 48.4979 246.602 47.7525 247.396 47.3332C248.237 46.8208 249.171 46.5413 250.199 46.5413C251.274 46.5413 252.162 46.7742 253.003 47.3332C253.797 47.8457 254.451 48.5911 254.918 49.5229C255.386 50.4546 255.619 51.4796 255.619 52.6443C255.636 53.7702 255.396 54.8851 254.918 55.9054C254.451 56.8372 253.844 57.6292 253.003 58.1417C252.153 58.6691 251.17 58.9447 250.169 58.9365C249.168 58.9282 248.19 58.6364 247.349 58.0951ZM262.721 61.6357H266.319V52.784C266.319 50.5944 266.786 49.0104 267.814 48.0787C268.264 47.662 268.794 47.34 269.372 47.1319C269.95 46.9238 270.564 46.8339 271.178 46.8674H272.159V43.3733H271.785C270.617 43.3733 269.589 43.5596 268.702 43.9789C267.814 44.3982 267.02 45.097 266.272 46.0288V43.746H262.721V61.6823V61.6357ZM2.80334 35.4999C2.80334 44.5197 6.3968 53.1701 12.7932 59.548C19.1896 65.926 27.865 69.5091 36.9108 69.5091C45.9567 69.5091 54.6321 65.926 61.0285 59.548C67.4249 53.1701 71.0183 44.5197 71.0183 35.4999V1.49072H36.9108C27.865 1.49072 19.1896 5.07382 12.7932 11.4518C6.3968 17.8297 2.80334 26.4801 2.80334 35.4999Z" fill="#201627"/>
<path d="M51.5817 51.6662L44.293 40.6715H54.7588V36.5252H20.4645V40.6715H30.9303L23.6416 51.6662H29.0614L37.6117 38.7614L46.1619 51.6662H51.5817ZM54.7588 32.5186V28.3257H44.5266L51.7219 17.4707H46.2553L37.6117 30.5619L28.968 17.4707H23.5014L30.6967 28.3257H20.4645V32.5186H54.7588Z" fill="white"/>
</svg>
