<svg width="308" height="170" viewBox="0 0 308 170" fill="none" xmlns="http://www.w3.org/2000/svg">
<rect x="1.5" y="11" width="295" height="158" rx="23" stroke="#201627" stroke-width="2"/>
<rect x="10.5" width="297" height="160" rx="24" fill="#201627"/>
<path d="M170.617 17.5326C170.422 19.4759 168.886 21.1128 165.878 22.5885C164.121 23.4513 162.435 24.0963 157.635 25.7494C151.279 27.9427 147.812 29.5231 144.863 31.5793C141.221 34.1113 138.939 37.2399 137.975 41.0056C137.616 42.4248 137.467 43.6747 137.473 45.2067C137.478 46.7549 137.619 47.9 138.088 50.2384C138.639 52.9558 138.664 53.1897 138.669 54.8185C138.666 56.0845 138.643 56.407 138.491 56.9553C138.148 58.2375 137.514 59.326 136.516 60.3259C135.8 61.0516 135.002 61.6645 132.932 63.0837C131.981 63.7368 130.853 64.5432 130.434 64.8657C126.27 68.0508 124.249 72.0503 123.769 78.0577C123.669 79.2592 123.739 83.3151 123.871 83.9683C123.92 84.2263 123.977 91.1287 124.018 102.724C124.069 114.948 124.124 121.359 124.182 121.907C124.491 124.883 125.558 127.302 127.39 129.229C128.744 130.656 132.039 133.1 135.001 134.865C141.784 138.921 148.899 141.252 156.873 142.034C158.432 142.187 162.842 142.252 164.425 142.147C169.019 141.832 172.845 141.082 177.136 139.647C179.532 138.849 181.121 138.188 183.467 137.027C185.466 136.027 185.475 136.027 186.974 135.14C189.512 133.632 192.984 131.108 194.474 129.689C196.277 127.963 197.392 125.899 198.012 123.157L198.187 122.351L198.166 102.676C198.152 87.2179 198.169 82.8071 198.248 82.1137C198.373 81.009 198.306 78.0496 198.114 76.2676C197.396 69.6796 195.148 64.1642 190.839 58.3665C189.938 57.165 189.2 56.2458 187.667 54.4153C186.978 53.5928 185.964 52.3994 185.429 51.7544C184.885 51.1093 184.082 50.1094 183.636 49.5369C183.198 48.9563 182.8 48.4725 182.752 48.4564C182.558 48.3918 181.664 51.3189 181.275 53.2864C180.838 55.5039 180.677 57.8827 180.845 59.6889L180.912 60.3985L179.786 59.5599C178.207 58.3665 177.64 57.8988 176.773 57.0521C174.48 54.8266 173.583 52.4559 173.831 49.3353C174.032 46.8436 174.623 44.989 176.626 40.5057C177.796 37.8931 178.517 36.0869 178.9 34.7886C180.305 30.1037 179.847 26.1848 177.492 22.6852C176.307 20.9193 174.824 19.4759 172.833 18.1535C172.169 17.71 170.89 17.0004 170.753 17.0004C170.704 17.0004 170.649 17.2423 170.617 17.5326Z" fill="#FAF9FB"/>
<path d="M140.297 54.5765C141.396 53.8593 142.448 53.1421 143.261 52.2337C143.644 51.1339 144.026 50.0821 144.361 48.9823C144.982 46.8785 145.604 45.0138 144.791 42.9578C143.787 40.4237 142.735 37.5071 146.13 36.3117C147.564 35.7858 148.425 36.1205 149.572 35.0207C150.863 33.7776 151.15 33.2995 153.158 33.0604C155.119 32.7735 155.788 32.0085 157.366 30.9566C159.374 29.6656 162.769 29.6656 164.777 31.0522C169.702 34.3992 168.363 43.1969 177.543 45.4919C179.934 46.0657 183.281 47.2611 182.66 50.0342C181.847 53.6203 185.481 56.1544 184.094 59.6448C182.277 64.0914 185.767 66.8168 188.493 69.9725C191.17 73.0326 191.84 78.579 190.453 82.3085C186.58 92.5884 174.483 92.684 165.494 90.1977C164.777 90.389 164.012 90.5324 163.391 90.6758C161.239 91.2496 151.198 90.628 149.047 90.0064C144.6 88.7155 140.823 84.5557 140.201 79.8699C140.105 79.344 140.105 78.7702 140.153 78.1965C139.914 78.1008 139.723 78.0052 139.532 77.9096C134.081 75.5667 129.299 68.1078 131.164 62.0833C132.407 58.1147 137.093 56.7282 140.297 54.5765Z" fill="#383639"/>
<path d="M133.411 51.5169C133.555 50.4172 135.085 49.7956 135.133 48.5525C135.181 47.8353 135.133 47.0702 135.133 46.4009C135.133 45.5402 135.706 45.7793 135.946 46.114C136.615 47.1659 136.28 48.9828 136.28 49.8912C136.471 49.6044 137.523 44.9664 137.619 44.4883C137.667 44.1536 137.762 43.9624 138.097 44.1058C138.575 44.3927 138.623 45.1099 138.623 45.5402C138.671 46.1618 137.762 49.6522 137.762 49.8912C138.049 49.4609 139.245 46.1618 139.627 45.1099C140.153 43.5798 140.392 43.7233 140.392 43.7233C141.301 43.9624 141.444 44.8708 141.014 45.9706C140.583 47.1181 139.627 49.3653 139.245 50.465C139.532 50.0825 141.109 47.4049 141.779 47.1181C142.448 46.7834 143.165 46.879 143.691 47.5962C144.313 48.4568 143.596 49.1263 143.787 50.0347C143.835 50.3694 143.978 50.7519 143.5 50.8475C143.07 50.9431 142.735 50.7041 142.639 50.2738C142.448 49.7 142.878 48.3134 142.257 49.0306C142.066 49.2697 141.396 50.4172 141.253 50.7041C140.966 51.3257 140.392 52.3776 139.818 53.5251C140.488 53.4295 142.018 51.23 143.644 52.521C144.026 52.8557 142.448 53.6685 142.448 53.6685C142.448 53.6685 140.918 54.3379 140.679 55.3898C140.392 56.4417 139.101 57.6371 136.28 57.398C135.037 57.3024 130.064 61.8447 130.064 61.8447L127.004 58.928C127.004 59.0237 132.981 54.4814 133.411 51.5169Z" fill="#F4B0AA"/>
<path d="M133.266 48.8016L149.31 51.1162L148.982 53.3879L132.939 51.0732L133.266 48.8016Z" fill="#E54FC4"/>
<path d="M141.779 51.7079C142.066 51.7079 142.353 51.4689 142.401 51.182C142.448 50.8473 142.209 50.5604 141.875 50.5126L120.741 47.835C120.119 47.7394 119.737 47.2613 119.45 46.8788C118.924 46.1137 118.685 45.014 118.924 44.249C119.115 43.4362 120.167 42.6711 121.363 42.4799C121.793 42.3843 122.893 42.2887 123.466 43.1015C123.897 43.7231 123.419 44.6793 122.701 45.2531C122.51 45.3965 121.506 46.1137 120.884 45.3965C120.598 45.1097 120.502 44.8228 120.645 44.6315C120.837 44.3446 121.315 44.2012 121.602 44.249C121.649 44.249 121.745 44.2968 121.745 44.4881C121.745 44.8228 121.984 45.1096 122.319 45.1096C122.653 45.1096 122.94 44.8706 122.94 44.5359C122.94 43.8187 122.606 43.2927 121.936 43.1015C121.123 42.8624 120.072 43.2449 119.593 44.0099C119.402 44.3446 119.02 45.2053 119.976 46.2572C120.837 47.2135 122.271 47.1657 123.466 46.2094C124.614 45.3009 125.331 43.6753 124.47 42.3843C123.801 41.428 122.558 40.9977 121.171 41.2368C119.498 41.5236 118.111 42.6233 117.777 43.9143C117.49 45.014 117.777 46.4963 118.494 47.5482C119.02 48.361 119.785 48.8869 120.598 49.0304L141.731 51.7079H141.779Z" fill="#E54FC4"/>
<path d="M160.33 61.6514C160.33 61.6514 183.711 62.7033 188.732 74.7524C193.752 86.8014 198.486 129.547 198.486 129.547H123.562L132.599 74.2742C132.646 74.2742 135.181 60.4561 160.33 61.6514Z" fill="#D26E6C"/>
<path d="M174.627 129.547L175.248 64.4727C175.248 64.4727 188.493 65.668 196.143 78.3864C203.267 90.292 230.234 102.485 225.74 122.614C225.74 122.614 222.44 129.595 198.534 129.595H174.627V129.547Z" fill="url(#paint0_linear)"/>
<path d="M212.208 103.871C212.208 103.871 206.901 102.819 201.259 104.684C195.617 106.501 186.15 106.979 186.15 106.979" fill="url(#paint1_linear)"/>
<path d="M212.208 103.871C212.208 103.871 206.901 102.819 201.259 104.684C195.617 106.501 186.15 106.979 186.15 106.979" stroke="#453A76" stroke-miterlimit="10" stroke-linecap="round" stroke-linejoin="round"/>
<path d="M137.045 129.547L142.305 64.2331C142.305 64.2331 134.463 65.811 127.674 73.7002C122.127 80.1551 119.306 81.0157 119.306 81.0157L133.555 60.1689L128.343 56.4873C128.343 56.4873 79.0952 77.1906 92.9611 105.305C92.9611 105.305 101.52 109.895 119.498 106.309L115.434 129.547H137.045Z" fill="url(#paint2_linear)"/>
<path d="M120.071 80.6807L114.429 88.1874" stroke="#453A76" stroke-miterlimit="10" stroke-linecap="round" stroke-linejoin="round"/>
<path d="M152.585 59.5977V48.5049H159.374C159.374 48.5049 161 55.1988 162.626 60.3627C162.912 61.2711 163.678 61.9405 164.634 62.0361C166.881 62.323 169.798 62.849 172.858 63.7096C172.475 67.726 165.781 70.9295 157.557 70.9295C149.668 70.9295 143.213 68.0128 142.305 64.2356C144.504 63.2793 147.23 62.4665 150.529 61.9883C151.676 61.8449 152.585 60.8408 152.585 59.5977Z" fill="#F4B0AA"/>
<path d="M151.629 61.558C152.202 61.1277 152.585 60.4105 152.585 59.5977V48.5049H159.374C159.374 48.5049 159.709 58.3067 151.629 61.558Z" fill="#DB8D89"/>
<path d="M148.76 49.3177C148.521 49.2699 148.234 49.222 148.042 49.1742C147.23 48.9352 147.899 48.3614 148.329 47.9311C148.521 47.7398 148.76 47.5007 148.951 47.2617C149.094 44.5363 148.903 42.4803 148.903 42.4803C148.855 39.4681 152.346 38.6074 152.346 38.6074C154.402 39.5637 154.306 43.8191 156.027 45.5882C157.796 47.3573 160.809 45.8273 160.809 45.8273C162.195 48.7439 159.566 49.0786 159.566 49.0786L158.561 52.7124C156.314 59.2151 146.369 58.3544 147.947 53.2384C148.329 51.8996 148.568 50.6087 148.76 49.3177Z" fill="#F4B0AA"/>
<path d="M168.746 119.222L176.874 118.743L178.117 98.1836L165.112 98.9964L168.746 119.222Z" fill="#F9824C"/>
<path d="M165.112 98.9961C165.255 101.148 168.268 102.726 171.854 102.487C175.44 102.295 178.261 100.335 178.117 98.1833C177.974 96.0317 174.961 94.4538 171.375 94.6929C167.789 94.8842 165.016 96.8445 165.112 98.9961Z" fill="#872357"/>
<path d="M171.567 97.7517C174.244 97.6082 176.635 98.4211 177.687 99.7599C176.778 101.194 174.531 102.342 171.854 102.485C169.176 102.629 166.785 101.816 165.733 100.477C166.642 98.9948 168.889 97.8951 171.567 97.7517Z" fill="#6EA296"/>
<path d="M186.15 106.982C186.15 106.982 181.225 106.6 181.034 105.596C180.556 102.966 177.83 102.727 177.83 102.727C177.687 104.305 176.587 104.783 176.587 104.783L166.164 104.066C166.164 104.066 163.582 104.161 165.638 106.552C166.642 107.7 167.79 110.808 167.12 113.055C167.12 113.055 165.255 115.541 168.363 115.924L177.735 116.115C181.464 116.115 186.198 115.445 186.198 115.445V106.982H186.15Z" fill="#F4B0AA"/>
<path d="M169.989 107.174L165.495 106.791" stroke="#DB8D89" stroke-miterlimit="10" stroke-linecap="round" stroke-linejoin="round"/>
<path d="M170.228 110.042L166.642 109.755" stroke="#DB8D89" stroke-miterlimit="10" stroke-linecap="round" stroke-linejoin="round"/>
<path d="M170.228 113.054L166.977 112.768" stroke="#DB8D89" stroke-miterlimit="10" stroke-linecap="round" stroke-linejoin="round"/>
<path d="M244.277 74.6314C242.135 74.6314 240.057 74.1555 238.106 73.2354C237.646 73.0134 237.186 72.7595 236.742 72.4899C236.25 72.3154 235.758 72.1092 235.298 71.9029C231.84 70.2532 229.239 67.3661 227.97 63.7494C226.701 60.1485 226.891 56.2462 228.541 52.8039C230.904 47.8547 235.98 44.6504 241.485 44.6504C243.626 44.6504 245.704 45.1263 247.655 46.0463C248.115 46.2684 248.576 46.5222 249.02 46.7919C249.511 46.9664 250.003 47.1726 250.463 47.3788C257.586 50.7894 260.631 59.3553 257.221 66.4778C254.841 71.4271 249.765 74.6314 244.277 74.6314Z" fill="#EB984E"/>
<path d="M241.485 45.269C243.468 45.269 245.466 45.6973 247.37 46.6015C247.846 46.8236 248.306 47.0774 248.734 47.3471C249.226 47.5216 249.702 47.7119 250.178 47.934C256.999 51.1859 259.902 59.3712 256.634 66.1923C254.286 71.1098 249.384 73.9968 244.261 73.9968C242.278 73.9968 240.279 73.5685 238.376 72.6644C237.9 72.4423 237.44 72.1885 237.011 71.9188C236.52 71.7443 236.044 71.5539 235.568 71.3319C228.747 68.08 225.844 59.8947 229.112 53.0736C231.459 48.1402 236.377 45.269 241.485 45.269ZM241.485 44C238.693 44 235.98 44.7773 233.601 46.2367C231.158 47.7437 229.223 49.9169 227.97 52.5184C226.24 56.1193 226.034 60.1802 227.367 63.9556C228.699 67.7151 231.412 70.7449 235.029 72.474C235.489 72.6961 235.98 72.9023 236.472 73.0768C236.916 73.3465 237.376 73.6003 237.836 73.8223C239.867 74.79 242.04 75.2817 244.277 75.2817C247.069 75.2817 249.781 74.5045 252.161 73.0451C254.603 71.5381 256.539 69.3649 257.792 66.7633C261.345 59.3236 258.188 50.3769 250.733 46.8236C250.273 46.6015 249.781 46.3953 249.289 46.2208C248.845 45.9511 248.385 45.6973 247.925 45.4753C245.879 44.4918 243.721 44 241.485 44Z" fill="#6D4C41"/>
<path d="M244.293 74.0127C251.862 74.0127 257.998 67.8765 257.998 60.3072C257.998 52.7378 251.862 46.6016 244.293 46.6016C236.723 46.6016 230.587 52.7378 230.587 60.3072C230.587 67.8765 236.723 74.0127 244.293 74.0127Z" fill="#BF7334"/>
<path d="M241.469 72.6651C249.038 72.6651 255.174 66.5289 255.174 58.9595C255.174 51.3901 249.038 45.2539 241.469 45.2539C233.899 45.2539 227.763 51.3901 227.763 58.9595C227.763 66.5289 233.899 72.6651 241.469 72.6651Z" fill="#F9D52F"/>
<path d="M252.208 55.1352C251.225 52.3909 249.21 50.0273 246.371 48.6631C240.803 45.9981 234.156 48.2665 231.332 53.7075L241.231 59.0057L252.208 55.1352Z" fill="#DD7007"/>
<path d="M251.463 64.478C251.574 64.2877 251.669 64.0815 251.764 63.8753C253.128 61.0199 253.192 57.8949 252.208 55.1348L241.247 59.0053L251.463 64.478Z" fill="#FDA420"/>
<path d="M231.348 53.7236C231.285 53.8347 231.237 53.9457 231.19 54.0568C229.841 56.8962 229.762 60.0054 230.73 62.7497L241.263 59.0219L231.348 53.7236Z" fill="#F6A819"/>
<path d="M241.247 59.0215L230.714 62.7493C231.681 65.5094 233.712 67.9047 236.551 69.2531C242.024 71.8705 248.56 69.729 251.447 64.4783L241.247 59.0215Z" fill="#F9EFC3"/>
<path d="M241.469 69.1907C247.12 69.1907 251.701 64.6099 251.701 58.9591C251.701 53.3084 247.12 48.7275 241.469 48.7275C235.818 48.7275 231.237 53.3084 231.237 58.9591C231.237 64.6099 235.818 69.1907 241.469 69.1907Z" fill="#F3C030"/>
<path d="M245.784 62.2743C245.752 61.7826 245.593 61.3384 245.308 60.9418C245.117 60.6722 244.8 60.339 244.356 59.9742C244.895 60.0376 245.371 60.0218 245.768 59.9107C246.164 59.7997 246.513 59.6252 246.815 59.3873C247.116 59.1493 247.354 58.8479 247.529 58.4989C247.766 58.023 247.83 57.4996 247.735 56.9602C247.64 56.4209 247.386 55.9133 246.957 55.4532C246.799 55.2788 246.577 55.0884 246.339 54.9139L247.243 53.0262L245.435 52.1696L244.594 53.9304L243.436 53.3752L244.277 51.6144L242.468 50.7578L241.628 52.5186L238.867 51.202L238.169 52.6772L238.582 52.8676C238.867 52.9945 239.042 53.1214 239.121 53.2166C239.201 53.3117 239.232 53.4228 239.232 53.518C239.232 53.629 239.153 53.8352 239.01 54.1525L236.171 60.1011C236.028 60.4184 235.917 60.5928 235.822 60.6722C235.742 60.7356 235.631 60.7832 235.504 60.7832C235.378 60.7832 235.187 60.7197 234.902 60.577L234.489 60.3866L233.791 61.8619L236.551 63.1785L235.711 64.9393L237.519 65.7959L238.36 64.0351L239.518 64.5903L238.677 66.3511L240.485 67.2077L241.39 65.3041C241.723 65.3993 242.024 65.4469 242.294 65.4628C243.039 65.5104 243.69 65.3835 244.261 65.0662C244.832 64.7489 245.244 64.3206 245.514 63.7496C245.736 63.242 245.831 62.7661 245.784 62.2743ZM241.961 54.7553L243.135 55.3105C243.817 55.6436 244.277 55.9133 244.499 56.1195C244.721 56.3257 244.864 56.5637 244.895 56.8333C244.943 57.103 244.895 57.3727 244.753 57.6582C244.626 57.9279 244.435 58.1341 244.197 58.261C243.944 58.3879 243.658 58.4513 243.309 58.4038C242.96 58.372 242.484 58.1975 241.881 57.912L240.707 57.3568L241.961 54.7553ZM242.103 62.9247C241.77 63.0833 241.437 63.1468 241.088 63.0833C240.755 63.0199 240.358 62.893 239.914 62.6709L239.137 62.306C238.883 62.1791 238.725 62.0998 238.677 62.0364C238.629 61.9888 238.614 61.9095 238.614 61.8302C238.629 61.7667 238.709 61.5605 238.852 61.2274L239.946 58.9272L241.326 59.5935C241.929 59.879 242.357 60.1487 242.595 60.4025C242.833 60.6563 242.976 60.926 243.023 61.2115C243.071 61.497 243.023 61.7984 242.865 62.1157C242.706 62.4964 242.452 62.7502 242.103 62.9247Z" fill="#F8951E"/>
<path d="M241.509 54.5471L240.265 57.1523L240.709 57.3642L241.953 54.7589L241.509 54.5471Z" fill="#FFEEAA"/>
<path d="M238.693 62.0351C238.645 61.9875 238.629 61.9082 238.629 61.8289C238.645 61.7654 238.725 61.5592 238.867 61.2261L239.962 58.9259L239.518 58.7197L238.423 61.0199C238.265 61.353 238.201 61.5433 238.185 61.6226C238.185 61.702 238.201 61.7813 238.249 61.8289C238.296 61.8923 238.439 61.9716 238.709 62.0985L239.153 62.3048C238.883 62.1779 238.725 62.0827 238.693 62.0351Z" fill="#FFEEAA"/>
<path d="M245.784 62.2746C245.752 61.7829 245.593 61.3387 245.308 60.9421C245.117 60.6725 244.8 60.3394 244.356 59.9745C244.895 60.038 245.371 60.0221 245.768 59.9111C246.164 59.8 246.513 59.6255 246.815 59.3876C247.116 59.1496 247.354 58.8482 247.529 58.4992C247.766 58.0234 247.83 57.4999 247.735 56.9605C247.64 56.4212 247.386 55.9136 246.957 55.4536C246.799 55.2791 246.577 55.0887 246.339 54.9142L247.243 53.0265L246.799 52.8203L245.895 54.708C246.133 54.8825 246.355 55.0729 246.513 55.2473C246.942 55.7074 247.195 56.215 247.291 56.7543C247.386 57.2937 247.306 57.8171 247.084 58.293C246.91 58.642 246.688 58.9434 246.371 59.1814C246.069 59.4193 245.72 59.5938 245.324 59.7048C244.927 59.8159 244.451 59.8317 243.912 59.7683C244.356 60.1331 244.673 60.4504 244.864 60.7359C245.149 61.1325 245.308 61.5767 245.339 62.0684C245.387 62.5602 245.292 63.0361 245.07 63.5119C244.8 64.083 244.388 64.5113 243.817 64.8286C243.246 65.1458 242.595 65.2727 241.85 65.2251C241.58 65.2093 241.279 65.1617 240.945 65.0665L240.041 66.9701L240.485 67.1763L241.39 65.2727C241.723 65.3679 242.024 65.4155 242.294 65.4314C243.039 65.4789 243.69 65.352 244.261 65.0348C244.832 64.7175 245.244 64.2892 245.514 63.7182C245.736 63.2423 245.831 62.7664 245.784 62.2746Z" fill="#FFEEAA"/>
<path d="M243.832 51.3955L242.992 53.1562L243.436 53.3681L244.276 51.6074L243.832 51.3955Z" fill="#FFEEAA"/>
<path d="M237.911 63.7959L237.07 65.5566L237.514 65.7685L238.355 64.0078L237.911 63.7959Z" fill="#FFEEAA"/>
<path d="M241.104 63.0836C240.771 63.0201 240.374 62.8932 239.93 62.6712L240.565 62.9726C241.025 63.1946 241.405 63.3215 241.739 63.385C242.072 63.4484 242.405 63.385 242.754 63.2264C243.087 63.0519 243.341 62.7981 243.531 62.4174C243.69 62.1001 243.737 61.7987 243.69 61.5132C243.658 61.2276 243.499 60.958 243.261 60.7042C243.023 60.4503 242.595 60.1807 241.992 59.8951L241.358 59.5938C241.961 59.8793 242.389 60.149 242.627 60.4028C242.865 60.6566 243.008 60.9262 243.055 61.2118C243.103 61.4973 243.055 61.7987 242.897 62.116C242.722 62.4808 242.468 62.7505 242.119 62.925C241.77 63.0836 241.437 63.1471 241.104 63.0836Z" fill="#D87A02"/>
<path d="M243.119 55.3262C243.801 55.6593 244.261 55.929 244.483 56.1352C244.705 56.3414 244.848 56.5793 244.879 56.849C244.927 57.1187 244.879 57.3884 244.737 57.6739C244.61 57.9436 244.419 58.1498 244.181 58.2767C243.928 58.4036 243.642 58.467 243.293 58.4194C242.944 58.3877 242.468 58.2132 241.865 57.9277L242.5 58.2291C243.103 58.5146 243.595 58.6891 243.928 58.7208C244.277 58.7684 244.562 58.705 244.816 58.5781C245.054 58.4353 245.244 58.245 245.371 57.9753C245.498 57.7056 245.546 57.4201 245.514 57.1504C245.466 56.8807 245.324 56.6428 245.117 56.4366C244.895 56.2304 244.435 55.9607 243.753 55.6276L243.119 55.3262Z" fill="#D87A02"/>
<path d="M242.467 50.7491L241.626 52.5098L242.256 52.8105L243.096 51.0497L242.467 50.7491Z" fill="#D87A02"/>
<path d="M245.429 52.1602L244.588 53.9209L245.218 54.2216L246.058 52.4609L245.429 52.1602Z" fill="#D87A02"/>
<path d="M239.507 64.5586L238.666 66.3193L239.296 66.62L240.137 64.8593L239.507 64.5586Z" fill="#D87A02"/>
<path d="M236.545 63.1494L235.704 64.9102L236.334 65.2108L237.175 63.4501L236.545 63.1494Z" fill="#D87A02"/>
<path d="M235.552 60.8629C235.838 60.9898 236.044 61.0691 236.155 61.0691C236.282 61.0691 236.377 61.0216 236.472 60.9581C236.551 60.8946 236.662 60.7043 236.821 60.387L239.661 54.4384C239.803 54.1212 239.883 53.915 239.883 53.8039C239.883 53.6929 239.851 53.5977 239.772 53.5025C239.692 53.4073 239.518 53.2963 239.232 53.1535L238.82 52.9632L239.518 51.4879L238.883 51.1865L238.185 52.6618L238.598 52.8521C238.883 52.979 239.058 53.1059 239.137 53.2011C239.216 53.2963 239.248 53.4073 239.248 53.5025C239.248 53.6136 239.169 53.8198 239.026 54.137L236.187 60.0856C236.044 60.4029 235.933 60.5774 235.838 60.6567C235.758 60.7202 235.647 60.7677 235.52 60.7677C235.393 60.7677 235.203 60.7043 234.918 60.5615L234.505 60.3712L233.807 61.8464L234.442 62.1478L235.14 60.6726L235.552 60.8629Z" fill="#D87A02"/>
<path d="M74.9088 131.528C69.9556 131.528 65.3883 128.641 63.2477 124.173C60.1862 117.752 62.9117 110.036 69.3334 106.962C69.7565 106.763 70.1921 106.576 70.6401 106.427C71.0383 106.178 71.4615 105.954 71.8846 105.755C73.6394 104.921 75.5061 104.498 77.4351 104.498C82.3883 104.498 86.9556 107.385 89.0962 111.853C92.1577 118.274 89.4322 125.99 83.0105 129.064C82.5874 129.263 82.1518 129.45 81.7038 129.599C81.3055 129.848 80.8824 130.072 80.4593 130.271C78.717 131.105 76.8378 131.528 74.9088 131.528Z" fill="#EB984E"/>
<path d="M77.4476 104.983C82.0772 104.983 86.5325 107.584 88.6606 112.052C91.6101 118.237 88.9966 125.654 82.8114 128.604C82.3758 128.816 81.9403 128.99 81.5047 129.139C81.1064 129.388 80.6957 129.612 80.2602 129.824C78.5303 130.645 76.7133 131.043 74.9212 131.043C70.2916 131.043 65.8363 128.442 63.7082 123.974C60.7587 117.789 63.3722 110.372 69.5574 107.422C69.9929 107.211 70.4285 107.037 70.8641 106.887C71.2624 106.638 71.673 106.414 72.1086 106.203C73.826 105.381 75.6555 104.983 77.4476 104.983ZM77.4476 104C75.4439 104 73.5025 104.436 71.6855 105.307C71.2624 105.506 70.8517 105.73 70.441 105.979C69.9929 106.141 69.5574 106.315 69.1342 106.514C65.8985 108.057 63.4717 110.77 62.277 114.143C61.0823 117.515 61.2689 121.162 62.8121 124.385C63.9197 126.712 65.6621 128.654 67.8524 130.01C69.9805 131.329 72.4197 132.014 74.9212 132.014C76.9249 132.014 78.8663 131.578 80.6833 130.707C81.1064 130.508 81.5171 130.284 81.9278 130.035C82.3758 129.873 82.8114 129.699 83.2345 129.5C89.9051 126.314 92.7426 118.299 89.5567 111.629C88.449 109.302 86.7067 107.36 84.5164 106.004C82.3758 104.697 79.9366 104 77.4476 104Z" fill="#6D4C41"/>
<path d="M74.9087 131.031C81.7614 131.031 87.3165 125.476 87.3165 118.623C87.3165 111.77 81.7614 106.215 74.9087 106.215C68.0561 106.215 62.501 111.77 62.501 118.623C62.501 125.476 68.0561 131.031 74.9087 131.031Z" fill="#BF7334"/>
<path d="M77.4476 129.811C84.3002 129.811 89.8553 124.256 89.8553 117.403C89.8553 110.551 84.3002 104.996 77.4476 104.996C70.5949 104.996 65.0398 110.551 65.0398 117.403C65.0398 124.256 70.5949 129.811 77.4476 129.811Z" fill="#F9D52F"/>
<path d="M67.6035 120.54C66.807 118.026 66.9564 115.213 68.2631 112.674C70.8268 107.696 76.8627 105.68 81.878 108.07L77.6467 117.329L67.6035 120.54Z" fill="#DD7007"/>
<path d="M73.2785 126.862C73.0918 126.775 72.9051 126.688 72.7309 126.601C70.1921 125.294 68.4125 123.079 67.616 120.54L77.6467 117.329L73.2785 126.862Z" fill="#FDA420"/>
<path d="M81.8781 108.07C81.9776 108.12 82.0772 108.169 82.1767 108.219C84.7031 109.526 86.4703 111.729 87.2792 114.23L77.6343 117.317L81.8781 108.07Z" fill="#F6A819"/>
<path d="M77.6342 117.329L87.2792 114.243C88.0881 116.769 87.9388 119.607 86.632 122.145C84.1181 127.036 78.2316 129.065 73.266 126.874L77.6342 117.329Z" fill="#F9EFC3"/>
<path d="M77.4476 126.687C82.575 126.687 86.7316 122.531 86.7316 117.403C86.7316 112.276 82.575 108.119 77.4476 108.119C72.3201 108.119 68.1635 112.276 68.1635 117.403C68.1635 122.531 72.3201 126.687 77.4476 126.687Z" fill="#F3C030"/>
<path d="M81.99 114.155C82.0273 113.707 81.9402 113.271 81.7411 112.848C81.4922 112.338 81.1189 111.94 80.5962 111.653C80.0859 111.367 79.4885 111.243 78.8165 111.292C78.5676 111.305 78.2938 111.355 77.9951 111.429L77.1738 109.712L75.5434 110.496L76.3026 112.089L75.2572 112.587L74.4981 110.994L72.8677 111.778L73.6269 113.371L71.1379 114.566L71.7726 115.897L72.1459 115.723C72.4073 115.598 72.5815 115.536 72.6935 115.536C72.8055 115.536 72.9051 115.574 72.9798 115.636C73.0544 115.698 73.154 115.872 73.2909 116.146L75.867 121.535C76.0039 121.821 76.0786 122.008 76.0661 122.107C76.0661 122.207 76.0288 122.294 75.9666 122.393C75.9044 122.481 75.7426 122.593 75.4812 122.705L75.1079 122.879L75.7426 124.21L78.2316 123.016L78.9907 124.609L80.6211 123.825L79.8619 122.232L80.9197 121.734L81.6789 123.327L83.3092 122.543L82.5003 120.838C82.7243 120.676 82.9109 120.514 83.0603 120.352C83.4461 119.929 83.6825 119.469 83.7697 118.984C83.8568 118.486 83.7946 118.025 83.583 117.59C83.4336 117.266 83.2221 117.005 82.9358 116.781C82.662 116.557 82.3509 116.395 81.99 116.308C81.6291 116.208 81.206 116.196 80.7082 116.246C81.1064 115.922 81.3926 115.623 81.5669 115.374C81.8158 115.001 81.9527 114.603 81.99 114.155ZM77.3978 118.61L78.4556 118.1C79.0032 117.839 79.4388 117.689 79.7499 117.652C80.061 117.615 80.3224 117.664 80.5464 117.776C80.7704 117.901 80.9322 118.087 81.0566 118.324C81.1811 118.573 81.2184 118.822 81.1811 119.071C81.1437 119.307 81.0193 119.531 80.8202 119.718C80.621 119.904 80.1979 120.153 79.5881 120.452L78.5303 120.962L77.3978 118.61ZM78.6547 113.57C78.9658 113.719 79.1899 113.968 79.3516 114.304C79.4885 114.59 79.5383 114.864 79.4885 115.126C79.4512 115.387 79.3268 115.636 79.1027 115.86C78.8787 116.096 78.5054 116.333 77.9578 116.594L76.7133 117.191L75.7177 115.101C75.5808 114.802 75.5061 114.628 75.4937 114.566C75.4937 114.491 75.5061 114.429 75.5434 114.379C75.5808 114.329 75.7177 114.242 75.9541 114.13L76.6635 113.794C77.0742 113.595 77.4351 113.47 77.7338 113.421C78.0449 113.371 78.356 113.421 78.6547 113.57Z" fill="#F8951E"/>
<path d="M77.3942 118.603L76.9899 118.796L78.1158 121.155L78.5201 120.962L77.3942 118.603Z" fill="#FFEEAA"/>
<path d="M75.5559 114.379C75.5062 114.429 75.4937 114.491 75.5062 114.565C75.5186 114.628 75.5808 114.802 75.7302 115.101L76.7258 117.191L76.3275 117.378L75.3319 115.287C75.195 114.989 75.1204 114.814 75.1079 114.752C75.1079 114.677 75.1204 114.615 75.1577 114.565C75.195 114.516 75.3319 114.429 75.5684 114.317L75.9666 114.13C75.7302 114.242 75.5933 114.329 75.5559 114.379Z" fill="#FFEEAA"/>
<path d="M81.99 114.155C81.9527 114.603 81.8158 115.001 81.5544 115.362C81.3802 115.611 81.094 115.91 80.6957 116.233C81.1811 116.171 81.6042 116.196 81.9776 116.296C82.3385 116.395 82.6621 116.557 82.9234 116.769C83.1972 116.993 83.4212 117.254 83.5705 117.577C83.7821 118.013 83.8443 118.486 83.7572 118.971C83.6701 119.469 83.4336 119.917 83.0478 120.34C82.8985 120.502 82.6994 120.664 82.4878 120.826L83.2968 122.531L82.8985 122.717L82.0896 121.012C82.3136 120.851 82.5003 120.689 82.6496 120.527C83.0354 120.104 83.2719 119.643 83.359 119.158C83.4461 118.66 83.3839 118.2 83.1723 117.764C83.023 117.441 82.8114 117.179 82.5252 116.955C82.2514 116.731 81.9402 116.569 81.5793 116.482C81.2184 116.383 80.7953 116.37 80.2975 116.42C80.6957 116.096 80.982 115.798 81.1562 115.549C81.4175 115.188 81.5544 114.79 81.5918 114.342C81.6291 113.894 81.542 113.458 81.3429 113.035C81.094 112.525 80.7206 112.127 80.1979 111.84C79.6877 111.554 79.0903 111.43 78.4183 111.479C78.1694 111.492 77.8956 111.542 77.5969 111.616L76.7755 109.886L77.1738 109.7L77.9951 111.43C78.2938 111.355 78.5676 111.305 78.8165 111.293C79.4885 111.255 80.0859 111.367 80.5962 111.654C81.1189 111.94 81.4922 112.338 81.7411 112.848C81.9402 113.271 82.0274 113.707 81.99 114.155Z" fill="#FFEEAA"/>
<path d="M79.8561 122.235L79.4518 122.428L80.2131 124.022L80.6174 123.829L79.8561 122.235Z" fill="#FFEEAA"/>
<path d="M74.4944 110.995L74.0901 111.188L74.8515 112.783L75.2558 112.59L74.4944 110.995Z" fill="#FFEEAA"/>
<path d="M77.7462 113.421C77.4476 113.471 77.0867 113.595 76.676 113.794L77.2484 113.52C77.6591 113.321 78.02 113.197 78.3187 113.147C78.6298 113.097 78.9285 113.147 79.2397 113.296C79.5508 113.446 79.7748 113.695 79.9366 114.031C80.0735 114.317 80.1233 114.591 80.0735 114.852C80.0361 115.113 79.9117 115.362 79.6877 115.586C79.4637 115.823 79.0903 116.059 78.5427 116.321L77.9703 116.594C78.5178 116.333 78.9036 116.084 79.1152 115.86C79.3392 115.636 79.4637 115.387 79.501 115.126C79.5383 114.865 79.501 114.591 79.3641 114.304C79.2023 113.968 78.9659 113.732 78.6672 113.57C78.3561 113.421 78.0449 113.371 77.7462 113.421Z" fill="#D87A02"/>
<path d="M79.5757 120.465C80.1979 120.166 80.6086 119.929 80.8077 119.73C81.0069 119.544 81.1313 119.332 81.1687 119.083C81.206 118.847 81.1687 118.598 81.0442 118.337C80.9322 118.088 80.758 117.913 80.534 117.789C80.3099 117.664 80.0486 117.627 79.7375 117.664C79.4263 117.702 78.9908 117.839 78.4432 118.112L79.0156 117.839C79.5632 117.577 79.9988 117.428 80.3099 117.391C80.6211 117.353 80.8824 117.403 81.1064 117.515C81.3304 117.64 81.4922 117.826 81.6167 118.063C81.7411 118.312 81.7785 118.561 81.7411 118.809C81.7038 119.046 81.5793 119.27 81.3802 119.457C81.1811 119.643 80.758 119.892 80.1482 120.191L79.5757 120.465Z" fill="#D87A02"/>
<path d="M78.7899 122.745L78.2171 123.018L78.9784 124.613L79.5512 124.339L78.7899 122.745Z" fill="#D87A02"/>
<path d="M81.478 121.461L80.9052 121.735L81.6665 123.33L82.2393 123.056L81.478 121.461Z" fill="#D87A02"/>
<path d="M76.1157 110.221L75.543 110.495L76.3043 112.089L76.877 111.816L76.1157 110.221Z" fill="#D87A02"/>
<path d="M73.4282 111.504L72.8555 111.778L73.6168 113.373L74.1895 113.099L73.4282 111.504Z" fill="#D87A02"/>
<path d="M72.706 115.437C72.9673 115.313 73.1415 115.251 73.2535 115.251C73.3655 115.251 73.4651 115.288 73.5398 115.35C73.6144 115.412 73.714 115.587 73.8509 115.86L76.427 121.249C76.5639 121.535 76.6386 121.722 76.6262 121.822C76.6262 121.921 76.5888 122.008 76.5266 122.108C76.4644 122.195 76.3026 122.307 76.0412 122.419L75.6679 122.593L76.3026 123.925L75.7301 124.199L75.0954 122.867L75.4688 122.693C75.7301 122.568 75.8919 122.469 75.9541 122.382C76.0164 122.294 76.0537 122.195 76.0537 122.095C76.0537 121.996 75.979 121.809 75.8546 121.523L73.2784 116.134C73.1415 115.848 73.042 115.686 72.9673 115.624C72.8926 115.562 72.7931 115.524 72.6811 115.524C72.5691 115.524 72.3948 115.587 72.1335 115.711L71.7601 115.885L71.1254 114.554L71.6979 114.28L72.3326 115.611L72.706 115.437Z" fill="#D87A02"/>
<circle cx="263.5" cy="99" r="4" fill="#F9BE75"/>
<circle cx="31.5" cy="48" r="3" fill="#F9BE75"/>
<circle cx="281.5" cy="133" r="3" fill="#F9BE75"/>
<circle cx="287.5" cy="27" r="3" fill="#F9BE75"/>
<circle cx="72.5" cy="27" r="3" fill="#F9BE75"/>
<circle cx="86.5" cy="65" r="4" fill="#F9BE75"/>
<path d="M43.5588 83.6217C43.8757 82.7389 45.1243 82.7389 45.4412 83.6217L46.5054 86.586C46.5673 86.7586 46.6756 86.9108 46.8182 87.026L49.5369 89.2221C50.0324 89.6223 50.0325 90.3777 49.5369 90.7779L46.8182 92.974C46.6756 93.0892 46.5673 93.2414 46.5054 93.414L45.4412 96.3783C45.1243 97.2611 43.8757 97.2611 43.5588 96.3783L42.4946 93.414C42.4327 93.2414 42.3244 93.0892 42.1818 92.974L39.4631 90.7779C38.9676 90.3777 38.9675 89.6223 39.4631 89.2221L42.1818 87.026C42.3244 86.9108 42.4327 86.7586 42.4946 86.586L43.5588 83.6217Z" fill="#FAF9FB"/>
<path d="M261.045 15.0689C261.337 14.1316 262.663 14.1316 262.955 15.0689L264.553 20.206C264.634 20.4668 264.819 20.6831 265.063 20.8046L269.696 23.1043C270.436 23.4719 270.436 24.5281 269.696 24.8957L265.063 27.1954C264.819 27.3169 264.634 27.5332 264.553 27.794L262.955 32.9311C262.663 33.8684 261.337 33.8684 261.045 32.9311L259.447 27.794C259.366 27.5332 259.181 27.3169 258.937 27.1954L254.304 24.8957C253.564 24.5281 253.564 23.4719 254.304 23.1043L258.937 20.8046C259.181 20.6831 259.366 20.4668 259.447 20.206L261.045 15.0689Z" fill="#FAF9FB"/>
<defs>
<linearGradient id="paint0_linear" x1="200.434" y1="64.4727" x2="200.434" y2="129.595" gradientUnits="userSpaceOnUse">
<stop stop-color="#F27ACD"/>
<stop offset="0.520833" stop-color="#DCD599"/>
<stop offset="1" stop-color="#74DEE4"/>
</linearGradient>
<linearGradient id="paint1_linear" x1="199.179" y1="103.576" x2="199.179" y2="106.979" gradientUnits="userSpaceOnUse">
<stop stop-color="#F27ACD"/>
<stop offset="0.520833" stop-color="#DCD599"/>
<stop offset="1" stop-color="#74DEE4"/>
</linearGradient>
<linearGradient id="paint2_linear" x1="116.402" y1="56.4873" x2="116.402" y2="129.547" gradientUnits="userSpaceOnUse">
<stop stop-color="#F27ACD"/>
<stop offset="0.520833" stop-color="#DCD599"/>
<stop offset="1" stop-color="#74DEE4"/>
</linearGradient>
</defs>
</svg>
