<svg width="308" height="170" viewBox="0 0 308 170" fill="none" xmlns="http://www.w3.org/2000/svg">
<rect x="1.5" y="11" width="295" height="158" rx="23" stroke="#201627" stroke-width="2"/>
<rect x="10.5" width="297" height="160" rx="24" fill="#201627"/>
<g clip-path="url(#clip0)">
<rect x="58.7138" y="76.7062" width="96" height="60" rx="7" transform="rotate(-14.1262 58.7138 76.7062)" fill="#201627"/>
<circle cx="96.4739" cy="105.873" r="16.5" transform="rotate(-14.1262 96.4739 105.873)" fill="#E54FC4"/>
<circle cx="96.4739" cy="105.873" r="4.5" transform="rotate(-14.1262 96.4739 105.873)" fill="#201627"/>
<path d="M99.8519 94.7109C101.186 94.5472 104.584 96.3042 106.043 98.8243" stroke="#FAF9FB" stroke-width="2" stroke-linecap="round"/>
<circle cx="125.598" cy="86.2118" r="16.5" transform="rotate(45.8545 125.598 86.2118)" fill="#E54FC4"/>
<circle cx="125.598" cy="86.2119" r="4.5" transform="rotate(45.8545 125.598 86.2119)" fill="#201627"/>
<path d="M136.952 83.5527C137.761 84.6256 137.94 88.447 136.488 90.9713" stroke="#FAF9FB" stroke-width="2" stroke-linecap="round"/>
<path d="M86.1089 90.4863L84.7865 82.692L92.7283 78.4579L93.5217 83.1345" stroke="#FAF9FB" stroke-width="2" stroke-linecap="round" stroke-linejoin="round"/>
<path d="M94.6394 83.1048C94.9828 83.749 94.6519 84.798 93.5802 85.3694C92.5085 85.9407 91.4531 85.6309 91.1097 84.9866C90.7662 84.3424 91.0972 83.2934 92.1688 82.7221C93.2405 82.1507 94.2959 82.4606 94.6394 83.1048Z" fill="#FAF9FB" stroke="#FAF9FB"/>
<path d="M87.697 91.3392C88.0404 91.9834 87.7095 93.0324 86.6378 93.6037C85.5662 94.1751 84.5108 93.8653 84.1673 93.221C83.8238 92.5768 84.1548 91.5278 85.2264 90.9565C86.2981 90.3851 87.3535 90.6949 87.697 91.3392Z" fill="#FAF9FB" stroke="#FAF9FB"/>
<path d="M139.302 104.475L140.935 96.7397L149.877 95.7181L148.897 100.359" stroke="#FAF9FB" stroke-width="2" stroke-linecap="round" stroke-linejoin="round"/>
<path d="M149.948 100.743C150.03 101.468 149.337 102.322 148.131 102.46C146.924 102.598 146.056 101.922 145.973 101.197C145.89 100.472 146.584 99.6175 147.79 99.4796C148.997 99.3418 149.865 100.018 149.948 100.743Z" fill="#FAF9FB" stroke="#FAF9FB"/>
<path d="M140.466 105.852C140.549 106.577 139.856 107.431 138.649 107.569C137.443 107.707 136.575 107.031 136.492 106.306C136.409 105.58 137.102 104.726 138.309 104.588C139.515 104.451 140.383 105.126 140.466 105.852Z" fill="#FAF9FB" stroke="#FAF9FB"/>
</g>
<rect x="58.7138" y="76.7062" width="96" height="60" rx="7" transform="rotate(-14.1262 58.7138 76.7062)" stroke="#FAF9FB" stroke-width="2"/>
<rect x="128.771" y="24.1206" width="96" height="60" rx="7" transform="rotate(7.41193 128.771 24.1206)" fill="#201627"/>
<path d="M197.646 72.6047C197.398 72.1115 196.796 71.9132 196.303 72.1618C195.81 72.4103 195.612 73.0116 195.86 73.5048L197.646 72.6047ZM206.623 82.6383C207.116 82.3898 207.314 81.7884 207.066 81.2953C206.817 80.8021 206.216 80.6038 205.723 80.8523L206.623 82.6383ZM197.686 84.903C197.192 85.1516 196.994 85.7529 197.243 86.2461C197.491 86.7392 198.093 86.9375 198.586 86.689L197.686 84.903ZM195.86 73.5048L201.261 84.2207L203.047 83.3206L197.646 72.6047L195.86 73.5048ZM202.604 84.6636L206.623 82.6383L205.723 80.8523L201.704 82.8777L202.604 84.6636ZM201.704 82.8777L197.686 84.903L198.586 86.689L202.604 84.6636L201.704 82.8777ZM205.723 80.8523L197.686 84.903L198.586 86.689L206.623 82.6383L205.723 80.8523Z" fill="#FAF9FB"/>
<path d="M187.084 56.0913C184.575 55.7649 179.772 52.9314 178.579 52.7861L188.252 71.7401C189.299 72.7057 192.419 74.2312 196.528 72.608C200.637 70.9849 200.76 67.3024 200.307 65.6641L196.554 57.3233L187.084 56.0913Z" fill="url(#paint0_linear)"/>
<path d="M187.716 44.0142L178.786 48.5149C177.8 49.012 177.403 50.2147 177.9 51.201L188.068 71.3739C188.702 72.6328 193.387 74.7507 197.234 72.8119C201.081 70.8732 201.307 66.5368 200.569 65.0728L190.402 44.9C189.905 43.9136 188.702 43.517 187.716 44.0142Z" stroke="#FAF9FB"/>
<path d="M147.555 66.114C147.963 65.7421 147.993 65.1097 147.621 64.7014C147.249 64.293 146.616 64.2635 146.208 64.6354L147.555 66.114ZM140.301 77.4554C140.672 77.8637 141.305 77.8932 141.713 77.5214C142.121 77.1495 142.151 76.517 141.779 76.1087L140.301 77.4554ZM135.719 69.4549C135.347 69.0466 134.714 69.0171 134.306 69.389C133.898 69.7609 133.868 70.3934 134.24 70.8017L135.719 69.4549ZM146.208 64.6354L137.336 72.7159L138.683 74.1945L147.555 66.114L146.208 64.6354ZM137.27 74.1285L140.301 77.4554L141.779 76.1087L138.749 72.7818L137.27 74.1285ZM138.749 72.7818L135.719 69.4549L134.24 70.8017L137.27 74.1285L138.749 72.7818ZM141.779 76.1087L135.719 69.4549L134.24 70.8017L140.301 77.4554L141.779 76.1087Z" fill="#FAF9FB"/>
<path d="M160.624 51.5048C158.297 50.5123 154.594 49.9084 154.414 48.7202L145.864 56.8328C145.215 58.1003 144.584 61.5159 147.251 65.0381C149.918 68.5604 153.498 67.6893 154.955 66.8135L169.333 54.1903C167.706 53.6425 165.862 53.7387 160.624 51.5048Z" fill="url(#paint1_linear)"/>
<path d="M172.427 48.8697L165.694 41.4767C164.95 40.66 163.685 40.601 162.868 41.3448L146.167 56.5563C145.125 57.5057 144.343 62.5877 147.244 65.7724C150.145 68.9571 154.382 68.0105 155.594 66.9066L172.295 51.6951C173.112 50.9513 173.171 49.6863 172.427 48.8697Z" stroke="#FAF9FB"/>
<path d="M177.604 44.0873L182.904 38.2221" stroke="#FAF9FB" stroke-width="2" stroke-linecap="round"/>
<path d="M172.085 43.8731L168.397 37.3428" stroke="#FAF9FB" stroke-width="2" stroke-linecap="round"/>
<rect x="128.771" y="24.1206" width="96" height="60" rx="7" transform="rotate(7.41193 128.771 24.1206)" stroke="#FAF9FB" stroke-width="2"/>
<g clip-path="url(#clip1)">
<rect x="161.555" y="73.3633" width="96" height="60" rx="7" fill="#201627"/>
<path d="M185.202 96.3157L158.5 119.708V134.063H260.5V111.202L235.935 92.0625L210.835 113.328L185.202 96.3157Z" fill="#6BD6D6"/>
<circle cx="220" cy="86.5625" r="5.5" fill="#F9BE75"/>
</g>
<rect x="161.555" y="73.3633" width="96" height="60" rx="7" stroke="#FAF9FB" stroke-width="2"/>
<path d="M268.719 22.4037C268.994 21.4331 270.369 21.4331 270.644 22.4037L273.526 32.5992C273.572 32.7595 273.656 32.906 273.773 33.0252L280.183 39.6002C280.561 39.9886 280.561 40.608 280.183 40.9963L273.773 47.5713C273.656 47.6906 273.572 47.837 273.526 47.9973L270.644 58.1928C270.369 59.1634 268.994 59.1634 268.719 58.1928L265.837 47.9973C265.792 47.837 265.707 47.6906 265.591 47.5713L259.181 40.9963C258.802 40.608 258.802 39.9886 259.181 39.6002L265.591 33.0252C265.707 32.906 265.792 32.7595 265.837 32.5992L268.719 22.4037Z" fill="#F9BE75"/>
<path d="M42.0613 115.557C42.3821 114.683 43.6179 114.683 43.9387 115.557L45.5278 119.885C45.5914 120.058 45.7018 120.21 45.8467 120.325L49.5064 123.215C50.0133 123.616 50.0133 124.384 49.5064 124.785L45.8467 127.675C45.7018 127.79 45.5914 127.942 45.5278 128.115L43.9387 132.443C43.6179 133.317 42.3821 133.317 42.0613 132.443L40.4722 128.115C40.4086 127.942 40.2982 127.79 40.1533 127.675L36.4936 124.785C35.9867 124.384 35.9867 123.616 36.4936 123.215L40.1533 120.325C40.2982 120.21 40.4086 120.058 40.4722 119.885L42.0613 115.557Z" fill="#6BD6D6"/>
<defs>
<linearGradient id="paint0_linear" x1="184.834" y1="49.6333" x2="196.452" y2="72.6845" gradientUnits="userSpaceOnUse">
<stop stop-color="#F27ACD"/>
<stop offset="0.520833" stop-color="#DCD599"/>
<stop offset="1" stop-color="#74DEE4"/>
</linearGradient>
<linearGradient id="paint1_linear" x1="164.589" y1="48.9819" x2="147.094" y2="64.9163" gradientUnits="userSpaceOnUse">
<stop stop-color="#F27ACD"/>
<stop offset="0.520833" stop-color="#DCD599"/>
<stop offset="1" stop-color="#74DEE4"/>
</linearGradient>
<clipPath id="clip0">
</clipPath>
<clipPath id="clip1">
</clipPath>
</defs>
</svg>
