<svg width="308" height="170" viewBox="0 0 308 170" fill="none" xmlns="http://www.w3.org/2000/svg">
<rect x="1.5" y="11" width="295" height="158" rx="23" stroke="#201627" stroke-width="2"/>
<rect x="10.5" width="297" height="160" rx="24" fill="#201627"/>
<line x1="85.5" y1="130" x2="222.5" y2="130" stroke="#FAF9FB" stroke-width="4" stroke-linecap="round"/>
<circle cx="229.5" cy="130" r="2" fill="#FAF9FB"/>
<path d="M61.221 52.6739C60.9647 54.648 61.1295 57.7303 61.5967 59.3384C62.3412 61.9887 63.5756 64.1484 65.6694 66.5007C68.7159 69.9066 72.3109 71.5342 75.9217 71.117C77.1864 70.9848 78.8549 70.5065 79.1665 70.2196C79.2656 70.1064 79.1884 69.3193 78.9273 68.0515C77.1305 59.4636 72.1002 53.142 65.5184 51.2187C63.9556 50.7702 61.852 50.5479 61.6029 50.8096C61.5137 50.9114 61.348 51.7457 61.221 52.6739Z" fill="#6BD6D6"/>
<path d="M257.338 30.8788C255.454 31.5202 252.761 33.0286 251.524 34.1577C249.475 35.9956 248.082 38.0566 246.895 40.9737C245.184 45.2107 245.31 49.155 247.279 52.2108C247.955 53.2873 249.121 54.5733 249.516 54.7263C249.661 54.7652 250.334 54.3485 251.356 53.5546C258.269 48.1515 261.721 40.8474 260.541 34.0925C260.254 32.4922 259.525 30.5066 259.18 30.3985C259.049 30.3635 258.227 30.583 257.338 30.8788Z" fill="#6BD6D6"/>
<path d="M237.076 84.3532C235.379 84.7472 233.039 85.7697 232.004 86.5585C231.157 87.1966 230.014 88.6012 229.622 89.4656C228.889 91.0917 228.838 92.9056 229.476 94.2563C230.134 95.623 231.105 96.5247 232.974 97.47C233.923 97.9547 233.837 97.9803 235.38 96.8693C237.353 95.4521 238.784 93.8343 239.531 92.1713C240.679 89.652 240.073 86.7119 237.987 84.663C237.585 84.2715 237.51 84.2427 237.076 84.3532Z" fill="#E54FC4"/>
<path d="M95.4812 83.9732C94.8976 85.6148 94.4967 88.1365 94.6026 89.4336C94.6831 90.4909 95.2494 92.211 95.7659 93.0073C96.7397 94.5017 98.2401 95.5225 99.7216 95.7137C101.227 95.897 102.51 95.5661 104.314 94.5019C105.234 93.9639 105.209 94.0505 105.106 92.1518C104.977 89.7264 104.386 87.6487 103.389 86.1228C101.887 83.7967 99.0838 82.7217 96.2336 83.3728C95.6869 83.5006 95.6222 83.548 95.4812 83.9732Z" fill="#E54FC4"/>
<path d="M173.943 41.001C172.552 41.0217 171 41.4451 170.012 42.7277L129.525 95.2891L129.5 124.179L157.489 116.678L197.971 64.1167C198.959 62.8341 198.972 61.2195 198.627 59.8704C198.283 58.5214 197.606 57.2264 196.689 55.8732C194.854 53.1669 192.015 50.2655 188.487 47.5675L187.881 47.1026H187.839C184.527 44.6536 181.223 42.8231 178.317 41.8228C176.765 41.2998 175.329 40.9802 173.943 41.001ZM173.586 45.4838C173.461 45.6498 173.411 45.5253 174.001 45.517C174.594 45.5087 175.619 45.683 176.84 46.1023C179.285 46.9407 182.535 48.7131 185.739 51.1621C188.943 53.6111 191.5 56.28 192.945 58.4135C193.667 59.4803 194.099 60.4225 194.244 60.9912C194.315 61.2734 194.319 61.4062 194.323 61.4519L154.841 112.714L134.02 118.293L134.041 96.8291L173.586 45.4838Z" fill="#FAF9FB"/>
<path d="M146.738 102.94C148.527 104.343 149.934 106.576 150.154 110.104C156.078 109.93 156.165 114.699 156.165 114.699L131.762 121.237L131.787 96.0578C131.787 96.0578 136.432 94.9081 137.798 100.653C137.793 100.657 143.073 100.063 146.738 102.94Z" fill="#FFCB8A"/>
<path d="M154.426 111.282C156.127 112.644 156.165 114.698 156.165 114.698L131.762 121.236L150.154 110.104C152.188 110.045 153.537 110.568 154.426 111.282Z" fill="#FFDAAD"/>
<path d="M135.544 96.8499C136.465 97.5224 137.324 98.6804 137.793 100.656L131.758 121.24L131.783 96.0613C131.783 96.0613 133.784 95.5673 135.544 96.8499Z" fill="#FEA639"/>
<path d="M137.287 113.926C138.769 115.034 140.288 116.557 141.475 118.633L131.758 121.235L131.766 111.211C131.771 111.215 134.46 111.813 137.287 113.926Z" fill="#1A1A1A"/>
<path d="M172.51 68.3293C175.744 70.799 178.517 73.6008 180.214 76.1079C181.916 78.615 182.406 80.6281 181.576 81.7073L156.165 114.702C156.165 114.702 156.077 109.933 150.154 110.107C149.486 99.3482 137.793 100.66 137.793 100.66C136.428 94.9151 131.783 96.0649 131.783 96.0649L157.194 63.0702C158.024 61.9952 160.1 61.9454 162.972 62.9333C165.848 63.9128 169.277 65.8554 172.51 68.3293Z" fill="#FFCB8A"/>
<path d="M187.113 49.3693C193.845 54.5163 197.905 60.5059 196.178 62.7432L187.686 73.7718C188.516 72.6968 188.026 70.6836 186.324 68.1724C184.622 65.6612 181.854 62.8677 178.62 60.3938C175.387 57.9241 171.958 55.9774 169.086 54.9936C166.214 54.0057 164.134 54.0556 163.308 55.1306L171.801 44.102C173.523 41.8647 180.38 44.2223 187.113 49.3693Z" fill="#E54FC4"/>
<path d="M180.501 45.2058L172.004 56.2386C167.725 54.1217 164.416 53.7024 163.304 55.1344L171.797 44.1058C172.946 42.6157 176.362 43.1594 180.501 45.2058Z" fill="#C940AB"/>
<path d="M178.255 73.6182C181.414 77.1878 182.676 80.2636 181.576 81.7039L156.165 114.699C156.165 114.699 156.078 109.929 150.154 110.104L178.255 73.6182Z" fill="#FFDAAD"/>
<path d="M187.686 73.772C188.516 72.6969 188.026 70.6838 186.324 68.1726C184.623 65.6655 181.854 62.8679 178.62 60.394C175.387 57.9243 171.958 55.9775 169.086 54.9938C166.214 54.0059 164.134 54.0557 163.308 55.1308L187.686 73.772ZM187.686 73.772L181.576 81.7042C183.303 79.4627 179.243 73.4773 172.511 68.3303C165.778 63.1833 158.921 60.8257 157.194 63.0671L163.304 55.1349L187.686 73.772Z" fill="#AEAEAE"/>
<path d="M165.894 64.1706L137.793 100.656C136.428 94.9113 131.783 96.0611 131.783 96.0611L157.194 63.0665C158.306 61.6344 161.615 62.0537 165.894 64.1706Z" fill="#FEA639"/>
<path d="M172.004 56.235L165.894 64.1672C161.615 62.0502 158.307 61.631 157.194 63.063L163.304 55.1309C164.416 53.703 167.725 54.1222 172.004 56.235Z" fill="#858585"/>
<path d="M184.365 65.6855C185.536 67.0096 186.465 68.2881 187.1 69.4503L180.986 77.3908C180.355 76.2286 179.426 74.946 178.255 73.6177L184.365 65.6855Z" fill="white"/>
<path d="M139.856 116.337C140.433 117.018 140.985 117.778 141.475 118.637L131.758 121.239L139.856 116.337Z" fill="#565656"/>
<path d="M132.484 95.3262C131.961 95.3469 131.629 95.4341 131.629 95.4341C131.401 95.4881 131.218 95.6582 131.156 95.8824C131.094 96.1065 131.152 96.3473 131.314 96.5133C131.476 96.6793 131.717 96.7457 131.941 96.6876C131.941 96.6876 132.933 96.4469 134.082 96.8205C135.228 97.1899 136.527 98.1031 137.171 100.809L137.303 101.366L137.872 101.303C137.872 101.303 140.678 101 143.521 101.963C146.365 102.926 149.196 105.006 149.515 110.153L149.552 110.775L150.175 110.759C152.964 110.676 154.185 111.693 154.841 112.697C155.496 113.706 155.521 114.719 155.521 114.719C155.525 114.951 155.65 115.163 155.853 115.275C156.057 115.387 156.302 115.383 156.501 115.262C156.7 115.142 156.816 114.926 156.812 114.694C156.812 114.694 156.791 113.324 155.924 111.992C155.115 110.751 153.496 109.563 150.744 109.48C150.204 104.275 146.987 101.772 143.936 100.739C141.57 99.9377 139.283 99.9336 138.271 99.9834C137.482 97.3227 135.905 96.0567 134.481 95.596C133.717 95.3428 133.003 95.3054 132.484 95.3262Z" fill="#201627"/>
<path d="M179.015 59.8822C182.427 62.4889 185.166 65.3073 186.86 67.8102C187.706 69.0596 188.3 70.2301 188.57 71.301C188.84 72.3719 188.79 73.3972 188.196 74.1609L187.171 73.3764C187.445 73.0236 187.532 72.4632 187.316 71.6165C187.1 70.7697 186.582 69.703 185.789 68.5324C184.203 66.1955 181.547 63.4436 178.226 60.9074C174.905 58.3713 171.552 56.5242 168.874 55.6027C167.534 55.142 166.363 54.9179 165.487 54.9303C164.611 54.9428 164.088 55.171 163.819 55.5239L162.793 54.7394C163.383 53.9715 164.366 53.656 165.471 53.6394C166.575 53.6228 167.861 53.8885 169.298 54.3824C172.162 55.3703 175.603 57.2755 179.015 59.8822Z" fill="#201627"/>
<path d="M172.905 67.8141C176.317 70.4208 179.056 73.2392 180.75 75.7421C181.597 76.9915 182.19 78.162 182.46 79.2329C182.73 80.2997 182.68 81.3291 182.086 82.0928L181.061 81.3083C181.335 80.9555 181.422 80.3951 181.206 79.5484C180.991 78.7016 180.472 77.6348 179.679 76.4643C178.093 74.1233 175.437 71.3755 172.116 68.8352C168.795 66.299 165.442 64.4519 162.764 63.5305C161.424 63.0697 160.253 62.8456 159.377 62.858C158.502 62.8705 157.979 63.0988 157.709 63.4516L156.683 62.6671C157.273 61.8992 158.257 61.5837 159.361 61.5671C160.465 61.5505 161.752 61.8162 163.188 62.3101C166.052 63.3022 169.493 65.2074 172.905 67.8141Z" fill="#201627"/>
<path d="M131.907 110.585L131.629 111.843C131.629 111.843 137.602 113.176 140.915 118.953L142.035 118.31C138.433 112.026 131.907 110.585 131.907 110.585Z" fill="#1A1A1A"/>
<path d="M131.515 121.599L156.098 114.748L195.292 63.9122C196.258 62.659 196.717 61.0567 196.134 59.5854C195.073 56.9062 192.656 53.0044 187.934 49.4629C183.086 45.827 178.163 44.2413 175.047 43.6783C173.529 43.404 172.066 44.1295 171.119 45.3462L131.515 96.2105V121.599Z" stroke="#201627" stroke-width="2.2" stroke-linecap="round"/>
</svg>
